<?xml version="1.0" standalone="no"?>
<!DOCTYPE svg PUBLIC "-//W3C//DTD SVG 20010904//EN"
 "http://www.w3.org/TR/2001/REC-SVG-20010904/DTD/svg10.dtd">
<svg version="1.0" xmlns="http://www.w3.org/2000/svg"
 width="782.000000pt" height="782.000000pt" viewBox="0 0 782.000000 782.000000"
 preserveAspectRatio="xMidYMid meet">
<metadata>
Created by potrace 1.11, written by Peter Selinger 2001-2013
</metadata>
<g transform="translate(0.000000,782.000000) scale(0.100000,-0.100000)"
fill="#000000" stroke="none">
<path d="M1498 7205 c-2 -1 -37 -5 -78 -9 -134 -11 -211 -74 -235 -193 -30
-149 39 -275 168 -310 12 -4 231 -7 487 -8 531 -3 533 -2 605 70 94 94 96 265
3 370 -37 41 -65 56 -133 71 -29 6 -810 15 -817 9z"/>
<path d="M1629 6006 c-2 -2 -53 -5 -114 -7 -60 -1 -116 -7 -122 -12 -7 -5 -13
-7 -13 -3 0 12 -81 -35 -115 -67 -71 -67 -102 -200 -69 -303 9 -30 20 -54 25
-54 4 0 10 -8 13 -17 8 -24 93 -81 138 -93 51 -14 155 -19 453 -19 319 0 460
5 501 17 51 16 112 60 140 101 73 111 63 269 -23 355 -31 31 -73 63 -88 66 -5
1 -21 7 -35 12 -14 6 -68 12 -120 14 -128 6 -522 6 -528 0 -2 -3 -12 -1 -22 4
-10 5 -19 8 -21 6z"/>
<path d="M1419 4768 c-24 -4 -51 -11 -59 -15 -16 -7 -25 -10 -38 -12 -15 -2
-98 -87 -109 -111 -34 -75 -40 -150 -18 -225 30 -104 139 -183 275 -199 39 -5
114 -6 380 -5 30 0 114 0 185 -1 151 -1 211 4 280 25 104 31 193 127 200 215
1 23 5 43 8 46 8 8 -17 105 -37 143 -35 66 -113 121 -196 137 -48 9 -817 11
-871 2z"/>
<path d="M3488 4768 c-111 -14 -199 -77 -231 -164 -20 -57 -28 -140 -16 -169
4 -11 10 -32 13 -46 14 -65 140 -163 228 -175 18 -3 44 -7 58 -10 50 -9 751
-1 795 9 170 39 259 184 220 357 -20 94 -103 172 -205 196 -43 10 -785 12
-862 2z"/>
<path d="M1717 3574 c-1 -1 -45 -5 -97 -8 -190 -12 -241 -20 -303 -52 -133
-66 -175 -208 -107 -362 35 -78 82 -119 175 -148 34 -11 871 -11 925 0 45 9
120 57 148 95 32 43 62 125 66 179 7 103 -51 197 -149 241 -51 23 -96 31 -255
47 -71 6 -397 13 -403 8z"/>
<path d="M3777 3574 c-1 -1 -40 -4 -87 -8 -212 -15 -250 -21 -305 -45 -40 -18
-123 -92 -126 -113 -2 -13 -5 -22 -15 -43 -5 -11 -9 -56 -8 -100 0 -62 5 -89
22 -122 37 -72 102 -126 164 -137 13 -3 23 -5 23 -6 0 -1 191 -3 425 -4 457
-2 505 2 578 48 77 49 118 127 121 227 2 59 -2 78 -28 131 -47 96 -120 139
-257 152 -28 3 -78 8 -110 11 -52 6 -391 14 -397 9z"/>
<path d="M5968 3565 c-1 -1 -97 -6 -213 -9 -115 -3 -226 -9 -245 -12 -136 -23
-222 -137 -215 -282 8 -135 96 -235 231 -259 70 -13 871 -8 912 5 118 38 193
145 195 277 1 94 -44 175 -123 222 -62 36 -84 40 -350 49 -91 3 -170 7 -177 9
-6 2 -13 2 -15 0z"/>
<path d="M1687 2364 c-1 -1 -58 -5 -127 -8 -142 -8 -141 -7 -195 -25 -124 -42
-194 -152 -182 -288 9 -101 64 -184 147 -220 86 -37 108 -39 535 -37 404 1
422 2 475 22 157 61 228 244 151 388 -45 84 -104 127 -206 149 -52 12 -588 28
-598 19z"/>
<path d="M3726 2363 c-1 -1 -49 -4 -106 -8 -157 -9 -176 -12 -240 -42 -92 -44
-150 -135 -150 -237 0 -142 77 -242 220 -283 8 -3 206 -6 439 -6 314 -2 438 1
474 11 62 15 125 57 154 102 12 19 27 41 33 48 6 6 8 12 6 12 -3 0 -1 12 5 28
18 46 12 143 -11 196 -39 86 -124 152 -210 162 -102 11 -605 26 -614 17z"/>
<path d="M5807 2364 c-1 -2 -61 -5 -132 -8 -72 -4 -147 -10 -167 -15 -91 -21
-177 -99 -202 -181 -17 -55 -14 -153 7 -202 18 -42 95 -130 107 -123 5 3 11 1
15 -5 3 -5 32 -17 63 -27 49 -14 113 -17 447 -18 215 0 413 3 440 8 156 27
246 133 246 289 0 91 -42 168 -120 216 -58 37 -109 49 -246 58 -103 6 -453 12
-458 8z"/>
<path d="M915 1172 c-52 -5 -136 -32 -174 -56 -48 -31 -81 -70 -112 -134 -52
-104 -26 -201 84 -317 l62 -65 290 1 c160 0 297 0 305 1 8 0 80 0 160 -1 80 0
152 0 160 0 8 0 188 1 400 0 212 0 392 0 400 0 8 1 188 1 400 0 212 0 392 0
400 1 8 0 80 0 160 -1 80 0 152 0 160 0 8 0 188 1 400 0 212 0 392 0 400 0 8
1 296 1 640 1 344 -1 632 -1 640 0 139 0 821 -2 895 -2 55 -1 125 -1 155 -1
76 1 261 0 269 -1 27 -5 112 64 158 128 36 52 55 121 48 182 -3 30 -10 63 -15
72 -5 10 -6 20 -3 24 3 3 1 6 -5 6 -7 0 -12 7 -12 14 0 25 -82 102 -127 119
-23 9 -63 19 -90 23 -45 7 -5984 12 -6048 6z"/>
</g>
</svg>
