<?xml version="1.0" standalone="no"?>
<!DOCTYPE svg PUBLIC "-//W3C//DTD SVG 20010904//EN"
 "http://www.w3.org/TR/2001/REC-SVG-20010904/DTD/svg10.dtd">
<svg version="1.0" xmlns="http://www.w3.org/2000/svg"
 width="467.000000pt" height="467.000000pt" viewBox="0 0 467.000000 467.000000"
 preserveAspectRatio="xMidYMid meet">
<metadata>
Created by potrace 1.14, written by Peter Selinger 2001-2017
</metadata>
<g transform="translate(0.000000,467.000000) scale(0.100000,-0.100000)"
fill="#000000" stroke="none">
<path d="M1193 3709 c-9 -3 -18 -16 -20 -30 -2 -13 -15 -87 -28 -164 -14 -77
-27 -154 -30 -172 l-6 -31 51 2 c28 1 55 -1 61 -5 7 -4 5 -34 -5 -90 -19 -103
-23 -128 -36 -204 -5 -33 -12 -71 -15 -85 -3 -14 -8 -41 -11 -60 -2 -19 -6
-46 -9 -60 -3 -14 -7 -36 -10 -50 -26 -151 -36 -203 -44 -250 -6 -30 -13 -71
-16 -90 -14 -78 -26 -146 -30 -160 -2 -8 -4 -27 -4 -41 -1 -25 -3 -26 -61 -26
-33 0 -63 -2 -66 -5 -2 -3 -14 -57 -24 -119 -11 -63 -24 -136 -30 -164 -5 -27
-12 -68 -15 -90 -3 -22 -8 -48 -11 -57 -5 -17 29 -18 613 -18 l618 0 138 138
c76 75 136 130 133 122 -3 -8 -7 -31 -10 -50 -3 -19 -8 -46 -11 -60 -3 -14
-10 -52 -15 -85 -5 -33 -12 -69 -14 -80 -2 -11 -7 -40 -11 -65 -4 -25 -9 -54
-11 -65 -11 -55 -34 -191 -34 -197 0 -5 -29 -8 -64 -8 l-63 0 -14 -77 c-7 -43
-14 -85 -15 -93 -1 -8 -11 -68 -23 -132 -12 -64 -21 -120 -21 -125 0 -4 276
-7 613 -7 530 2 622 4 676 18 153 39 287 150 360 297 109 221 87 446 -56 581
-31 29 -137 88 -159 88 -8 0 -14 5 -14 10 0 6 8 10 18 10 39 0 146 62 202 118
157 158 202 420 105 618 -54 110 -167 203 -285 234 -54 15 -1096 18 -1110 4
-4 -5 -11 -27 -14 -49 -3 -22 -13 -78 -21 -125 -9 -47 -18 -96 -19 -110 -2
-14 -7 -44 -11 -67 l-7 -43 61 0 61 0 -5 -27 c-3 -16 -17 -90 -30 -165 -14
-76 -25 -141 -25 -146 0 -5 -193 -9 -431 -9 l-430 0 6 45 c5 37 20 118 39 218
5 24 13 75 22 132 3 20 7 44 9 52 2 8 7 38 11 65 3 28 8 53 10 56 1 3 12 61
24 130 11 68 23 135 26 149 2 14 7 41 10 60 4 19 7 40 8 45 2 6 8 45 16 88 9
58 17 77 29 78 9 1 37 1 64 1 37 0 47 4 48 17 0 9 2 23 4 31 10 48 46 252 51
290 3 25 7 49 8 54 1 9 -674 15 -701 5z m2013 -1174 c51 -9 101 -58 118 -115
24 -82 -8 -167 -79 -204 -36 -19 -58 -21 -222 -22 -145 -1 -183 2 -183 12 0 7
9 59 19 116 22 117 35 188 35 203 1 5 14 12 30 15 39 7 239 4 282 -5z m-9
-821 c81 -40 114 -131 79 -215 -17 -41 -61 -84 -99 -98 -17 -7 -119 -11 -254
-11 l-225 0 7 48 c4 26 9 56 10 67 5 34 36 199 41 218 5 15 23 17 198 17 186
0 194 -1 243 -26z"/>
</g>
</svg>
