<svg id="Layer_1" data-name="Layer 1" xmlns="http://www.w3.org/2000/svg" viewBox="0 0 163.21 77.96"><defs><style>#logopath{fill:#000000;}</style></defs><path id="logopath" d="M118.41,67.12h-1.76v1.63h1.76V67.12Zm0.95-6.78,3.43-3.58h-2.24l-3.42,3.68V56.76h-1.85v8.43h1.85V62.61l1-1,2.61,3.59h2.23Zm-4.26,14,1.12-2.73,1.12,2.73H115.1Zm0.29-5-3.61,8.48h1.89l0.77-1.89H118l0.77,1.89h1.94l-3.61-8.48h-1.71Zm-27.12,3a1.22,1.22,0,0,1-1.42,1.19H85V71.08h1.84a1.22,1.22,0,0,1,1.46,1.2v0Zm1.88-.1v0a2.64,2.64,0,0,0-.72-1.93A3.36,3.36,0,0,0,87,69.4H83.11v8.43H85v-2.7h1.46l1.81,2.7h2.17l-2.06-3a2.62,2.62,0,0,0,1.81-2.61m5.69,0.58C94.38,72.41,94,72.23,94,71.68v0a0.89,0.89,0,0,1,1.08-.73,4,4,0,0,1,2.19.83l1-1.4a4.88,4.88,0,0,0-3.13-1.07c-1.72,0-2.95,1-2.95,2.54v0c0,1.67,1.1,2.14,2.79,2.58,1.41,0.36,1.7.6,1.7,1.07v0c0,0.49-.46.8-1.22,0.8a3.87,3.87,0,0,1-2.52-1l-1.1,1.31a5.36,5.36,0,0,0,3.58,1.35c1.82,0,3.09-.94,3.09-2.61v0c0-1.47-1-2.08-2.67-2.53m8.47-1.67h2.56v6.72h1.85V71.11h2.56V69.4h-7v1.71Zm16.73,0h2.56v6.72h1.85V71.11H128V69.4h-7v1.71Zm-14.32-7.44a3.86,3.86,0,0,1-2.51-1L103.1,64a5.37,5.37,0,0,0,3.58,1.35c1.82,0,3.09-.94,3.09-2.61v0c0-1.47-1-2.08-2.67-2.53-1.46-.37-1.82-0.55-1.82-1.11v0a0.89,0.89,0,0,1,1.08-.73,4,4,0,0,1,2.19.83l1-1.4a4.88,4.88,0,0,0-3.13-1.07c-1.72,0-2.95,1-2.95,2.54v0c0,1.67,1.1,2.14,2.79,2.58,1.41,0.36,1.7.6,1.7,1.07v0c0,0.49-.46.8-1.22,0.8m-6,14.15h1.85V69.4h-1.85v8.43Zm48.89-16.06h4V60.12h-4V58.41h4.51V56.76h-6.36v8.43h6.42V63.54h-4.57V61.77ZM156.09,71h4.49l-4.63,5.39v1.41h7V76.2h-4.63L163,70.81V69.4h-6.87V71Zm1.69-12.59h1.84a1.22,1.22,0,0,1,1.46,1.2v0a1.22,1.22,0,0,1-1.42,1.19h-1.88V58.44Zm0,4.06h1.46l1.81,2.7h2.17l-2.06-3A2.62,2.62,0,0,0,163,59.57v0a2.64,2.64,0,0,0-.72-1.92,3.35,3.35,0,0,0-2.46-.86h-3.85v8.43h1.85v-2.7Zm-5.61,12.1-3.95-5.19h-1.71v8.43h1.83V72.47l4.08,5.36H154V69.4h-1.83v5.19Zm-9.95-17.83h-1.85v8.43h6.06V63.5h-4.2V56.76Zm-8.06,1.67h1.43a1.28,1.28,0,0,1,1.51,1.28v0A1.31,1.31,0,0,1,135.63,61h-1.47V58.44ZM139,59.7v0c0-1.72-1.22-2.91-3.23-2.91h-3.44v8.43h1.85V62.66h1.41c1.89,0,3.41-1,3.41-3m3.09,18.13h1.85V69.4h-1.85v8.43Zm-6-8.43h-1.85v8.43h6.05V76.14h-4.2V69.4Zm-10.13-7.63h4V60.12h-4V58.41h4.51V56.76H124.1v8.43h6.42V63.54h-4.57V61.77ZM49.32,61v0a2.52,2.52,0,0,1,2.53-2.62A2.56,2.56,0,0,1,54.39,61v0a2.52,2.52,0,0,1-2.53,2.62A2.56,2.56,0,0,1,49.32,61m7,0v0a4.48,4.48,0,0,0-9,0v0a4.48,4.48,0,0,0,9,0M89,33.39H40.74V43.88H89V33.39ZM89,0L64.85,20.66,40.74,0V12.74L64.85,33.39,89,12.74V0ZM22,26.63c0,5.58-2.48,8-6.48,8-3.37,0-6.06-1.79-8.82-4.82L0,37.24a19.71,19.71,0,0,0,15.78,7.23C21,44.48,25.35,43,28.31,40s4.55-7.16,4.55-12.88V0H22V26.63ZM45.06,64.53a3.05,3.05,0,0,0,.79-2.25V56.76H44v5.43a1.14,1.14,0,0,1-1.13,1.4,2.08,2.08,0,0,1-1.54-.84L40.11,64a3.44,3.44,0,0,0,2.76,1.26,3,3,0,0,0,2.19-.78m40.89-7.76v8.43h1.83V59.83l4.08,5.36h1.58V56.76H91.6V62l-3.95-5.19H85.94Zm31.76-12.22c13,0,21.15-7.16,21.15-21.77V0H128.25V23.19c0,7.65-3.93,11.57-10.4,11.57s-10.4-4.06-10.4-11.92V0H96.83V23.12c0,14.19,7.92,21.42,20.87,21.42M46.23,74.23a1.74,1.74,0,0,1-1.82,2c-1.13,0-1.82-.71-1.82-2.08V69.4H40.74v4.81c0,2.48,1.38,3.74,3.65,3.74s3.69-1.25,3.69-3.8V69.4H46.23v4.83ZM102,63.54H97.4V61.77h4V60.12h-4V58.41h4.51V56.76H95.56v8.43H102V63.54Zm13.86,3.57h-1.76v1.63h1.76V67.12Zm-59.6,7.48L52.28,69.4H50.57v8.43H52.4V72.47l4.08,5.36h1.58V69.4H56.23v5.19Zm8.67-9.4V56.76H63.05V60.1H59.63V56.76H57.78v8.43h1.85V61.81h3.42v3.38H64.9Zm3.68,10.15-2.2-5.93h-2l3.41,8.48h1.64l3.41-8.48h-2Zm7.7-.93h4V72.76h-4V71.05h4.51V69.4H74.44v8.43h6.42V76.18H76.28V74.41Zm-6.8-12.75,1.12-2.73,1.12,2.73H69.48Zm2-5H69.77l-3.61,8.48H68l0.77-1.89h3.56l0.77,1.89h1.94ZM60.67,77.83h1.85V69.4H60.67v8.43ZM83.83,56.76H82V62l-3.95-5.19H76.34v8.43h1.83V59.83l4.08,5.36h1.58V56.76Z"/></svg>