<?xml version="1.0" encoding="utf-8"?>
<!-- Generator: Adobe Illustrator 16.0.0, SVG Export Plug-In . SVG Version: 6.00 Build 0)  -->
<!DOCTYPE svg PUBLIC "-//W3C//DTD SVG 1.1//EN" "http://www.w3.org/Graphics/SVG/1.1/DTD/svg11.dtd">
<svg version="1.1" id="Layer_1" xmlns="http://www.w3.org/2000/svg" xmlns:xlink="http://www.w3.org/1999/xlink" x="0px" y="0px"
	 width="172.977px" height="104px" viewBox="0 0 172.977 104" enable-background="new 0 0 172.977 104" xml:space="preserve">
<g>
	<path fill="#C8152F" d="M95.274,45.102v-4.209l-1.248,2.172h-1.382l-1.247-2.172v4.209h-2.16v-8.789h2.123l1.976,3.877l1.976-3.877
		h2.123v8.789H95.274z"/>
	<path fill="#C8152F" d="M94.417,52.832v6.863h-2.16v-6.863h-2.161v-1.926h6.481v1.926H94.417z"/>
	<path fill="#C8152F" d="M95.817,73.427c-0.654,0.666-1.444,1.012-2.494,1.012c-1.024,0-1.802-0.346-2.443-0.986
		c-0.926-0.926-0.889-2.162-0.889-3.482s-0.037-2.555,0.889-3.48c0.642-0.643,1.383-0.988,2.443-0.988
		c1.26,0,1.926,0.297,2.717,1.086l-1.47,1.471c-0.419-0.42-0.691-0.631-1.247-0.631c-0.395,0-0.691,0.174-0.852,0.383
		c-0.197,0.26-0.32,0.557-0.32,2.16c0,1.605,0.123,1.914,0.32,2.174c0.16,0.209,0.457,0.369,0.852,0.369
		c0.457,0,0.691-0.135,0.889-0.346c0.234-0.234,0.321-0.666,0.321-0.963v-0.098h-1.21v-1.803h3.357v1.186
		C96.681,71.91,96.483,72.748,95.817,73.427z"/>
	<path fill="#C8152F" d="M103.355,45.105v-0.68c-0.214,0.246-0.466,0.434-0.757,0.562c-0.291,0.127-0.609,0.191-0.955,0.191
		c-0.664,0-1.186-0.189-1.562-0.568c-0.214-0.215-0.369-0.463-0.469-0.748c-0.098-0.283-0.146-0.602-0.146-0.957v-3.877h0.889v3.742
		c0,0.543,0.131,0.949,0.394,1.217s0.623,0.4,1.082,0.4c0.46,0,0.826-0.137,1.101-0.408c0.275-0.271,0.412-0.674,0.412-1.209v-3.742
		h0.902v6.076H103.355z"/>
	<path fill="#C8152F" d="M110.393,44.111c-0.12,0.227-0.288,0.42-0.507,0.58c-0.218,0.16-0.478,0.281-0.777,0.363
		c-0.301,0.084-0.637,0.125-1.007,0.125c-0.519,0-0.979-0.066-1.384-0.197c-0.402-0.133-0.773-0.359-1.111-0.68l0.594-0.594
		c0.238,0.256,0.518,0.438,0.84,0.543c0.32,0.107,0.67,0.162,1.049,0.162c0.502,0,0.897-0.09,1.186-0.266
		c0.289-0.178,0.433-0.447,0.433-0.809c0-0.264-0.081-0.471-0.241-0.619s-0.418-0.238-0.771-0.271l-1-0.086
		c-0.594-0.049-1.044-0.207-1.353-0.475c-0.31-0.268-0.464-0.652-0.464-1.156c0-0.279,0.057-0.527,0.167-0.746
		c0.111-0.219,0.266-0.404,0.464-0.557c0.197-0.152,0.434-0.27,0.709-0.352c0.276-0.082,0.574-0.123,0.896-0.123
		c0.436,0,0.842,0.053,1.216,0.16s0.698,0.271,0.97,0.494l-0.58,0.58c-0.215-0.164-0.459-0.285-0.735-0.363s-0.57-0.117-0.883-0.117
		c-0.444,0-0.782,0.088-1.013,0.264c-0.23,0.178-0.346,0.424-0.346,0.736c0,0.264,0.08,0.469,0.24,0.617
		c0.161,0.148,0.435,0.238,0.822,0.271l0.975,0.086c0.264,0.025,0.507,0.07,0.729,0.137c0.223,0.066,0.412,0.164,0.568,0.297
		c0.156,0.131,0.278,0.295,0.365,0.492c0.086,0.199,0.129,0.438,0.129,0.717C110.571,43.623,110.512,43.885,110.393,44.111z"/>
	<path fill="#C8152F" d="M111.934,37.299v-1h1.001v1H111.934z M111.983,45.105v-6.076h0.889v6.076H111.983z"/>
	<path fill="#C8152F" d="M118.217,44.982c-0.3,0.131-0.661,0.197-1.081,0.197c-0.387,0-0.742-0.064-1.068-0.191
		c-0.324-0.129-0.609-0.322-0.852-0.582c-0.242-0.258-0.432-0.584-0.568-0.975c-0.135-0.391-0.203-0.846-0.203-1.365
		c0-0.518,0.068-0.971,0.203-1.357c0.137-0.387,0.326-0.711,0.568-0.971c0.242-0.258,0.527-0.455,0.852-0.586
		c0.326-0.131,0.682-0.197,1.068-0.197c0.42,0,0.781,0.066,1.081,0.197c0.301,0.131,0.607,0.367,0.921,0.703l-0.605,0.568
		c-0.23-0.254-0.449-0.432-0.654-0.531c-0.207-0.098-0.453-0.148-0.742-0.148c-0.296,0-0.563,0.059-0.803,0.174
		c-0.238,0.115-0.439,0.289-0.604,0.52c-0.14,0.197-0.241,0.422-0.303,0.672c-0.062,0.252-0.093,0.57-0.093,0.957
		s0.031,0.707,0.093,0.957c0.062,0.252,0.163,0.477,0.303,0.674c0.165,0.23,0.366,0.402,0.604,0.518
		c0.239,0.117,0.507,0.174,0.803,0.174c0.289,0,0.535-0.051,0.742-0.154c0.205-0.104,0.424-0.281,0.654-0.537l0.605,0.58
		C118.824,44.615,118.518,44.85,118.217,44.982z"/>
	<path fill="#C8152F" d="M98.132,56.886c0,0.664,0.152,1.178,0.457,1.541c0.305,0.365,0.749,0.547,1.334,0.547
		c0.354,0,0.648-0.055,0.883-0.166s0.471-0.287,0.71-0.525l0.604,0.531c-0.156,0.156-0.311,0.295-0.463,0.412
		s-0.314,0.215-0.487,0.295c-0.173,0.078-0.364,0.139-0.575,0.182c-0.209,0.041-0.441,0.062-0.697,0.062
		c-0.403,0-0.768-0.062-1.093-0.186s-0.603-0.312-0.833-0.568c-0.231-0.256-0.41-0.578-0.538-0.969
		c-0.128-0.393-0.191-0.855-0.191-1.391c0-0.989,0.223-1.754,0.667-2.297c0.445-0.543,1.054-0.814,1.828-0.814
		c0.79,0,1.403,0.264,1.84,0.789c0.437,0.527,0.654,1.244,0.654,2.151v0.406H98.132z M101.317,55.899
		c-0.008-0.092-0.018-0.174-0.03-0.248s-0.028-0.146-0.05-0.217c-0.021-0.068-0.047-0.145-0.08-0.229
		c-0.115-0.279-0.301-0.502-0.556-0.666s-0.544-0.246-0.864-0.246c-0.321,0-0.609,0.082-0.865,0.246
		c-0.255,0.164-0.439,0.387-0.555,0.666c-0.066,0.166-0.111,0.314-0.137,0.445c-0.024,0.133-0.041,0.32-0.049,0.569h3.211
		C101.335,56.097,101.326,55.989,101.317,55.899z"/>
	<path fill="#C8152F" d="M107.313,59.568c-0.3,0.131-0.66,0.197-1.08,0.197c-0.387,0-0.743-0.064-1.068-0.191
		c-0.325-0.129-0.609-0.322-0.852-0.582c-0.243-0.258-0.433-0.584-0.568-0.975s-0.204-0.846-0.204-1.365
		c0-0.518,0.068-0.971,0.204-1.358s0.325-0.711,0.568-0.971c0.242-0.258,0.526-0.455,0.852-0.586s0.682-0.197,1.068-0.197
		c0.42,0,0.78,0.066,1.08,0.197c0.301,0.131,0.607,0.367,0.921,0.703l-0.605,0.568c-0.23-0.254-0.448-0.432-0.654-0.531
		c-0.206-0.098-0.453-0.148-0.741-0.148c-0.297,0-0.564,0.059-0.803,0.174s-0.44,0.289-0.605,0.52
		c-0.14,0.197-0.24,0.422-0.303,0.672c-0.061,0.252-0.092,0.571-0.092,0.958s0.031,0.707,0.092,0.957
		c0.062,0.252,0.163,0.477,0.303,0.674c0.165,0.23,0.367,0.402,0.605,0.518c0.238,0.117,0.506,0.174,0.803,0.174
		c0.288,0,0.535-0.051,0.741-0.154s0.424-0.281,0.654-0.537l0.605,0.58C107.921,59.201,107.614,59.435,107.313,59.568z"/>
	<path fill="#C8152F" d="M113.511,59.691v-3.756c0-0.533-0.131-0.936-0.395-1.203s-0.626-0.402-1.088-0.402
		c-0.461,0-0.829,0.137-1.104,0.408c-0.276,0.271-0.414,0.672-0.414,1.197v3.756h-0.89v-8.793h0.89v3.383
		c0.437-0.494,1.005-0.74,1.704-0.74c0.691,0,1.229,0.201,1.612,0.605c0.383,0.402,0.574,0.951,0.574,1.643v3.903H113.511z"/>
	<path fill="#C8152F" d="M120.124,59.691v-3.743c0-0.543-0.134-0.949-0.4-1.217c-0.269-0.268-0.633-0.402-1.094-0.402
		s-0.827,0.137-1.1,0.408c-0.271,0.271-0.407,0.676-0.407,1.211v3.743h-0.89v-6.077h0.89v0.666c0.214-0.246,0.466-0.432,0.753-0.555
		c0.289-0.125,0.605-0.186,0.951-0.186c0.659,0,1.178,0.189,1.557,0.568c0.42,0.412,0.63,0.975,0.63,1.691v3.891H120.124z"/>
	<path fill="#C8152F" d="M127.381,57.98c-0.095,0.416-0.294,0.779-0.599,1.094c-0.215,0.213-0.466,0.383-0.754,0.506
		s-0.617,0.186-0.988,0.186c-0.37,0-0.699-0.062-0.988-0.186c-0.287-0.123-0.539-0.293-0.753-0.506
		c-0.156-0.156-0.282-0.328-0.376-0.514c-0.096-0.186-0.17-0.379-0.223-0.58c-0.054-0.201-0.091-0.414-0.111-0.637
		c-0.021-0.221-0.031-0.451-0.031-0.691c0-0.23,0.011-0.459,0.031-0.686c0.021-0.227,0.058-0.439,0.111-0.643
		c0.053-0.201,0.127-0.395,0.223-0.58c0.094-0.186,0.22-0.355,0.376-0.512c0.214-0.215,0.466-0.383,0.753-0.506
		c0.289-0.125,0.618-0.186,0.988-0.186c0.371,0,0.7,0.061,0.988,0.186c0.288,0.123,0.539,0.291,0.754,0.506
		c0.305,0.312,0.504,0.678,0.599,1.092c0.095,0.416,0.142,0.86,0.142,1.329C127.522,57.123,127.476,57.564,127.381,57.98z
		 M126.621,56.134c-0.009-0.174-0.028-0.342-0.062-0.508c-0.033-0.164-0.082-0.318-0.148-0.463c-0.066-0.143-0.152-0.273-0.26-0.389
		c-0.296-0.297-0.666-0.445-1.111-0.445c-0.436,0-0.803,0.148-1.099,0.445c-0.116,0.115-0.204,0.246-0.266,0.389
		c-0.062,0.145-0.111,0.299-0.148,0.463c-0.037,0.166-0.06,0.334-0.067,0.508c-0.009,0.172-0.013,0.346-0.013,0.518
		c0,0.174,0.004,0.346,0.013,0.52c0.008,0.172,0.03,0.342,0.067,0.506s0.087,0.32,0.148,0.469s0.149,0.277,0.266,0.383
		c0.296,0.297,0.663,0.445,1.099,0.445c0.445,0,0.815-0.148,1.111-0.445c0.107-0.105,0.193-0.234,0.26-0.383
		s0.115-0.305,0.148-0.469s0.053-0.334,0.062-0.506c0.009-0.174,0.013-0.346,0.013-0.52C126.634,56.48,126.63,56.306,126.621,56.134
		z"/>
	<path fill="#C8152F" d="M130.63,59.691c-0.535,0-0.926-0.154-1.173-0.463s-0.37-0.693-0.37-1.156v-7.174h0.889v7.137
		c0,0.297,0.058,0.52,0.173,0.668s0.329,0.223,0.642,0.223h0.482v0.766H130.63z"/>
	<path fill="#C8152F" d="M137.007,57.98c-0.096,0.416-0.295,0.779-0.6,1.094c-0.215,0.213-0.465,0.383-0.754,0.506
		c-0.287,0.123-0.617,0.186-0.987,0.186s-0.7-0.062-0.988-0.186s-0.539-0.293-0.753-0.506c-0.156-0.156-0.282-0.328-0.377-0.514
		s-0.169-0.379-0.223-0.58c-0.053-0.201-0.09-0.414-0.111-0.637c-0.02-0.221-0.03-0.451-0.03-0.691c0-0.23,0.011-0.459,0.03-0.686
		c0.021-0.227,0.059-0.439,0.111-0.643c0.054-0.201,0.128-0.395,0.223-0.58s0.221-0.355,0.377-0.512
		c0.214-0.215,0.465-0.383,0.753-0.506c0.288-0.125,0.618-0.186,0.988-0.186s0.7,0.061,0.987,0.186
		c0.289,0.123,0.539,0.291,0.754,0.506c0.305,0.312,0.504,0.678,0.6,1.092c0.094,0.416,0.141,0.86,0.141,1.329
		C137.147,57.123,137.101,57.564,137.007,57.98z M136.247,56.134c-0.009-0.174-0.029-0.342-0.062-0.508
		c-0.033-0.164-0.082-0.318-0.148-0.463c-0.065-0.143-0.152-0.273-0.259-0.389c-0.296-0.297-0.667-0.445-1.111-0.445
		c-0.437,0-0.803,0.148-1.099,0.445c-0.116,0.115-0.205,0.246-0.266,0.389c-0.062,0.145-0.111,0.299-0.148,0.463
		c-0.037,0.166-0.061,0.334-0.068,0.508c-0.008,0.172-0.012,0.346-0.012,0.518c0,0.174,0.004,0.346,0.012,0.52
		c0.008,0.172,0.031,0.342,0.068,0.506s0.086,0.32,0.148,0.469c0.061,0.148,0.149,0.277,0.266,0.383
		c0.296,0.297,0.662,0.445,1.099,0.445c0.444,0,0.815-0.148,1.111-0.445c0.106-0.105,0.193-0.234,0.259-0.383
		c0.066-0.148,0.115-0.305,0.148-0.469s0.054-0.334,0.062-0.506c0.008-0.174,0.012-0.346,0.012-0.52
		C136.259,56.48,136.255,56.306,136.247,56.134z"/>
	<path fill="#C8152F" d="M143.113,60.919c-0.116,0.316-0.28,0.59-0.494,0.82s-0.479,0.412-0.797,0.545
		c-0.317,0.131-0.673,0.197-1.067,0.197c-0.231,0-0.438-0.016-0.618-0.045s-0.353-0.076-0.513-0.145
		c-0.16-0.066-0.316-0.152-0.469-0.256c-0.152-0.105-0.307-0.232-0.463-0.383l0.58-0.568c0.106,0.1,0.211,0.186,0.314,0.26
		s0.21,0.139,0.321,0.191s0.232,0.092,0.364,0.117s0.284,0.037,0.457,0.037c0.297,0,0.55-0.049,0.76-0.146s0.383-0.229,0.519-0.393
		c0.136-0.162,0.234-0.357,0.296-0.58c0.062-0.225,0.094-0.469,0.094-0.729V58.9c-0.248,0.309-0.512,0.516-0.791,0.621
		c-0.28,0.104-0.585,0.156-0.914,0.156c-0.312,0-0.595-0.049-0.846-0.146c-0.252-0.1-0.459-0.23-0.624-0.396
		c-0.305-0.305-0.505-0.68-0.599-1.123c-0.095-0.445-0.143-0.914-0.143-1.408s0.048-0.963,0.143-1.409
		c0.094-0.445,0.294-0.818,0.599-1.123c0.165-0.166,0.374-0.295,0.63-0.389c0.256-0.096,0.539-0.143,0.852-0.143
		c0.338,0,0.645,0.051,0.921,0.154c0.275,0.104,0.537,0.314,0.784,0.635v-0.715h0.877v6.262
		C143.286,60.253,143.228,60.603,143.113,60.919z M142.347,55.772c-0.032-0.275-0.103-0.52-0.209-0.73
		c-0.107-0.211-0.26-0.381-0.457-0.514s-0.461-0.199-0.791-0.199c-0.329,0-0.595,0.066-0.797,0.199
		c-0.201,0.133-0.355,0.303-0.463,0.514c-0.106,0.211-0.177,0.455-0.209,0.73c-0.033,0.277-0.05,0.555-0.05,0.836
		c0,0.289,0.017,0.57,0.05,0.842c0.032,0.273,0.103,0.514,0.209,0.725c0.107,0.211,0.262,0.383,0.463,0.514
		c0.202,0.133,0.468,0.199,0.797,0.199c0.33,0,0.594-0.066,0.791-0.199c0.197-0.131,0.35-0.303,0.457-0.514
		c0.106-0.211,0.177-0.451,0.209-0.725c0.033-0.271,0.051-0.553,0.051-0.842C142.397,56.328,142.38,56.05,142.347,55.772z"/>
	<path fill="#C8152F" d="M146.926,61.16c-0.115,0.322-0.26,0.561-0.432,0.717c-0.166,0.156-0.35,0.266-0.557,0.328
		c-0.205,0.061-0.416,0.092-0.629,0.092h-0.383v-0.791h0.271c0.305,0,0.523-0.055,0.654-0.166s0.246-0.307,0.346-0.586l0.432-1.186
		l-2.186-5.954h0.963l1.668,4.877l1.654-4.877h0.965L146.926,61.16z"/>
	<path fill="#C8152F" d="M102.058,69.375c-0.165-0.164-0.321-0.279-0.469-0.346c-0.148-0.066-0.342-0.1-0.581-0.1
		c-0.222,0-0.425,0.043-0.604,0.125c-0.182,0.082-0.334,0.197-0.457,0.346c-0.124,0.148-0.221,0.32-0.291,0.518
		c-0.07,0.199-0.105,0.412-0.105,0.643v3.73h-0.889v-6.076h0.889v0.74c0.166-0.254,0.402-0.455,0.711-0.6
		c0.309-0.143,0.641-0.215,0.994-0.215c0.288,0,0.549,0.041,0.784,0.123c0.234,0.082,0.459,0.23,0.673,0.445L102.058,69.375z"/>
	<path fill="#C8152F" d="M108.068,72.58c-0.095,0.416-0.295,0.779-0.6,1.094c-0.214,0.213-0.465,0.383-0.753,0.506
		s-0.618,0.186-0.987,0.186c-0.371,0-0.701-0.062-0.988-0.186c-0.289-0.123-0.539-0.293-0.754-0.506
		c-0.156-0.156-0.281-0.328-0.377-0.514c-0.094-0.186-0.168-0.379-0.222-0.58s-0.091-0.414-0.111-0.637
		c-0.021-0.221-0.03-0.451-0.03-0.691c0-0.23,0.01-0.459,0.03-0.686s0.058-0.439,0.111-0.643c0.054-0.201,0.128-0.395,0.222-0.58
		c0.096-0.186,0.221-0.355,0.377-0.512c0.215-0.215,0.465-0.383,0.754-0.506c0.287-0.125,0.617-0.186,0.988-0.186
		c0.369,0,0.699,0.061,0.987,0.186c0.288,0.123,0.539,0.291,0.753,0.506c0.305,0.312,0.505,0.678,0.6,1.092
		c0.094,0.416,0.142,0.859,0.142,1.328C108.21,71.722,108.162,72.164,108.068,72.58z M107.309,70.734
		c-0.008-0.174-0.029-0.342-0.062-0.508c-0.033-0.164-0.083-0.318-0.148-0.463c-0.065-0.143-0.152-0.273-0.259-0.389
		c-0.297-0.297-0.668-0.445-1.111-0.445c-0.438,0-0.803,0.148-1.1,0.445c-0.115,0.115-0.204,0.246-0.266,0.389
		c-0.062,0.145-0.111,0.299-0.148,0.463c-0.037,0.166-0.06,0.334-0.068,0.508c-0.008,0.172-0.012,0.346-0.012,0.518
		c0,0.174,0.004,0.346,0.012,0.52c0.009,0.172,0.031,0.342,0.068,0.506s0.086,0.32,0.148,0.469c0.062,0.148,0.15,0.277,0.266,0.383
		c0.297,0.297,0.662,0.445,1.1,0.445c0.443,0,0.814-0.148,1.111-0.445c0.106-0.105,0.193-0.234,0.259-0.383s0.115-0.305,0.148-0.469
		c0.032-0.164,0.054-0.334,0.062-0.506c0.008-0.174,0.012-0.346,0.012-0.52C107.32,71.08,107.316,70.906,107.309,70.734z"/>
	<path fill="#C8152F" d="M113.627,74.291v-0.68c-0.214,0.246-0.467,0.434-0.758,0.562c-0.291,0.127-0.609,0.191-0.954,0.191
		c-0.665,0-1.186-0.189-1.563-0.568c-0.213-0.215-0.369-0.463-0.468-0.748c-0.099-0.283-0.147-0.602-0.147-0.957v-3.877h0.889v3.742
		c0,0.543,0.131,0.949,0.395,1.217c0.262,0.268,0.623,0.4,1.082,0.4s0.826-0.137,1.101-0.408s0.412-0.674,0.412-1.209v-3.742h0.901
		v6.076H113.627z"/>
	<path fill="#C8152F" d="M121.188,71.968c-0.021,0.238-0.058,0.471-0.111,0.697s-0.128,0.439-0.222,0.637
		c-0.096,0.197-0.221,0.375-0.377,0.531c-0.165,0.164-0.375,0.295-0.631,0.389c-0.255,0.094-0.539,0.143-0.852,0.143
		c-0.338,0-0.646-0.055-0.926-0.162c-0.28-0.105-0.544-0.316-0.791-0.629v3.434h-0.889v-8.793h0.889v0.715
		c0.247-0.32,0.511-0.531,0.791-0.635c0.279-0.104,0.588-0.154,0.926-0.154c0.312,0,0.597,0.047,0.852,0.143
		c0.256,0.094,0.466,0.223,0.631,0.389c0.156,0.156,0.281,0.332,0.377,0.531c0.094,0.197,0.168,0.408,0.222,0.635
		s0.091,0.459,0.111,0.697c0.021,0.24,0.03,0.479,0.03,0.717C121.219,71.492,121.209,71.73,121.188,71.968z M120.281,70.388
		c-0.033-0.281-0.104-0.527-0.211-0.742c-0.107-0.213-0.262-0.387-0.463-0.518c-0.201-0.133-0.467-0.199-0.797-0.199
		c-0.329,0-0.595,0.066-0.797,0.199c-0.201,0.131-0.355,0.305-0.463,0.518c-0.106,0.215-0.179,0.461-0.216,0.742
		c-0.037,0.279-0.056,0.566-0.056,0.863s0.019,0.586,0.056,0.865s0.109,0.527,0.216,0.74c0.107,0.215,0.262,0.387,0.463,0.52
		c0.202,0.131,0.468,0.197,0.797,0.197c0.33,0,0.596-0.066,0.797-0.197c0.201-0.133,0.355-0.305,0.463-0.52
		c0.107-0.213,0.178-0.461,0.211-0.74c0.032-0.279,0.049-0.568,0.049-0.865S120.313,70.667,120.281,70.388z"/>
	<g>
		<g>
			<path fill="#C8152F" d="M48.255,58.917c-0.994,0-1.348-0.434-1.348-1.461l0.036-8.324c0-0.316-0.067-0.486-0.419-0.486
				c-0.092,0-0.301,0.025-0.62,0.059c-0.728,0.084-2.077,0.205-3.689,0.254l-0.071,0.002v1.041h0.074
				c0.849,0,1.414,0.232,1.414,1.219l-0.033,2.423c0,4.016-1.609,4.793-2.784,4.793c-0.962,0-1.32-0.996-1.32-1.832l0.046-7.472
				c0-0.316-0.067-0.486-0.418-0.486c-0.09,0-0.303,0.025-0.623,0.059c-0.727,0.084-1.921,0.205-3.53,0.254l-0.073,0.002v1.041
				h0.075c0.851,0,1.413,0.232,1.413,1.219l-0.045,5.041c0,3.283,1.698,3.973,3.121,3.973c2.124,0,3.342-1.385,4.005-2.125
				c0.183-0.209,0.368-0.42,0.435-0.42c0.033,0,0.133,0,0.133,0.156v2.041c0,0.303,0.205,0.348,0.325,0.348
				c0.093,0,0.298-0.025,0.608-0.07c0.75-0.102,2.008-0.205,3.289-0.205h0.076v-1.041H48.255z"/>
			<path fill="#C8152F" d="M70.233,43.004c-2.896,0-3.679,4.062-4.055,6.076h-2.335l-0.214,1.041h2.391l-0.155,1.012
				c-0.105,0.68-0.209,1.357-0.312,2.044l-0.177,1.167c-1.019,6.718-1.533,9.705-2.645,9.705c-0.124,0-0.154-0.037-0.154-0.178
				c0-0.049,0.014-0.107,0.031-0.174c0.029-0.098,0.06-0.223,0.06-0.379c0-0.461-0.341-0.785-0.829-0.785
				c-0.73,0-1.061,0.527-1.061,1.018c0,0.906,0.66,1.539,1.611,1.539c1.699,0,3.785-1.959,5.662-14.968h2.588l0.184-1.041h-2.639
				l0.219-1.705c0.326-2.336,0.749-3.33,1.417-3.33c0.269,0,0.432,0.137,0.432,0.359c0,0.148-0.02,0.224-0.042,0.301
				c-0.023,0.089-0.051,0.181-0.051,0.365c0,0.385,0.24,0.833,0.924,0.833c0.826,0,1.195-0.636,1.195-1.267
				C72.278,43.599,71.534,43.004,70.233,43.004"/>
			<path fill="#C8152F" d="M71.876,57.472c-0.746,0-1.355,0.609-1.355,1.359c0,0.746,0.609,1.357,1.355,1.357
				c0.751,0,1.361-0.611,1.361-1.357C73.237,58.082,72.627,57.472,71.876,57.472"/>
		</g>
	</g>
	<path fill="#C8152F" d="M31.233,78.23h46.244V31.988H31.233V78.23z M80.264,81.019H28.446V29.2h51.817V81.019z"/>
	<path fill="#C8152F" d="M59.727,52.848c0,1.863-0.892,5.945-3.54,5.945c-1.478,0-2-1.5-2-2.781c0-2.482,1.18-5.924,3.4-5.924
		C59.354,50.088,59.727,51.59,59.727,52.848 M58.208,48.646c-2.08,0-3.205,1.443-3.689,2.134c-0.027-1.376-0.539-2.019-1.605-2.019
		c-1.727,0-2.735,2.354-3.279,3.621l-0.027,0.061l0.814,0.461l0.036-0.069c0.037-0.077,0.084-0.188,0.146-0.318
		c0.353-0.784,1.086-2.415,1.848-2.415c0.416,0,0.479,0.512,0.479,0.819c0,0.44-0.133,1.136-0.364,2.185l-2.155,9.242
		c-0.312,1.371-0.462,1.592-1.832,1.592h-0.061l-0.186,1.043h5.785l0.24-1.043h-0.091c-1.788,0-2.085-0.02-2.085-0.705
		c0-0.145,0.081-0.488,0.144-0.766l1.022-4.332c0.557,1.158,1.234,2.098,3.299,2.098c3.551,0,5.441-3.996,5.441-6.881
		C62.087,51.01,60.888,48.646,58.208,48.646"/>
</g>
</svg>
