<?xml version="1.0" encoding="UTF-8" standalone="no"?>
<!-- Created with Inkscape (http://www.inkscape.org/) -->
<svg
   xmlns:dc="http://purl.org/dc/elements/1.1/"
   xmlns:cc="http://creativecommons.org/ns#"
   xmlns:rdf="http://www.w3.org/1999/02/22-rdf-syntax-ns#"
   xmlns:svg="http://www.w3.org/2000/svg"
   xmlns="http://www.w3.org/2000/svg"
   xmlns:sodipodi="http://sodipodi.sourceforge.net/DTD/sodipodi-0.dtd"
   xmlns:inkscape="http://www.inkscape.org/namespaces/inkscape"
   id="svg2463"
   sodipodi:version="0.32"
   inkscape:version="0.46"
   width="342.37103"
   height="342.37103"
   xml:space="preserve"
   sodipodi:docname="telecom-paristech.svg"
   inkscape:output_extension="org.inkscape.output.svg.inkscape"
   version="1.0"><metadata
     id="metadata2468"><rdf:RDF><cc:Work
         rdf:about=""><dc:format>image/svg+xml</dc:format><dc:type
           rdf:resource="http://purl.org/dc/dcmitype/StillImage" /></cc:Work></rdf:RDF></metadata><defs
     id="defs2466"><inkscape:perspective
       sodipodi:type="inkscape:persp3d"
       inkscape:vp_x="0 : 526.18109 : 1"
       inkscape:vp_y="0 : 1000 : 0"
       inkscape:vp_z="744.09448 : 526.18109 : 1"
       inkscape:persp3d-origin="372.04724 : 350.78739 : 1"
       id="perspective2470" /><clipPath
       clipPathUnits="userSpaceOnUse"
       id="clipPath2480"><path
         d="M 0,2834.65 L 0,0 L 2834.65,0 L 2834.65,2834.65 L 0,2834.65 z"
         id="path2482" /></clipPath></defs><sodipodi:namedview
     inkscape:window-height="1034"
     inkscape:window-width="1678"
     inkscape:pageshadow="2"
     inkscape:pageopacity="0.0"
     guidetolerance="10.0"
     gridtolerance="10.0"
     objecttolerance="10.0"
     borderopacity="1.0"
     bordercolor="#666666"
     pagecolor="#ffffff"
     id="base"
     showgrid="false"
     inkscape:zoom="0.91971496"
     inkscape:cx="378.66082"
     inkscape:cy="306.95653"
     inkscape:window-x="0"
     inkscape:window-y="14"
     inkscape:current-layer="g2472" /><g
     id="g2472"
     inkscape:groupmode="layer"
     inkscape:label="paris_tech_cont_quad"
     transform="matrix(1.25,0,0,-1.25,-156.57025,717.48723)"><g
       id="g2478"
       clip-path="url(#clipPath2480)"
       transform="matrix(9.6624563e-2,0,0,9.6624563e-2,125.2562,300.09297)"><path
         d="M 0,0 L 2834.65,0 L 2834.65,2834.65 L 0,2834.65 L 0,0 z"
         style="fill:#ffffff;fill-opacity:1;fill-rule:nonzero;stroke:none"
         id="path2484" /><path
         d="M 92.7227,918.781 L 2741.9227,918.781 L 2741.9227,2741.921 L 92.7227,2741.921 L 92.7227,918.781 z"
         style="fill:#231f20;fill-opacity:1;fill-rule:nonzero;stroke:none"
         id="path2486" /><path
         d="M 2739.62,95.5586 L 2738.54,795.922 L 2619.79,795.922 C 2607.43,779.43 2615.79,705.172 2578.18,690.988 C 2450.92,719.531 2566.89,734 2523.22,795.922 C 2517.76,795.621 2465.85,795.961 2460.36,795.922 C 2466.3,795.121 2488.47,770.23 2455.25,741.691 C 2410.67,448.141 2492.61,328.488 2451.17,95.7383 L 2739.62,95.5586"
         style="fill:#c81750;fill-opacity:1;fill-rule:nonzero;stroke:none"
         id="path2488" /><path
         d="M 845.094,579.039 C 892.754,601.512 893.102,651.281 895.312,683.93 C 880.879,700.121 824.375,701.129 801.734,697 C 770.367,670.738 797.602,623.859 778.871,593.379 C 791.227,567.012 824.375,585.469 845.094,579.039"
         style="fill:#c81750;fill-opacity:1;fill-rule:nonzero;stroke:none"
         id="path2490" /><path
         d="M 1117.34,231.559 L 1131.46,227.512 C 1144.4,224.898 1161.89,224.34 1175.43,230.039 C 1171.88,239.43 1167.1,248.32 1161.33,255.52 C 1145.88,248.141 1131.15,240.309 1117.34,231.559"
         style="fill:#c81750;fill-opacity:1;fill-rule:nonzero;stroke:none"
         id="path2492" /><path
         d="M 1121.06,548.422 C 1092.31,624.75 1196.16,655.852 1236.19,702.441 L 1289.92,672.488 C 1284.08,620.352 1188.87,610.73 1194.67,554.23 C 1204.62,545.809 1213.29,531.609 1226.22,528.879 C 1230.73,514.84 1218.98,506.281 1210.46,497.762 C 1168.68,480.91 1147.18,521.82 1121.06,548.422 z M 1175.43,230.039 C 1186.73,201.84 1188.07,166.988 1174.55,144.961 L 1035.52,140.109 L 1035.52,157.91 C 1059.93,190.02 1086.93,212.738 1117.34,231.559 L 1089.43,239.43 C 1049.71,266.57 1143.14,305.5 1157.63,316.121 L 1195.19,255.988 C 1194.06,242.43 1185.98,234.52 1175.43,230.039 z M 898.922,163.23 C 869.004,214.91 903.855,301.051 912.133,350.359 C 919.188,357.379 926.461,366.941 938.594,363.172 C 946.93,336.148 907.27,318.559 933.793,295.219 C 961.23,303.328 997.27,278.648 1024.79,299.789 C 1010.41,323.262 980.445,311.441 960.102,320.949 L 960.102,333.77 L 1021.42,337.48 C 1030.96,324.461 1074.34,312.191 1064.76,287.398 C 1023.93,229.77 954.109,196.148 898.922,163.23 z M 850.629,454.711 C 856.973,465.301 869.512,459.039 878.578,460.73 C 881.875,434.859 922.223,466.871 906.664,433.078 L 902.125,433.078 C 885.027,424.148 856.973,433.078 850.629,454.711 z M 930.16,439.488 C 950.957,451.578 979.871,449.68 975.074,409.68 L 941.453,409.68 C 934.984,417.738 925.27,425.75 930.16,439.488 z M 955.41,720.941 C 961.23,730.34 969.75,748.109 986.609,742.289 C 985.195,728.191 978.074,702.141 955.41,712.809 L 955.41,720.941 z M 994.922,405.641 C 1027.26,398.57 1062.22,423.18 1085.96,397.422 C 1075.29,374.949 1075.29,337.48 1038.03,358.66 C 1021.42,371.621 984.031,365.77 986.609,397.422 L 994.922,405.641 z M 998.48,699.82 C 1000.91,726.781 1033.28,716.211 1051.27,724.512 L 1054.93,712.809 C 1038.03,699.82 1026.03,671.539 998.48,682.219 L 998.48,699.82 z M 1094.5,495.012 C 1074.01,480.91 1039.42,485.738 1016.44,490.449 C 1022.41,499.691 1023.8,510.5 1024.79,520.93 C 1039.42,532.762 1054.93,558.559 1081.33,550.391 C 1092.08,535.211 1096.9,516.219 1094.5,495.012 z M 1093.91,708.82 L 1088.09,635.289 C 1085.18,623.73 1076.37,600.789 1055.69,609.449 C 1030.65,603.539 1043.78,634.02 1040.93,645.281 C 1063.02,664.07 1069.01,704.578 1093.91,708.82 z M 860.453,490.449 L 842.543,490.449 C 817.336,499.691 762.055,512.66 759.785,541.988 C 794.641,532.762 825.707,515.172 860.453,503.328 L 860.453,490.449 z M 1293.63,413.961 C 1260.09,412.781 1231.19,364.391 1202.44,384.48 C 1219.29,431.602 1256.37,470.27 1272.06,516.219 C 1299.64,578.77 1344.62,715.172 1325.41,796.391 L 1196.66,796.391 C 1154.73,784.551 1185.77,676.191 1142.4,669.051 C 1130.5,698.68 1134.01,734 1099.95,795.621 L 1030.4,795.621 C 1035.69,749.18 1028.55,746.941 1024.79,742.289 C 1000.91,741.02 1003.29,778.621 973.254,758.648 C 946.93,763.398 939.809,720.941 912.133,729.16 C 902.711,751.648 876.188,780.879 847.301,763.398 C 872.461,709.109 998.48,686.789 938.594,597.512 C 926.461,571.578 936.133,534.02 903.855,520.93 C 847.301,536.262 794.641,557.449 738.215,571.578 C 744.254,550.391 728.609,520.93 734.535,499.691 C 794.641,491.621 812.641,429.172 864.062,410.352 C 874.996,402.102 879.75,392.77 877.477,379.738 C 841.328,364.391 802.926,396.238 769.418,410.352 C 760.973,406.922 765.586,398.57 764.527,392.77 C 795.68,356.148 896.48,371.621 864.062,295.219 C 836.48,232.711 842.543,129.191 747.828,120.789 C 739.277,102.039 762.055,103.441 769.418,95.0703 C 850.828,86.8203 934.984,164.602 1003.29,99.7891 C 1026.03,99.7891 1054.93,114.102 1072.95,95.5586 L 1277.53,95.5586 C 1316.08,170.051 1286.29,217.711 1289.92,286.02 C 1294.45,303.328 1242.07,320.949 1202.44,311.441 C 1195.34,316.219 1199.99,325.672 1198.95,333.77 C 1225.26,364.391 1330.84,318.559 1306.85,392.77 C 1306.85,398.57 1306.85,412.781 1293.63,413.961"
         style="fill:#c81750;fill-opacity:1;fill-rule:nonzero;stroke:none"
         id="path2494" /><path
         d="M 293.863,720.41 C 165.586,728.648 96.8164,715.488 95.082,715.98 L 95.082,614.328 L 119.047,614.328 C 147.934,605.691 167.578,605.102 196.594,605.102 C 304.18,594.129 394.785,609.91 501.57,615.73 C 489.504,619.309 477.324,622.238 466.309,621.52 C 448.184,635.211 436.758,644.09 441.039,665.781 C 469.34,695.961 521.195,671.02 554.402,689 C 583.75,677.719 564.164,645.738 571.133,625.93 C 568.238,620.352 565.012,620.828 561.598,617.75 C 594.281,617.98 629.117,616.941 666.672,613.5 L 666.672,718.801 C 507.898,728.988 395.875,714.219 293.863,720.41"
         style="fill:#c81750;fill-opacity:1;fill-rule:nonzero;stroke:none"
         id="path2496" /><path
         d="M 1486.66,509.02 C 1463.57,503.09 1434.14,498.441 1413.13,512.309 C 1423.72,536.031 1449.3,521.898 1467.06,525.52 C 1473.21,517.199 1485.91,526.648 1486.66,509.02 z M 1562.84,258.77 L 1562.84,227.77 C 1521.61,213.512 1483.38,168.559 1438.32,188.359 L 1438.32,216.48 C 1456.36,224.898 1477.27,199.539 1492.46,239.02 C 1517.16,236.07 1537.4,272.551 1562.84,258.77 z M 1527.7,681.59 L 1508.23,659.801 C 1500.62,659.801 1486.93,683.09 1484.73,692.469 C 1490.81,699.512 1524.6,689.809 1527.7,681.59 z M 1529.37,631.199 C 1538.96,624.141 1559.27,623.582 1548.76,597.129 C 1536.76,586.379 1527.77,614.328 1516.51,617.75 L 1529.37,631.199 z M 1552.4,344.969 L 1552.4,309.012 C 1540.85,310.922 1525.53,303.039 1516.85,315 C 1519.2,342.789 1540.85,340.871 1552.4,344.969 z M 1565.42,438.891 L 1498.58,438.891 L 1498.58,463.512 L 1565.42,463.512 L 1565.42,438.891 z M 1603,136.449 C 1587.18,99.4805 1557.95,126.379 1537.75,136.449 C 1521.08,143.199 1507.71,94.3789 1492.05,129.719 C 1491.29,138.199 1495.82,141.559 1497.33,148.281 C 1534.02,173.539 1572.18,153.219 1603,136.449 z M 1402.75,283.051 L 1402.75,295.891 L 1448.54,295.891 L 1448.54,283.051 L 1402.75,283.051 z M 1481.04,584.73 C 1466.72,573.551 1446.76,568.379 1430.26,566.488 L 1420.28,599.602 C 1439.24,601.238 1473.85,610.621 1481.04,584.73 z M 1424.45,636.121 L 1459.63,636.121 L 1459.63,623.32 L 1424.45,623.32 L 1424.45,636.121 z M 1640.75,609.109 L 1640.75,569.441 C 1622.3,571.578 1600.02,563.371 1583.96,575.801 C 1591.94,604.602 1622.3,602.801 1640.75,609.109 z M 1497.33,756.02 C 1548.97,743.191 1603.25,737.031 1658.12,734.781 L 1658.12,795.961 L 1428.45,795.961 C 1428.17,747.52 1391.42,679.672 1391.42,679.672 C 1411.57,679.859 1431.18,678.488 1448.95,670.039 L 1448.95,657.199 C 1430.19,661.828 1410.98,664.238 1391.42,665.371 L 1391.42,466.672 L 1416.77,466.672 C 1418.25,461.969 1422.76,459.461 1421.77,453.719 L 1416.77,444.23 L 1391.42,444.23 L 1391.42,420.039 C 1399.94,419.578 1409.07,417.262 1416.77,419.469 C 1417.21,418.379 1417.64,417.262 1418.42,416.27 C 1430.36,414.059 1438.79,398.238 1453.63,406.551 L 1453.63,393.762 L 1426.92,393.762 C 1421.77,393.762 1415.3,395.219 1411.28,399.988 C 1405.02,397.5 1398.25,396.449 1391.42,397.422 L 1391.42,379.148 C 1411.57,386.621 1437.92,378.121 1457.28,377.199 C 1459.5,372.391 1464,369.988 1462.51,364.109 L 1457.28,354.809 C 1437.16,362.109 1412.35,358.238 1391.42,360.371 L 1391.42,206.621 C 1398.65,205.27 1405.89,203.199 1411.57,201.84 C 1413.7,196 1419.76,192.48 1419.76,185.5 C 1411.97,180.789 1401.71,179.672 1391.42,181.68 L 1391.42,95.7383 L 1658.12,95.7383 L 1658.12,181.68 C 1647.89,179.672 1622.56,178.52 1614.74,183.121 C 1614.74,190.25 1641.33,244.16 1648.65,245.52 L 1658.12,360.371 C 1637.14,358.238 1612.55,362.109 1592.37,354.809 L 1587.18,364.109 C 1585.78,369.988 1590.27,372.391 1592.37,377.199 C 1611.89,378.121 1638.23,386.621 1658.12,379.148 L 1658.12,397.422 C 1647.14,396.07 1635.55,398.969 1627.7,406.551 C 1626.9,412.559 1631.42,414.871 1632.99,419.469 C 1640.63,417.262 1649.69,419.578 1658.12,420.039 L 1658.12,444.23 L 1632.99,444.23 L 1627.7,453.719 C 1626.9,459.461 1631.42,461.969 1632.99,466.672 L 1658.12,466.672 L 1658.12,665.371 C 1638.75,664.238 1619.25,661.828 1600.68,657.199 L 1600.68,670.039 C 1618.47,678.488 1638.23,679.859 1658.12,679.672 L 1658.12,718.801 C 1610.68,721.422 1563.6,726.379 1518.98,730.121 C 1507.71,736.121 1491.29,734.781 1483.64,746.629 C 1486.66,754.801 1492.05,756.02 1497.33,756.02"
         style="fill:#c81750;fill-opacity:1;fill-rule:nonzero;stroke:none"
         id="path2498" /><path
         d="M 315.219,752.781 C 428.516,752.781 553.004,763.078 667.887,754.23 L 667.887,797.391 L 93.9336,797.391 C 93.332,779.469 93.9336,751.398 93.9336,751.398 C 165.758,763.25 255.035,752.781 315.219,752.781"
         style="fill:#c81750;fill-opacity:1;fill-rule:nonzero;stroke:none"
         id="path2500" /><path
         d="M 227.125,544.43 C 194.973,544.43 160.051,575.801 127.836,586.211 L 111.762,586.211 L 95.625,582.672 L 94.9062,95.7383 L 668.617,95.7383 L 668.617,588.281 C 518.91,605.531 388.363,533.039 227.125,544.43"
         style="fill:#c81750;fill-opacity:1;fill-rule:nonzero;stroke:none"
         id="path2502" /><path
         d="M 2305.23,474.879 C 2292.15,476.09 2262.61,478.941 2260.13,497.762 C 2257.1,518.262 2255.94,546.77 2301.46,538.43 C 2335.31,529.68 2348.84,482.859 2305.23,474.879 z M 2224.04,219.16 C 2209.77,203.109 2213.79,131.129 2179.23,168.449 C 2142.37,265.371 2192.26,332.102 2200.6,418.23 C 2222.09,441.719 2245.81,450.391 2259.3,444.422 C 2262.61,443.711 2280.64,400.531 2283.65,399.91 C 2287.73,340.621 2251.8,337.691 2286.46,239.43 C 2277.09,223.359 2234.92,231.559 2224.04,219.16 z M 2138.34,533.172 C 2145.54,542.699 2170.8,556.07 2184.19,553.77 C 2198.52,547.898 2208.13,520.73 2202.2,501.891 C 2200.92,486.629 2184.19,490.219 2172.13,490.219 C 2155.28,496.102 2133.49,513.219 2138.34,533.172 z M 2089.72,570.09 C 2084.74,550.039 2059.78,526.648 2028.6,532.57 C 2012.93,544.43 2018.16,566.891 2014.54,583.309 C 2018.16,595.07 2052.71,604.441 2067.22,600.852 C 2073.18,592.66 2094.38,581.852 2089.72,570.09 z M 2019.34,669.051 C 2026.46,640.711 1987.57,635.672 1972.92,634.109 C 1956.65,642.77 1936,674.449 1946.85,701 C 1957.75,711.809 1966.77,725.852 1986.71,720.41 C 1997.35,702.871 2028.29,693.969 2019.34,669.051 z M 1939.36,196.738 L 1939.36,240.441 L 1906.29,271.68 L 1892.37,318.559 C 1876.16,390.191 1894.72,473.352 1907.63,500.34 C 1907.05,499.852 1906.93,499.691 1906.39,499.469 C 1894.35,503.09 1875.17,492.441 1867.91,507.602 C 1878.79,525.379 1863.26,552.512 1881.22,567.629 C 1894.35,570.09 1926.96,569.441 1935.35,560.059 C 1934.48,545.449 1933.89,524.68 1920.63,510.051 C 1934.4,512.91 1949.52,510.5 1960.28,499.691 C 1956.83,362.629 1970.06,269.961 1981.24,144.25 L 1939.36,196.738 z M 1809.31,649.328 C 1786.23,669.051 1771.99,691.781 1777.74,722.789 C 1792.22,756.73 1840.96,745.422 1861.15,731.219 C 1876.63,708.57 1904.4,681.691 1861.81,669.809 C 1866.04,615.109 1826.3,623.73 1809.31,649.328 z M 2385.07,423.18 C 2351.54,504.5 2428.01,775.16 2304.4,797.391 C 2290.89,799.34 2279.49,793.648 2268.79,784.738 C 2290.37,769.328 2306.71,746.328 2310.35,720.172 C 2281.49,656.621 2221.62,734.301 2180.79,713.051 L 2180.79,661.34 C 2163.89,647.281 2151.88,628.41 2128.05,635.512 C 2113.54,652 2094.33,663.68 2101.46,687.078 C 2116.11,717.711 2149.53,705.949 2171.15,720.172 C 2170.61,720.941 2170.21,721.648 2169.82,722.391 C 2128.79,732.398 2134.18,796.391 2064.81,796.391 L 1932.37,796.391 C 1870.86,777.441 1795.17,742.289 1724.3,795.961 L 1737.68,708.629 L 1746.45,678.801 L 1746.21,652.719 L 1777.43,625.551 L 1744.95,597.801 L 1756,530.621 C 1780.49,523.328 1806.87,522.141 1808.05,499.691 C 1803.56,463.031 1776.06,420.988 1775.05,383.078 C 1773.42,336.148 1799.49,142.512 1798.75,95.7383 C 1824.06,98.0508 1945.19,102.949 1969.95,115.551 C 1970.06,114.609 2003.67,96.7383 2003.67,95.7383 C 2046.69,91.5781 2102.94,80.8984 2088.92,155.539 L 2057.8,353.98 C 2020.85,455.59 2088.92,480.91 2111.67,482.078 L 2129.58,465.762 C 2123.28,445.602 2119.96,426.23 2118.21,407.48 C 2122.72,399.91 2126.42,391.871 2123.99,379.148 C 2125.49,367.199 2122.31,360.16 2117.82,355.32 C 2124.97,263.211 2169,183.031 2169.82,95.0703 L 2285.82,95.7383 L 2328.03,128.609 L 2319.19,210.301 L 2324.08,287.352 L 2321.45,430.781 C 2339.26,426.66 2356.81,421.66 2376.75,413.961 L 2385.07,423.18"
         style="fill:#c81750;fill-opacity:1;fill-rule:nonzero;stroke:none"
         id="path2504" /><path
         d="M 719.281,1393.21 C 733.574,1393.21 770.73,1389.87 796.441,1394.16 C 876.98,1407.58 918.512,1433.75 918.512,1491.26 C 918.512,1548.77 882.094,1569.24 771.293,1569.24 L 669.332,1569.24 L 669.332,1244 C 677.27,1244.47 685.797,1245.19 694.301,1245.19 C 702.25,1245.19 710.199,1244.47 719.281,1244 L 719.281,1393.21 z M 719.281,1550.68 C 736.43,1551.62 777.012,1552.11 801.586,1550.2 C 846.738,1546.87 866.176,1521.2 866.176,1488.88 C 866.176,1446.58 833.023,1416.63 775.867,1411.88 C 756.438,1410.46 733.574,1410.46 719.281,1411.88 L 719.281,1550.68"
         style="fill:#b0afaf;fill-opacity:1;fill-rule:nonzero;stroke:none"
         id="path2506" /><path
         d="M 1076.44,1383.51 L 1067.22,1379.92 C 1046.31,1371.73 1046.92,1372.75 1008.82,1364.55 C 963.945,1354.81 917.836,1349.19 915.383,1297.95 C 914.148,1265.68 947.953,1241.09 986.074,1239.04 C 1023.57,1237 1061.07,1253.39 1073.36,1284.63 L 1073.36,1245.19 L 1148.37,1245.19 L 1148.37,1253.89 L 1122.55,1253.89 L 1122.55,1396.83 C 1122.55,1434.74 1115.79,1470.08 1034.64,1473.67 C 1012.5,1474.69 1006.97,1472.65 990.984,1470.59 C 972.539,1468.04 955.336,1462.4 943.043,1457.79 L 943.043,1389.14 L 954.105,1389.14 L 967.633,1417.82 C 979.312,1442.42 989.766,1469.06 1029.72,1465.48 C 1069.68,1461.89 1076.44,1439.86 1076.44,1416.3 L 1076.44,1383.51 z M 1076.44,1351.23 C 1076.44,1337.91 1077.05,1329.72 1075.21,1316.39 C 1070.91,1286.69 1047.54,1253.89 1008.82,1251.84 C 976.234,1249.8 960.859,1275.41 963.324,1298.99 C 968.852,1351.74 989.148,1345.08 1051.85,1364.55 L 1076.44,1372.23 L 1076.44,1351.23"
         style="fill:#b0afaf;fill-opacity:1;fill-rule:nonzero;stroke:none"
         id="path2508" /><path
         d="M 1288.78,1245.19 L 1177.51,1245.19 L 1177.51,1253.89 L 1205.18,1253.89 L 1205.18,1458.81 L 1176.28,1458.81 L 1176.28,1468.04 L 1248.21,1468.04 L 1248.21,1421.41 C 1251.29,1438.33 1277.1,1469.57 1317.68,1469.57 C 1329.35,1469.57 1339.82,1467.01 1351.48,1461.89 L 1351.48,1380.94 L 1339.82,1380.94 L 1325.05,1418.34 C 1314.6,1444.47 1306.62,1461.38 1290.63,1453.69 C 1248.83,1433.71 1252.51,1385.55 1252.51,1340.48 L 1252.51,1253.89 L 1288.78,1253.89 L 1288.78,1245.19"
         style="fill:#b0afaf;fill-opacity:1;fill-rule:nonzero;stroke:none"
         id="path2510" /><path
         d="M 1459.94,1519.78 C 1459.94,1505.43 1445.8,1495.19 1429.82,1495.19 C 1414.45,1495.19 1400.31,1506.46 1400.31,1519.26 C 1400.31,1532.07 1413.84,1544.37 1429.21,1544.37 C 1445.8,1544.37 1459.94,1533.09 1459.94,1519.78 z M 1382.49,1245.19 L 1382.49,1253.89 L 1410.76,1253.89 L 1410.76,1458.81 L 1384.32,1458.81 L 1384.32,1468.04 L 1458.7,1468.04 L 1458.7,1253.89 L 1483.92,1253.89 L 1483.92,1245.19 L 1382.49,1245.19"
         style="fill:#b0afaf;fill-opacity:1;fill-rule:nonzero;stroke:none"
         id="path2512" /><path
         d="M 1667.36,1415.78 C 1655.68,1450.62 1644.01,1464.45 1612.04,1464.45 C 1584.38,1464.45 1549.34,1455.23 1546.88,1427.04 C 1545.03,1401.95 1576.39,1391.7 1604.66,1384.02 C 1652.61,1370.18 1708.55,1355.84 1706.72,1311.27 C 1705.48,1268.75 1663.07,1237.5 1605.28,1238.53 C 1572.09,1239.04 1534.58,1249.8 1521.68,1257.48 L 1521.68,1330.74 L 1532.74,1330.74 L 1545.64,1293.86 C 1559.79,1252.36 1575.77,1251.84 1600.98,1249.8 C 1636.01,1246.72 1675.98,1261.06 1679.05,1289.76 C 1683.35,1325.09 1626.8,1334.32 1591.14,1345.08 C 1565.94,1352.77 1516.75,1366.59 1516.75,1408.61 C 1516.75,1457.79 1580.68,1474.18 1614.5,1474.18 C 1642.77,1474.18 1675.36,1464.96 1687.04,1458.81 L 1687.04,1391.7 L 1675.36,1391.7 L 1667.36,1415.78"
         style="fill:#b0afaf;fill-opacity:1;fill-rule:nonzero;stroke:none"
         id="path2514" /><path
         d="M 1965.61,1573.73 L 1666.08,1573.73 L 1667.97,1562.37 L 1668.94,1555.17 L 1667.89,1547.34 L 1665.96,1535.84 L 1671.7,1536.55 C 1699.89,1539.03 1734.97,1542.08 1791.9,1542.23 C 1791.9,1533.57 1791.9,1238.48 1791.9,1238.48 L 1821.31,1239.33 L 1850.63,1238.48 L 1850.73,1243.05 C 1850.73,1243.05 1850.73,1533.35 1850.73,1542.16 C 1890.19,1542.02 1928.7,1540.21 1965.17,1536.56 L 1970.71,1536.02 L 1969.62,1544.58 L 1968.69,1555.17 L 1969.49,1564.54 L 1970.63,1573.78 L 1965.61,1573.73"
         style="fill:#ffffff;fill-opacity:1;fill-rule:nonzero;stroke:none"
         id="path2516" /><path
         d="M 1985.63,1415.53 C 1989.47,1437.41 2006.77,1460.07 2032.45,1461.04 C 2043.01,1461.54 2051.76,1458.6 2058.52,1452.33 C 2067.53,1443.93 2072.94,1429.44 2073.36,1412.6 C 2073.36,1412.59 2073.66,1400.04 2073.85,1393.07 L 1981.65,1393.07 C 1982.87,1399.93 1985.63,1415.53 1985.63,1415.53 z M 2114.95,1332.62 L 2113.96,1322.48 C 2110.97,1292.71 2086.79,1251.85 2042.36,1254.23 C 1999.78,1256.24 1980.78,1286.63 1980.78,1352.77 C 1980.78,1352.77 1980.78,1368.34 1980.78,1374.46 C 1989.15,1374.46 2133.99,1374.46 2133.99,1374.46 L 2134.45,1378.38 C 2134.81,1381.51 2135,1384.66 2135,1387.8 C 2135,1409.01 2126.75,1430.13 2111.65,1446.95 C 2092.53,1468.28 2065.2,1479.89 2034.72,1479.64 C 1972.45,1478.63 1924.36,1427.97 1920.28,1359.18 C 1918.42,1324.9 1929.82,1293.11 1952.39,1269.65 C 1974.63,1246.54 2005.21,1234.09 2038.51,1234.61 C 2089.04,1235.59 2130.29,1272.57 2134.46,1320.62 C 2134.46,1320.64 2135.47,1332.62 2135.47,1332.62 L 2114.95,1332.62"
         style="fill:#ffffff;fill-opacity:1;fill-rule:nonzero;stroke:none"
         id="path2518" /><path
         d="M 2279.56,1481.18 C 2200.07,1478.35 2157.21,1415.81 2157.21,1358.4 C 2157.21,1298.47 2199.55,1236.15 2270.41,1235.63 C 2308.1,1235.18 2355.25,1248.8 2365.82,1316.22 L 2368.51,1332.62 L 2348.53,1332.62 L 2344.79,1312.59 C 2339.61,1286.32 2320.43,1255.77 2283.43,1256.28 C 2226.41,1256.74 2220.25,1307.72 2218.96,1355.45 C 2218.17,1385.93 2221.74,1426.79 2243.06,1448.28 C 2253.08,1458.39 2266.41,1463.36 2282.67,1463.08 C 2307.88,1462.63 2322.91,1445.27 2336.29,1401.17 C 2336.33,1401.05 2343.49,1379.58 2343.49,1379.58 L 2362.79,1379.58 L 2362.79,1464.65 L 2360.31,1465.87 C 2332.24,1479.6 2300.9,1481.77 2279.56,1481.18"
         style="fill:#ffffff;fill-opacity:1;fill-rule:nonzero;stroke:none"
         id="path2520" /><path
         d="M 2386.15,1551.88 L 2386.15,1533.78 C 2386.15,1533.78 2407.56,1533.78 2413.81,1533.78 C 2413.81,1525.32 2413.81,1266.78 2413.81,1258.32 C 2407.73,1258.32 2387.99,1258.32 2387.99,1258.32 L 2387.99,1240.75 L 2504.44,1240.75 L 2504.44,1258.32 C 2504.44,1258.32 2476.17,1258.32 2469.4,1258.32 C 2469.4,1266.41 2469.4,1351.23 2469.4,1351.23 C 2469.4,1419.21 2487.11,1452.78 2523.51,1453.86 C 2533.2,1454.15 2540.2,1452.07 2544.87,1447.53 C 2553.75,1438.9 2553.97,1421.98 2553.97,1403.88 C 2553.97,1403.38 2553.97,1266.67 2553.97,1258.32 C 2547.36,1258.32 2521.41,1258.32 2521.41,1258.32 L 2521.41,1240.75 L 2635.39,1240.75 L 2635.39,1258.32 C 2635.39,1258.32 2614.54,1258.32 2608.34,1258.32 C 2608.34,1266.68 2608.34,1403.48 2608.34,1403.48 C 2608.34,1452.65 2589.07,1472.32 2537.23,1476.05 C 2509.11,1478.21 2483.13,1462.83 2469.4,1446.49 C 2469.4,1469.61 2469.4,1551.88 2469.4,1551.88 L 2386.15,1551.88"
         style="fill:#ffffff;fill-opacity:1;fill-rule:nonzero;stroke:none"
         id="path2522" /><path
         d="M 487.543,1965.07 L 383.547,1965.07 L 383.547,1668.01 C 383.547,1654.62 372.512,1644.37 359.906,1644.37 L 348.863,1644.37 C 335.484,1644.37 325.234,1654.62 325.234,1668.01 L 325.234,1965.07 L 222.012,1965.07 C 208.613,1965.07 197.59,1973.73 197.59,1987.12 L 197.59,1995.79 C 197.59,2009.19 208.613,2017.85 221.215,2017.85 L 486.762,2017.85 C 500.156,2017.85 511.191,2009.19 511.191,1995.79 L 511.191,1987.12 C 511.191,1973.73 500.156,1965.07 487.543,1965.07"
         style="fill:#ffffff;fill-opacity:1;fill-rule:nonzero;stroke:none"
         id="path2524" /><path
         d="M 823.992,1644.37 L 581.305,1644.37 C 568.711,1644.37 559.242,1653.83 559.242,1666.44 L 559.242,1995.79 C 559.242,2009.19 569.492,2017.85 582.09,2017.85 L 812.961,2017.85 C 826.355,2017.85 836.598,2009.19 836.598,1995.79 L 836.598,1987.12 C 836.598,1973.73 826.355,1965.07 812.961,1965.07 L 617.555,1965.07 L 617.555,1856.33 L 797.207,1856.33 C 810.598,1856.33 820.844,1847.66 820.844,1834.27 L 820.844,1825.6 C 820.844,1812.21 810.598,1803.54 797.207,1803.54 L 617.555,1803.54 L 617.555,1697.16 L 823.992,1697.16 C 837.395,1697.16 847.621,1688.5 847.621,1675.11 L 847.621,1666.44 C 847.621,1653.04 837.395,1644.37 823.992,1644.37"
         style="fill:#ffffff;fill-opacity:1;fill-rule:nonzero;stroke:none"
         id="path2526" /><path
         d="M 1152.55,1644.37 L 907.504,1644.37 L 907.504,1994.21 C 907.504,2007.61 917.754,2017.85 931.133,2017.85 L 942.18,2017.85 C 954.781,2017.85 965.816,2007.61 965.816,1994.21 L 965.816,1697.16 L 1152.55,1697.16 C 1165.95,1697.16 1176.19,1688.5 1176.19,1675.11 L 1176.19,1666.44 C 1176.19,1653.04 1165.95,1644.37 1152.55,1644.37"
         style="fill:#ffffff;fill-opacity:1;fill-rule:nonzero;stroke:none"
         id="path2528" /><path
         d="M 1479.54,1644.37 L 1236.84,1644.37 C 1224.25,1644.37 1214.79,1653.83 1214.79,1666.44 L 1214.79,1995.79 C 1214.79,2009.19 1225.03,2017.85 1237.64,2017.85 L 1468.51,2017.85 C 1481.89,2017.85 1492.16,2009.19 1492.16,1995.79 L 1492.16,1987.12 C 1492.16,1973.73 1481.89,1965.07 1468.51,1965.07 L 1273.11,1965.07 L 1273.11,1856.33 L 1452.75,1856.33 C 1466.14,1856.33 1476.39,1847.66 1476.39,1834.27 L 1476.39,1825.6 C 1476.39,1812.21 1466.14,1803.54 1452.75,1803.54 L 1273.11,1803.54 L 1273.11,1697.16 L 1479.54,1697.16 C 1492.94,1697.16 1503.17,1688.5 1503.17,1675.11 L 1503.17,1666.44 C 1503.17,1653.04 1492.94,1644.37 1479.54,1644.37"
         style="fill:#ffffff;fill-opacity:1;fill-rule:nonzero;stroke:none"
         id="path2530" /><path
         d="M 1804.15,1644.37 L 1649.72,1644.37 C 1600.87,1644.37 1563.05,1686.13 1563.05,1734.2 L 1563.05,1930.4 C 1563.05,1978.46 1604.02,2017.85 1652.88,2017.85 L 1794.71,2017.85 C 1808.1,2017.85 1818.34,2009.19 1818.34,1995.79 L 1818.34,1987.12 C 1818.34,1973.73 1808.1,1965.07 1794.71,1965.07 L 1673.36,1965.07 C 1635.54,1965.07 1621.36,1943 1621.36,1913.85 L 1621.36,1746.02 C 1621.36,1708.99 1644.99,1697.16 1674.14,1697.16 L 1804.15,1697.16 C 1817.55,1697.16 1827.8,1688.5 1827.8,1675.11 L 1827.8,1666.44 C 1827.8,1653.04 1817.55,1644.37 1804.15,1644.37"
         style="fill:#ffffff;fill-opacity:1;fill-rule:nonzero;stroke:none"
         id="path2532" /><path
         d="M 2128.77,1921.73 C 2128.77,1945.37 2109.07,1965.07 2085.43,1965.07 L 1985.37,1965.07 C 1960.94,1965.07 1942.03,1945.37 1942.03,1921.73 L 1942.03,1740.5 C 1942.03,1716.08 1960.94,1697.16 1984.58,1697.16 L 2085.43,1697.16 C 2109.07,1697.16 2128.77,1716.08 2128.77,1740.5 L 2128.77,1921.73 z M 2099.62,1644.37 L 1971.18,1644.37 C 1922.33,1644.37 1883.73,1684.56 1883.73,1732.62 L 1883.73,1931.18 C 1883.73,1979.25 1925.48,2017.85 1974.34,2017.85 L 2096.46,2017.85 C 2145.32,2017.85 2187.08,1979.25 2187.08,1931.18 L 2187.08,1732.62 C 2187.08,1684.56 2147.69,1644.37 2099.62,1644.37"
         style="fill:#ffffff;fill-opacity:1;fill-rule:nonzero;stroke:none"
         id="path2534" /><path
         d="M 2584.2,1644.37 L 2573.16,1644.37 C 2560.56,1644.37 2549.53,1654.62 2549.53,1668.01 L 2549.53,1917 L 2470.73,1806.69 C 2463.65,1797.23 2457.34,1789.36 2445.53,1789.36 L 2437.64,1789.36 C 2425.82,1789.36 2419.52,1797.23 2412.43,1806.69 L 2333.64,1917 L 2333.64,1668.01 C 2333.64,1654.62 2322.61,1644.37 2309.99,1644.37 L 2298.96,1644.37 C 2285.57,1644.37 2275.33,1654.62 2275.33,1668.01 L 2275.33,1995.79 C 2275.33,2008.4 2284,2017.85 2297.39,2017.85 L 2311.57,2017.85 C 2321.82,2017.85 2330.48,2008.4 2336,2000.52 L 2441.58,1851.6 L 2547.96,2000.52 C 2553.48,2008.4 2561.35,2017.85 2571.59,2017.85 L 2585.77,2017.85 C 2599.17,2017.85 2607.83,2008.4 2607.83,1995.79 L 2607.83,1668.01 C 2607.83,1654.62 2597.6,1644.37 2584.2,1644.37"
         style="fill:#ffffff;fill-opacity:1;fill-rule:nonzero;stroke:none"
         id="path2536" /></g></g></svg>