<?xml version="1.0" encoding="UTF-8" standalone="no"?>
<!-- Created with Inkscape (http://www.inkscape.org/) -->

<svg
   xmlns:dc="http://purl.org/dc/elements/1.1/"
   xmlns:cc="http://creativecommons.org/ns#"
   xmlns:rdf="http://www.w3.org/1999/02/22-rdf-syntax-ns#"
   xmlns:svg="http://www.w3.org/2000/svg"
   xmlns="http://www.w3.org/2000/svg"
   xmlns:sodipodi="http://sodipodi.sourceforge.net/DTD/sodipodi-0.dtd"
   xmlns:inkscape="http://www.inkscape.org/namespaces/inkscape"
   version="1.1"
   id="svg2"
   xml:space="preserve"
   width="218.80547"
   height="344.47424"
   viewBox="0 0 218.80546 344.47424"
   sodipodi:docname="telecom-paris.svg"
   inkscape:version="0.92.4 5da689c313, 2019-01-14"><metadata
     id="metadata8"><rdf:RDF><cc:Work
         rdf:about=""><dc:format>image/svg+xml</dc:format><dc:type
           rdf:resource="http://purl.org/dc/dcmitype/StillImage" /><dc:title></dc:title></cc:Work></rdf:RDF></metadata><defs
     id="defs6" /><sodipodi:namedview
     pagecolor="#ffffff"
     bordercolor="#666666"
     borderopacity="1"
     objecttolerance="10"
     gridtolerance="10"
     guidetolerance="10"
     inkscape:pageopacity="0"
     inkscape:pageshadow="2"
     inkscape:window-width="1916"
     inkscape:window-height="1057"
     id="namedview4"
     showgrid="false"
     inkscape:zoom="0.59468312"
     inkscape:cx="336.46853"
     inkscape:cy="417.98191"
     inkscape:window-x="1920"
     inkscape:window-y="0"
     inkscape:window-maximized="0"
     inkscape:current-layer="g10" /><g
     id="g10"
     inkscape:groupmode="layer"
     inkscape:label="ipp_endos_telecomparis_pantc"
     transform="matrix(1.3333333,0,0,-1.3333333,-360.88867,611.72526)"><g
       id="g2138"
       transform="translate(16.395287,-490.59742)"><g
         transform="translate(277.25882,715.29448)"
         id="g22"><path
           inkscape:connector-curvature="0"
           id="path24"
           style="fill:#231f20;fill-opacity:1;fill-rule:nonzero;stroke:none"
           d="m 0,0 c -6.656,4.58 -10.243,7.025 -13.608,9.524 -1.62,-2.674 -2.552,-5.811 -2.552,-9.167 0,-6.086 3.068,-11.453 7.741,-14.644 C -6.473,-10.45 -3.856,-6.177 0,0" /></g><g
         transform="translate(294.68902,711.75928)"
         id="g26"><path
           inkscape:connector-curvature="0"
           id="path28"
           style="fill:#231f20;fill-opacity:1;fill-rule:nonzero;stroke:none"
           d="m 0,0 c -2.741,-2.909 -7.131,-3.336 -10.274,-1.354 -0.606,0.381 -4.936,3.367 -4.936,3.367 -4.784,-6.756 -7.241,-10.151 -9.881,-13.257 2.687,-1.641 5.845,-2.587 9.224,-2.587 9.503,0 17.258,7.478 17.702,16.871 C 1.45,1.91 0.819,0.861 0,0" /></g><g
         transform="translate(291.41362,721.74268)"
         id="g30"><path
           inkscape:connector-curvature="0"
           id="path32"
           style="fill:#231f20;fill-opacity:1;fill-rule:nonzero;stroke:none"
           d="m 0,0 c -0.59,0.388 -4.389,2.916 -4.389,2.916 -3.112,-4.589 -3.601,-5.263 -5.98,-8.669 0,0 4.136,-2.678 4.732,-3.045 2.14,-1.319 4.98,-0.926 6.646,0.93 0.642,0.713 1.098,1.597 1.272,2.53 C 2.613,-3.614 2.063,-1.357 0,0" /></g><g
         transform="translate(278.65432,717.52888)"
         id="g34"><path
           inkscape:connector-curvature="0"
           id="path36"
           style="fill:#231f20;fill-opacity:1;fill-rule:nonzero;stroke:none"
           d="m 0,0 c 2.249,3.582 4.278,6.774 7.472,11.598 0,0 6.698,-4.418 7.295,-4.843 C 15.472,6.253 15.982,5.75 16.39,5.264 13.643,11.495 7.415,15.847 0.168,15.847 -5.608,15.847 -10.737,13.082 -13.973,8.806 -10.405,6.69 -6.142,3.949 0,0" /></g><g
         transform="translate(262.06402,728.41458)"
         id="g38"><path
           inkscape:connector-curvature="0"
           id="path40"
           style="fill:#231f20;fill-opacity:1;fill-rule:nonzero;stroke:none"
           d="M 0,0 C 0.004,1.234 -0.993,2.238 -2.227,2.242 -3.461,2.247 -4.466,1.25 -4.47,0.016 -4.474,-1.219 -3.477,-2.224 -2.243,-2.228 -1.008,-2.231 -0.004,-1.234 0,0" /></g><g
         transform="translate(265.63872,734.26328)"
         id="g42"><path
           inkscape:connector-curvature="0"
           id="path44"
           style="fill:#231f20;fill-opacity:1;fill-rule:nonzero;stroke:none"
           d="M 0,0 C 0.355,0.254 0.435,0.61 0.236,0.89 L 0.23,0.896 C 0.006,1.21 -0.336,1.213 -0.687,0.962 l -0.545,-0.39 0.687,-0.962 z m -2.007,0.664 1.053,0.753 c 0.621,0.444 1.268,0.37 1.653,-0.168 L 0.705,1.241 C 1.133,0.643 0.875,-0.014 0.288,-0.434 l -0.531,-0.379 0.614,-0.859 -0.469,-0.335 z" /></g><g
         transform="translate(270.58552,737.00838)"
         id="g46"><path
           inkscape:connector-curvature="0"
           id="path48"
           style="fill:#231f20;fill-opacity:1;fill-rule:nonzero;stroke:none"
           d="M 0,0 -0.004,0.009 C -0.262,0.593 -0.901,0.89 -1.497,0.626 -2.094,0.362 -2.299,-0.298 -2.042,-0.881 L -2.038,-0.89 C -1.78,-1.474 -1.141,-1.771 -0.544,-1.507 0.052,-1.243 0.258,-0.583 0,0 m -2.588,-1.143 -0.003,0.008 c -0.374,0.846 -0.034,1.842 0.888,2.25 C -0.78,1.522 0.172,1.107 0.546,0.263 L 0.55,0.254 c 0.373,-0.846 0.034,-1.842 -0.889,-2.25 -0.922,-0.407 -1.875,0.008 -2.249,0.853" /></g><g
         transform="translate(272.53032,739.36188)"
         id="g50"><path
           inkscape:connector-curvature="0"
           id="path52"
           style="fill:#231f20;fill-opacity:1;fill-rule:nonzero;stroke:none"
           d="M 0,0 0.563,0.124 1.154,-2.57 2.84,-2.201 2.952,-2.714 0.703,-3.207 Z" /></g><g
         transform="translate(277.17142,738.10698)"
         id="g54"><path
           inkscape:connector-curvature="0"
           id="path56"
           style="fill:#231f20;fill-opacity:1;fill-rule:nonzero;stroke:none"
           d="M 0,0 -1.419,1.909 -0.74,1.949 0.264,0.552 1.105,2.058 1.765,2.097 0.58,0.049 0.657,-1.258 0.077,-1.293 Z" /></g><g
         transform="translate(281.29002,739.48978)"
         id="g58"><path
           inkscape:connector-curvature="0"
           id="path60"
           style="fill:#231f20;fill-opacity:1;fill-rule:nonzero;stroke:none"
           d="M 0,0 -1.034,0.12 -0.973,0.651 1.673,0.345 1.612,-0.187 0.578,-0.066 0.262,-2.797 -0.316,-2.729 Z" /></g><g
         transform="translate(284.92092,739.40778)"
         id="g62"><path
           inkscape:connector-curvature="0"
           id="path64"
           style="fill:#231f20;fill-opacity:1;fill-rule:nonzero;stroke:none"
           d="M 0,0 2.327,-0.714 2.176,-1.208 0.4,-0.662 0.15,-1.479 1.724,-1.962 1.573,-2.455 -0.001,-1.972 -0.26,-2.814 1.538,-3.367 1.387,-3.86 l -2.35,0.721 z" /></g><g
         transform="translate(288.38532,736.45658)"
         id="g66"><path
           inkscape:connector-curvature="0"
           id="path68"
           style="fill:#231f20;fill-opacity:1;fill-rule:nonzero;stroke:none"
           d="M 0,0 0.004,0.008 C 0.447,0.83 1.425,1.171 2.3,0.699 2.833,0.412 3.055,0.053 3.189,-0.36 L 2.66,-0.561 C 2.545,-0.222 2.375,0.057 2.045,0.235 1.492,0.533 0.846,0.295 0.541,-0.271 L 0.537,-0.279 C 0.232,-0.845 0.383,-1.522 0.937,-1.821 1.292,-2.013 1.596,-1.99 1.969,-1.893 L 2.117,-2.398 C 1.646,-2.55 1.209,-2.57 0.668,-2.279 -0.174,-1.825 -0.447,-0.83 0,0" /></g><g
         transform="translate(293.50002,735.31698)"
         id="g70"><path
           inkscape:connector-curvature="0"
           id="path72"
           style="fill:#231f20;fill-opacity:1;fill-rule:nonzero;stroke:none"
           d="m 0,0 0.442,-0.37 -0.877,-1.047 1.202,-1.006 0.877,1.046 0.442,-0.37 -2.109,-2.518 -0.443,0.371 0.889,1.061 -1.201,1.007 -0.889,-1.062 -0.442,0.371 z" /></g><g
         transform="translate(297.33352,731.75838)"
         id="g74"><path
           inkscape:connector-curvature="0"
           id="path76"
           style="fill:#231f20;fill-opacity:1;fill-rule:nonzero;stroke:none"
           d="m 0,0 0.328,-0.423 -0.719,-2.779 1.795,1.39 0.347,-0.45 -2.595,-2.009 -0.296,0.381 0.739,2.862 -1.847,-1.43 -0.347,0.448 z" /></g><g
         transform="translate(300.22072,727.59428)"
         id="g78"><path
           inkscape:connector-curvature="0"
           id="path80"
           style="fill:#231f20;fill-opacity:1;fill-rule:nonzero;stroke:none"
           d="m 0,0 0.276,-0.506 -2.883,-1.57 -0.276,0.506 z" /></g><g
         transform="translate(299.68412,722.20268)"
         id="g82"><path
           inkscape:connector-curvature="0"
           id="path84"
           style="fill:#231f20;fill-opacity:1;fill-rule:nonzero;stroke:none"
           d="M 0,0 0.27,0.688 0.79,0.475 0.486,-0.229 c 0.201,-0.05 0.418,-0.036 0.636,0.04 L 1.13,-0.187 C 1.734,0.021 2.084,0.632 1.873,1.249 1.661,1.865 1.021,2.127 0.417,1.92 L 0.409,1.916 C -0.195,1.709 -0.545,1.098 -0.333,0.481 -0.264,0.277 -0.143,0.115 0,0 m -0.221,-0.526 c -0.276,0.197 -0.492,0.48 -0.617,0.843 -0.328,0.954 0.167,1.869 1.041,2.168 L 0.212,2.489 C 1.086,2.789 2.05,2.366 2.377,1.412 2.705,0.458 2.21,-0.456 1.336,-0.756 L 1.327,-0.759 C 0.977,-0.88 0.605,-0.883 0.266,-0.771 L 0.085,-1.23 -0.426,-1.014 Z" /></g><g
         transform="translate(301.12502,719.67728)"
         id="g86"><path
           inkscape:connector-curvature="0"
           id="path88"
           style="fill:#231f20;fill-opacity:1;fill-rule:nonzero;stroke:none"
           d="M 0,0 1.877,0.221 1.944,-0.353 0.09,-0.57 c -0.606,-0.072 -0.895,-0.422 -0.834,-0.935 0.059,-0.508 0.404,-0.783 1.005,-0.713 L 2.138,-1.997 2.205,-2.57 0.355,-2.787 C -0.618,-2.902 -1.172,-2.41 -1.272,-1.558 -1.372,-0.71 -0.946,-0.111 0,0" /></g><g
         transform="translate(303.34962,714.88728)"
         id="g90"><path
           inkscape:connector-curvature="0"
           id="path92"
           style="fill:#231f20;fill-opacity:1;fill-rule:nonzero;stroke:none"
           d="m 0,0 -0.187,-2.428 -0.515,0.039 0.143,1.853 -0.852,0.065 -0.126,-1.641 -0.515,0.04 0.127,1.641 -0.88,0.068 -0.144,-1.876 -0.515,0.04 0.189,2.451 z" /></g><g
         transform="translate(264.85642,695.49658)"
         id="g94"><path
           inkscape:connector-curvature="0"
           id="path96"
           style="fill:#231f20;fill-opacity:1;fill-rule:nonzero;stroke:none"
           d="M 0,0 -0.471,0.334 1.431,3.012 1.901,2.678 Z" /></g><g
         transform="translate(262.43802,697.35598)"
         id="g98"><path
           inkscape:connector-curvature="0"
           id="path100"
           style="fill:#231f20;fill-opacity:1;fill-rule:nonzero;stroke:none"
           d="m 0,0 -0.377,0.379 0.371,2.847 -1.61,-1.6 -0.4,0.403 L 0.312,4.343 0.653,4 0.272,1.069 1.929,2.716 2.329,2.313 Z" /></g><g
         transform="translate(261.42332,702.59628)"
         id="g102"><path
           inkscape:connector-curvature="0"
           id="path104"
           style="fill:#231f20;fill-opacity:1;fill-rule:nonzero;stroke:none"
           d="m 0,0 -0.536,0.062 c 0.055,0.413 0.011,0.76 -0.214,1.101 -0.195,0.298 -0.457,0.396 -0.664,0.259 L -1.422,1.417 C -1.618,1.288 -1.651,1.108 -1.433,0.521 -1.19,-0.154 -1.146,-0.597 -1.651,-0.93 l -0.008,-0.006 c -0.47,-0.309 -1.053,-0.131 -1.411,0.414 -0.263,0.399 -0.351,0.796 -0.311,1.221 l 0.535,-0.018 c -0.022,-0.369 0.043,-0.679 0.208,-0.93 0.186,-0.282 0.439,-0.352 0.619,-0.232 l 0.008,0.004 c 0.211,0.14 0.223,0.327 0.002,0.934 -0.241,0.673 -0.231,1.111 0.223,1.41 l 0.008,0.006 c 0.513,0.338 1.084,0.136 1.464,-0.44 C -0.039,1.014 0.077,0.522 0,0" /></g><g
         transform="translate(256.91852,705.89218)"
         id="g106"><path
           inkscape:connector-curvature="0"
           id="path108"
           style="fill:#231f20;fill-opacity:1;fill-rule:nonzero;stroke:none"
           d="M 0,0 0.411,-0.957 -0.08,-1.168 -1.132,1.28 -0.641,1.491 -0.23,0.534 2.296,1.62 2.525,1.085 Z" /></g><g
         transform="translate(255.24512,708.94878)"
         id="g110"><path
           inkscape:connector-curvature="0"
           id="path112"
           style="fill:#231f20;fill-opacity:1;fill-rule:nonzero;stroke:none"
           d="M 0,0 -0.151,0.557 3.019,1.416 3.17,0.858 Z" /></g><g
         transform="translate(255.06642,712.40778)"
         id="g114"><path
           inkscape:connector-curvature="0"
           id="path116"
           style="fill:#231f20;fill-opacity:1;fill-rule:nonzero;stroke:none"
           d="M 0,0 0.129,-1.034 -0.402,-1.1 -0.731,1.544 -0.201,1.61 -0.072,0.577 2.656,0.917 2.728,0.34 Z" /></g><g
         transform="translate(256.15822,715.72128)"
         id="g118"><path
           inkscape:connector-curvature="0"
           id="path120"
           style="fill:#231f20;fill-opacity:1;fill-rule:nonzero;stroke:none"
           d="m 0,0 -1.887,0.121 0.038,0.576 1.863,-0.12 C 0.623,0.538 0.97,0.83 1.003,1.346 1.037,1.855 0.748,2.189 0.144,2.228 L -1.743,2.35 -1.706,2.926 0.153,2.806 C 1.131,2.742 1.587,2.158 1.532,1.302 1.477,0.45 0.951,-0.062 0,0" /></g><g
         transform="translate(255.53962,721.39408)"
         id="g122"><path
           inkscape:connector-curvature="0"
           id="path124"
           style="fill:#231f20;fill-opacity:1;fill-rule:nonzero;stroke:none"
           d="m 0,0 -0.262,-1.008 -0.517,0.134 0.67,2.579 L 0.408,1.57 0.146,0.562 2.807,-0.129 2.661,-0.691 Z" /></g><g
         transform="translate(272.13132,693.05908)"
         id="g126"><path
           inkscape:connector-curvature="0"
           id="path128"
           style="fill:#231f20;fill-opacity:1;fill-rule:nonzero;stroke:none"
           d="M 0,0 C 0.506,-0.145 0.891,-0.028 1.027,0.448 L 1.03,0.458 C 1.166,0.936 0.898,1.236 0.393,1.38 L 0.208,1.433 -0.184,0.053 Z M -0.624,2.711 0.644,2.351 C 1.958,1.978 2.43,1.143 2.152,0.164 L 2.149,0.155 C 1.871,-0.823 1.002,-1.327 -0.335,-0.947 l -1.229,0.349 z" /></g><g
         transform="translate(276.37502,694.61768)"
         id="g130"><path
           inkscape:connector-curvature="0"
           id="path132"
           style="fill:#231f20;fill-opacity:1;fill-rule:nonzero;stroke:none"
           d="M 0,0 2.931,-0.144 2.885,-1.087 1.083,-0.998 1.066,-1.347 2.745,-1.43 2.705,-2.259 1.025,-2.177 1.007,-2.55 2.833,-2.64 2.787,-3.582 -0.168,-3.438 Z" /></g><g
         transform="translate(285.53812,693.82278)"
         id="g134"><path
           inkscape:connector-curvature="0"
           id="path136"
           style="fill:#231f20;fill-opacity:1;fill-rule:nonzero;stroke:none"
           d="M 0,0 C 0.282,0.086 0.431,0.271 0.359,0.506 L 0.356,0.515 C 0.283,0.755 0.072,0.823 -0.22,0.734 L -0.521,0.643 -0.296,-0.09 Z m -1.888,1.186 1.48,0.452 C 0.466,1.904 1.182,1.697 1.42,0.917 L 1.423,0.908 C 1.666,0.113 1.189,-0.494 0.301,-0.766 l -0.358,-0.109 0.273,-0.893 -1.099,-0.336 z" /></g><g
         transform="translate(290.61872,695.53278)"
         id="g138"><path
           inkscape:connector-curvature="0"
           id="path140"
           style="fill:#231f20;fill-opacity:1;fill-rule:nonzero;stroke:none"
           d="m 0,0 -0.687,0.571 0.14,-0.883 z M -1.842,1.47 -0.85,2.033 2.123,-0.264 1.038,-0.881 0.651,-0.569 -0.396,-1.164 -0.322,-1.653 -1.39,-2.261 Z" /></g><g
         transform="translate(294.44782,699.05328)"
         id="g142"><path
           inkscape:connector-curvature="0"
           id="path144"
           style="fill:#231f20;fill-opacity:1;fill-rule:nonzero;stroke:none"
           d="M 0,0 C 0.201,0.187 0.24,0.392 0.096,0.546 L 0.089,0.553 C -0.062,0.715 -0.262,0.677 -0.456,0.495 L -0.822,0.153 -0.363,-0.339 Z M -2.321,0.073 -1.092,1.22 C -0.646,1.636 -0.258,1.789 0.083,1.777 0.375,1.768 0.627,1.654 0.869,1.396 L 0.876,1.389 C 1.218,1.022 1.266,0.589 1.098,0.156 L 2.482,-0.152 1.522,-1.048 0.377,-0.771 0.37,-0.778 0.197,-0.939 0.868,-1.658 0.027,-2.442 Z" /></g><g
         transform="translate(295.57372,702.70558)"
         id="g146"><path
           inkscape:connector-curvature="0"
           id="path148"
           style="fill:#231f20;fill-opacity:1;fill-rule:nonzero;stroke:none"
           d="M 0,0 0.68,0.928 3.455,-1.106 2.775,-2.034 Z" /></g><g
         transform="translate(299.74762,703.58838)"
         id="g150"><path
           inkscape:connector-curvature="0"
           id="path152"
           style="fill:#231f20;fill-opacity:1;fill-rule:nonzero;stroke:none"
           d="M 0,0 -0.39,0.873 C 0.03,1.085 0.323,1.417 0.5,1.779 0.59,1.966 0.58,2.068 0.496,2.109 L 0.487,2.113 C 0.399,2.156 0.303,2.083 0.075,1.784 -0.404,1.159 -0.899,0.646 -1.554,0.964 l -0.008,0.004 c -0.588,0.286 -0.819,0.968 -0.405,1.82 0.291,0.597 0.647,0.97 1.104,1.191 L -0.41,3.135 C -0.764,2.946 -1.026,2.643 -1.167,2.355 -1.242,2.2 -1.223,2.104 -1.148,2.067 l 0.009,-0.004 c 0.084,-0.041 0.178,0.017 0.399,0.314 0.531,0.721 1.018,1.139 1.642,0.836 L 0.911,3.208 C 1.56,2.893 1.698,2.164 1.293,1.333 0.988,0.706 0.536,0.227 0,0" /></g><path
         inkscape:connector-curvature="0"
         id="path154"
         style="fill:#231f20;fill-opacity:1;fill-rule:nonzero;stroke:none"
         d="m 313.18492,723.24138 h 3.333 v -15.151 h -3.333 z" /><g
         transform="translate(328.92332,715.60108)"
         id="g156"><path
           inkscape:connector-curvature="0"
           id="path158"
           style="fill:#231f20;fill-opacity:1;fill-rule:nonzero;stroke:none"
           d="m 0,0 h -2.641 v 4.632 h 2.576 C 1.602,4.632 2.64,3.81 2.64,2.315 2.64,1.017 1.666,0 0,0 m 0.216,7.641 h -6.19 V -7.511 h 3.333 v 4.546 h 2.533 c 3.398,0 6.125,1.84 6.125,5.346 0,3.095 -2.186,5.26 -5.801,5.26" /></g><g
         transform="translate(351.76372,715.60108)"
         id="g160"><path
           inkscape:connector-curvature="0"
           id="path162"
           style="fill:#231f20;fill-opacity:1;fill-rule:nonzero;stroke:none"
           d="m 0,0 h -2.642 v 4.632 h 2.577 C 1.602,4.632 2.64,3.81 2.64,2.315 2.64,1.017 1.665,0 0,0 M 0.216,7.641 H -5.975 V -7.511 h 3.333 v 4.546 h 2.534 c 3.397,0 6.125,1.84 6.125,5.346 0,3.095 -2.187,5.26 -5.801,5.26" /></g><g
         transform="translate(369.60062,714.43218)"
         id="g164"><path
           inkscape:connector-curvature="0"
           id="path166"
           style="fill:#231f20;fill-opacity:1;fill-rule:nonzero;stroke:none"
           d="M 0,0 -2.014,4.913 -4.026,0 Z m -3.508,8.918 h 3.074 L 6.06,-6.342 H 2.574 l -1.385,3.399 h -6.407 l -1.385,-3.399 h -3.398 z" /></g><g
         transform="translate(386.54882,715.88238)"
         id="g168"><path
           inkscape:connector-curvature="0"
           id="path170"
           style="fill:#231f20;fill-opacity:1;fill-rule:nonzero;stroke:none"
           d="m 0,0 c 1.623,0 2.554,0.866 2.554,2.144 v 0.043 c 0,1.427 -0.995,2.164 -2.619,2.164 H -3.377 V 0 Z m -6.71,7.359 h 6.927 c 1.926,0 3.42,-0.541 4.415,-1.538 C 5.476,4.978 5.931,3.788 5.931,2.358 V 2.315 c 0,-2.445 -1.322,-3.982 -3.246,-4.696 l 3.7,-5.411 H 2.488 l -3.246,4.849 H -0.801 -3.377 V -7.792 H -6.71 Z" /></g><path
         inkscape:connector-curvature="0"
         id="path172"
         style="fill:#231f20;fill-opacity:1;fill-rule:nonzero;stroke:none"
         d="m 398.13592,723.24138 h 3.333 v -15.151 h -3.333 z" /><g
         transform="translate(413.57132,717.15968)"
         id="g174"><path
           inkscape:connector-curvature="0"
           id="path176"
           style="fill:#231f20;fill-opacity:1;fill-rule:nonzero;stroke:none"
           d="m 0,0 c -2.619,0.67 -3.269,1.018 -3.269,2.013 0,0.735 0.67,1.341 1.948,1.341 1.277,0 2.597,-0.563 3.939,-1.493 L 4.35,4.372 c -1.537,1.233 -3.42,1.927 -5.628,1.927 -3.094,0 -5.302,-1.84 -5.302,-4.59 0,-3.008 1.969,-3.874 5.021,-4.653 2.532,-0.65 3.051,-1.104 3.051,-1.948 0,-0.887 -0.822,-1.45 -2.185,-1.45 -1.732,0 -3.161,0.714 -4.525,1.839 l -1.969,-2.358 c 1.818,-1.623 4.134,-2.425 6.429,-2.425 3.268,0 5.562,1.71 5.562,4.719 C 4.804,-1.926 3.073,-0.801 0,0" /></g><path
         inkscape:connector-curvature="0"
         id="path178"
         style="fill:#231f20;fill-opacity:1;fill-rule:nonzero;stroke:none"
         d="m 417.88592,751.50638 h -163.393 v 1.746 h 163.393 z" /><path
         inkscape:connector-curvature="0"
         id="path180"
         style="fill:#231f20;fill-opacity:1;fill-rule:nonzero;stroke:none"
         d="m 417.88692,836.94538 h -163.395 v 112.446 h 163.395 z" /><g
         transform="translate(417.74412,786.17188)"
         id="g182"><path
           inkscape:connector-curvature="0"
           id="path184"
           style="fill:#b50c36;fill-opacity:1;fill-rule:nonzero;stroke:none"
           d="M 0,0 -0.065,43.197 H -7.39 C -8.152,42.18 -7.637,37.6 -9.956,36.725 c -7.849,1.76 -0.696,2.652 -3.39,6.472 -0.337,-0.019 -3.539,0.002 -3.878,0 0.367,-0.05 1.734,-1.585 -0.314,-3.345 -2.75,-18.106 2.304,-25.486 -0.252,-39.84 z" /></g><g
         transform="translate(300.89602,815.99228)"
         id="g186"><path
           inkscape:connector-curvature="0"
           id="path188"
           style="fill:#b50c36;fill-opacity:1;fill-rule:nonzero;stroke:none"
           d="M 0,0 C 2.939,1.386 2.961,4.456 3.097,6.469 2.207,7.468 -1.278,7.53 -2.674,7.275 -4.609,5.656 -2.929,2.765 -4.084,0.884 -3.322,-0.742 -1.278,0.396 0,0" /></g><g
         transform="translate(317.68752,794.56108)"
         id="g190"><path
           inkscape:connector-curvature="0"
           id="path192"
           style="fill:#b50c36;fill-opacity:1;fill-rule:nonzero;stroke:none"
           d="M 0,0 0.871,-0.25 C 1.669,-0.411 2.748,-0.446 3.583,-0.094 3.364,0.484 3.069,1.033 2.712,1.477 1.76,1.021 0.852,0.54 0,0" /></g><g
         transform="translate(317.91702,814.10408)"
         id="g194"><path
           inkscape:connector-curvature="0"
           id="path196"
           style="fill:#b50c36;fill-opacity:1;fill-rule:nonzero;stroke:none"
           d="M 0,0 C -1.773,4.707 4.632,6.625 7.101,9.499 L 10.415,7.652 C 10.054,4.436 4.182,3.842 4.54,0.358 5.154,-0.162 5.688,-1.038 6.485,-1.205 6.764,-2.072 6.039,-2.6 5.514,-3.125 2.938,-4.165 1.611,-1.641 0,0 m 3.354,-19.637 c 0.696,-1.739 0.779,-3.888 -0.055,-5.247 l -8.575,-0.301 v 1.099 c 1.505,1.981 3.171,3.381 5.047,4.543 l -1.722,0.484 c -2.45,1.675 3.313,4.076 4.206,4.731 l 2.317,-3.71 c -0.07,-0.835 -0.569,-1.323 -1.218,-1.599 m -17.055,-4.121 c -1.845,3.187 0.305,8.5 0.815,11.541 0.435,0.434 0.884,1.023 1.632,0.791 0.514,-1.666 -1.932,-2.752 -0.296,-4.191 1.692,0.5 3.915,-1.022 5.612,0.282 -0.887,1.448 -2.735,0.718 -3.99,1.304 v 0.792 l 3.782,0.229 c 0.588,-0.804 3.264,-1.56 2.673,-3.089 -2.518,-3.555 -6.824,-5.628 -10.228,-7.659 M -16.68,-5.78 c 0.392,0.653 1.165,0.267 1.724,0.371 0.204,-1.596 2.692,0.378 1.732,-1.706 h -0.279 c -1.055,-0.551 -2.785,0 -3.177,1.335 m 4.906,-0.939 c 1.282,0.746 3.066,0.628 2.77,-1.839 h -2.074 c -0.399,0.497 -0.998,0.991 -0.696,1.839 m 1.557,17.359 c 0.359,0.58 0.884,1.675 1.925,1.317 -0.088,-0.87 -0.527,-2.477 -1.925,-1.818 z M -7.78,-8.808 c 1.994,-0.436 4.151,1.082 5.615,-0.505 -0.658,-1.387 -0.658,-3.697 -2.957,-2.392 -1.024,0.8 -3.33,0.439 -3.17,2.392 z m 0.219,18.145 c 0.15,1.663 2.146,1.012 3.257,1.523 l 0.225,-0.721 C -5.122,9.337 -5.861,7.593 -7.561,8.252 Z m 5.923,-12.632 c -1.264,-0.87 -3.398,-0.571 -4.815,-0.281 0.369,0.57 0.454,1.236 0.515,1.879 0.902,0.731 1.859,2.322 3.487,1.819 0.663,-0.937 0.961,-2.109 0.813,-3.417 M -1.675,9.893 -2.034,5.358 C -2.213,4.645 -2.757,3.229 -4.032,3.764 -5.576,3.399 -4.766,5.279 -4.942,5.974 -3.58,7.132 -3.21,9.631 -1.675,9.893 M -16.074,-3.576 h -1.104 c -1.555,0.57 -4.965,1.37 -5.105,3.18 2.15,-0.57 4.066,-1.656 6.209,-2.386 z m 26.717,-4.718 c -2.068,-0.073 -3.851,-3.058 -5.624,-1.818 1.04,2.906 3.326,5.292 4.294,8.125 1.701,3.859 4.476,12.271 3.29,17.281 H 4.662 C 2.076,14.563 3.991,7.88 1.316,7.439 0.582,9.268 0.798,11.445 -1.302,15.246 h -4.29 c 0.326,-2.864 -0.114,-3.002 -0.346,-3.289 -1.473,-0.079 -1.326,2.241 -3.179,1.009 -1.623,0.293 -2.062,-2.326 -3.769,-1.819 -0.581,1.387 -2.218,3.19 -3.999,2.112 1.552,-3.349 9.324,-4.725 5.631,-10.232 -0.748,-1.599 -0.152,-3.915 -2.142,-4.724 -3.489,0.947 -6.737,2.254 -10.217,3.125 0.372,-1.306 -0.593,-3.125 -0.227,-4.434 3.707,-0.497 4.818,-4.35 7.989,-5.51 0.674,-0.509 0.968,-1.084 0.827,-1.889 -2.229,-0.947 -4.598,1.018 -6.664,1.889 -0.521,-0.212 -0.237,-0.728 -0.302,-1.084 1.921,-2.259 8.138,-1.305 6.139,-6.017 -1.701,-3.856 -1.327,-10.241 -7.169,-10.759 -0.527,-1.156 0.877,-1.069 1.332,-1.586 5.021,-0.509 10.211,4.288 14.424,0.291 1.403,0 3.185,0.883 4.297,-0.261 H 9.651 c 2.378,4.594 0.539,7.534 0.764,11.747 0.279,1.068 -2.952,2.154 -5.396,1.568 -0.438,0.295 -0.151,0.878 -0.215,1.378 1.622,1.887 8.134,-0.939 6.655,3.639 0,0.356 0,1.233 -0.816,1.306" /></g><g
         transform="translate(266.89802,824.71148)"
         id="g198"><path
           inkscape:connector-curvature="0"
           id="path200"
           style="fill:#b50c36;fill-opacity:1;fill-rule:nonzero;stroke:none"
           d="m 0,0 c -7.912,0.508 -12.153,-0.304 -12.26,-0.273 v -6.27 h 1.478 C -9,-7.076 -7.789,-7.112 -6,-7.112 c 6.636,-0.677 12.225,0.296 18.811,0.656 -0.745,0.22 -1.496,0.401 -2.175,0.357 -1.118,0.844 -1.823,1.392 -1.559,2.73 1.746,1.861 4.944,0.323 6.992,1.432 1.81,-0.696 0.602,-2.668 1.032,-3.89 -0.179,-0.344 -0.377,-0.315 -0.588,-0.505 2.016,0.015 4.164,-0.049 6.481,-0.262 V -0.1 C 13.201,0.529 6.292,-0.382 0,0" /></g><g
         transform="translate(340.46532,811.67288)"
         id="g202"><path
           inkscape:connector-curvature="0"
           id="path204"
           style="fill:#b50c36;fill-opacity:1;fill-rule:nonzero;stroke:none"
           d="m 0,0 c -1.424,-0.365 -3.239,-0.652 -4.534,0.204 0.653,1.462 2.23,0.591 3.326,0.814 C -0.829,0.504 -0.046,1.087 0,0 m 4.7,-15.434 v -1.913 c -2.543,-0.879 -4.903,-3.651 -7.681,-2.43 v 1.734 c 1.112,0.52 2.401,-1.044 3.339,1.39 1.523,-0.182 2.771,2.069 4.342,1.219 M 2.531,10.645 1.331,9.3 c -0.47,0 -1.314,1.437 -1.45,2.015 0.375,0.435 2.459,-0.164 2.65,-0.67 M 2.634,7.536 C 3.226,7.101 4.479,7.066 3.831,5.435 3.09,4.772 2.536,6.496 1.842,6.707 Z m 1.421,-17.654 v -2.217 c -0.713,0.118 -1.658,-0.369 -2.193,0.369 0.145,1.715 1.48,1.595 2.193,1.848 m 0.803,5.793 H 0.736 v 1.518 h 4.122 z m 2.318,-18.654 c -0.976,-2.28 -2.779,-0.621 -4.025,0 -1.027,0.417 -1.853,-2.594 -2.818,-0.415 -0.047,0.524 0.232,0.731 0.326,1.145 2.262,1.558 4.616,0.305 6.517,-0.73 m -12.351,9.834 h 2.823 v -0.792 H -5.175 Z M -0.346,4.67 C -1.23,3.98 -2.461,3.662 -3.478,3.545 l -0.615,2.042 c 1.168,0.101 3.303,0.681 3.747,-0.917 m -3.49,3.17 h 2.169 V 7.05 H -3.836 Z M 9.504,6.173 V 3.727 C 8.368,3.859 6.993,3.353 6.002,4.12 6.494,5.896 8.368,5.785 9.504,6.173 m -8.845,9.062 c 3.185,-0.792 6.533,-1.172 9.917,-1.31 v 3.773 H -3.589 c -0.017,-2.988 -2.285,-7.172 -2.285,-7.172 1.244,0.012 2.453,-0.073 3.548,-0.594 V 9.14 C -3.482,9.426 -4.668,9.574 -5.874,9.644 V -2.612 h 1.564 c 0.09,-0.289 0.37,-0.444 0.309,-0.799 L -4.31,-3.996 h -1.564 v -1.491 c 0.526,-0.029 1.089,-0.173 1.564,-0.035 0.027,-0.068 0.053,-0.138 0.101,-0.198 0.737,-0.136 1.256,-1.112 2.172,-0.6 v -0.789 h -1.647 c -0.317,0 -0.717,0.09 -0.964,0.384 -0.387,-0.152 -0.805,-0.217 -1.226,-0.157 V -8.01 c 1.244,0.462 2.869,-0.064 4.062,-0.12 0.138,-0.297 0.415,-0.445 0.323,-0.808 l -0.323,-0.573 c -1.241,0.451 -2.77,0.212 -4.062,0.344 v -9.483 c 0.446,-0.085 0.893,-0.211 1.244,-0.295 0.13,-0.361 0.505,-0.577 0.505,-1.009 -0.481,-0.29 -1.114,-0.358 -1.749,-0.234 v -5.301 h 16.45 v 5.301 c -0.63,-0.124 -2.193,-0.196 -2.676,0.087 0,0.44 1.641,3.766 2.093,3.849 l 0.583,7.085 C 9.282,-9.299 7.765,-9.06 6.521,-9.511 L 6.2,-8.938 c -0.085,0.363 0.192,0.511 0.321,0.808 1.204,0.056 2.828,0.582 4.055,0.12 v 1.128 C 9.898,-6.966 9.184,-6.787 8.7,-6.32 c -0.05,0.371 0.228,0.513 0.326,0.798 0.472,-0.138 1.03,0.006 1.55,0.035 v 1.491 H 9.026 L 8.7,-3.411 c -0.05,0.355 0.228,0.51 0.326,0.799 h 1.55 V 9.644 C 9.381,9.574 8.178,9.426 7.034,9.14 v 0.792 c 1.096,0.521 2.315,0.606 3.542,0.594 v 2.413 c -2.925,0.162 -5.829,0.468 -8.582,0.698 -0.696,0.371 -1.708,0.288 -2.18,1.019 0.186,0.504 0.519,0.579 0.845,0.579" /></g><g
         transform="translate(268.21482,826.70808)"
         id="g206"><path
           inkscape:connector-curvature="0"
           id="path208"
           style="fill:#b50c36;fill-opacity:1;fill-rule:nonzero;stroke:none"
           d="m 0,0 c 6.988,0 14.666,0.635 21.751,0.089 v 2.662 h -35.399 c -0.037,-1.105 0,-2.836 0,-2.836 C -9.218,0.646 -3.712,0 0,0" /></g><g
         transform="translate(262.78172,813.85698)"
         id="g210"><path
           inkscape:connector-curvature="0"
           id="path212"
           style="fill:#b50c36;fill-opacity:1;fill-rule:nonzero;stroke:none"
           d="M 0,0 C -1.983,0 -4.137,1.936 -6.124,2.578 H -7.115 L -8.111,2.359 -8.155,-27.673 H 27.23 V 2.705 C 17.997,3.769 9.945,-0.701 0,0" /></g><g
         transform="translate(390.95412,809.56838)"
         id="g214"><path
           inkscape:connector-curvature="0"
           id="path216"
           style="fill:#b50c36;fill-opacity:1;fill-rule:nonzero;stroke:none"
           d="M 0,0 C -0.808,0.073 -2.63,0.249 -2.783,1.411 -2.97,2.675 -3.041,4.433 -0.233,3.919 1.854,3.38 2.688,0.491 0,0 m -5.008,-15.772 c -0.881,-0.991 -0.633,-5.43 -2.764,-3.129 -2.274,5.979 0.803,10.094 1.317,15.406 1.326,1.45 2.789,1.984 3.621,1.616 0.204,-0.044 1.316,-2.707 1.503,-2.746 0.251,-3.657 -1.965,-3.838 0.173,-9.898 -0.578,-0.991 -3.179,-0.484 -3.85,-1.249 m -5.286,19.367 c 0.443,0.588 2.002,1.413 2.827,1.271 0.885,-0.363 1.477,-2.039 1.111,-3.201 -0.079,-0.941 -1.111,-0.72 -1.854,-0.72 -1.04,0.363 -2.384,1.419 -2.084,2.65 m -3,2.277 c -0.307,-1.237 -1.847,-2.68 -3.768,-2.315 -0.967,0.732 -0.644,2.117 -0.868,3.13 0.224,0.725 2.354,1.304 3.248,1.082 0.369,-0.505 1.676,-1.172 1.388,-1.897 m -4.34,6.103 c 0.44,-1.747 -1.96,-2.058 -2.863,-2.155 -1.004,0.534 -2.276,2.489 -1.608,4.126 0.673,0.667 1.228,1.533 2.459,1.197 0.656,-1.081 2.564,-1.631 2.012,-3.168 m -4.932,-29.13 v 2.695 l -2.04,1.927 -0.859,2.891 c -1,4.417 0.145,9.547 0.941,11.211 -0.036,-0.029 -0.042,-0.039 -0.077,-0.052 -0.743,0.222 -1.925,-0.434 -2.373,0.501 0.672,1.096 -0.286,2.769 0.821,3.703 0.809,0.151 2.821,0.111 3.34,-0.468 -0.055,-0.9 -0.091,-2.183 -0.909,-3.085 0.849,0.177 1.782,0.028 2.446,-0.638 -0.214,-8.454 0.603,-14.169 1.292,-21.924 z m -8.023,27.914 c -1.422,1.216 -2.301,2.618 -1.946,4.531 0.892,2.093 3.899,1.396 5.145,0.52 0.954,-1.397 2.667,-3.055 0.039,-3.788 0.262,-3.373 -2.189,-2.842 -3.238,-1.263 M 4.923,-3.19 c -2.068,5.016 2.649,21.71 -4.975,23.081 -0.834,0.12 -1.536,-0.23 -2.196,-0.78 1.331,-0.95 2.338,-2.369 2.563,-3.983 C -1.465,11.209 -5.157,16 -7.677,14.689 V 11.5 c -1.042,-0.868 -1.782,-2.031 -3.252,-1.593 -0.895,1.017 -2.08,1.738 -1.639,3.18 0.903,1.89 2.964,1.164 4.297,2.041 -0.033,0.048 -0.057,0.092 -0.082,0.137 -2.53,0.617 -2.198,4.565 -6.476,4.565 h -8.169 c -3.793,-1.17 -8.463,-3.337 -12.833,-0.027 l 0.825,-5.386 0.541,-1.841 -0.014,-1.608 1.924,-1.676 -2.003,-1.711 0.682,-4.144 c 1.511,-0.45 3.137,-0.523 3.211,-1.907 -0.277,-2.261 -1.974,-4.855 -2.036,-7.193 -0.101,-2.894 1.508,-14.837 1.462,-17.721 1.561,0.142 9.031,0.444 10.558,1.221 0.008,-0.058 2.081,-1.16 2.081,-1.221 2.653,-0.257 6.122,-0.916 5.257,3.687 l -1.919,12.239 c -2.279,6.268 1.919,7.829 3.323,7.901 l 1.104,-1.005 c -0.388,-1.245 -0.593,-2.439 -0.701,-3.595 0.278,-0.468 0.506,-0.964 0.356,-1.748 0.093,-0.738 -0.103,-1.171 -0.38,-1.47 0.441,-5.681 3.158,-10.626 3.207,-16.052 l 7.155,0.043 2.603,2.026 -0.546,5.04 0.303,4.751 -0.163,8.847 C 2.098,-2.975 3.18,-3.283 4.41,-3.759 Z" /></g><g
         transform="translate(349.06452,866.20758)"
         id="g218"><path
           inkscape:connector-curvature="0"
           id="path220"
           style="fill:#bdbcbc;fill-opacity:1;fill-rule:nonzero;stroke:none"
           d="m 0,0 c 0.881,0 3.173,-0.206 4.759,0.059 4.967,0.828 7.528,2.441 7.528,5.988 0,3.548 -2.246,4.81 -9.08,4.81 h -6.288 v -20.06 c 0.489,0.029 1.016,0.074 1.54,0.074 0.49,0 0.98,-0.045 1.541,-0.074 z M 0,9.712 C 1.058,9.77 3.561,9.8 5.076,9.683 7.86,9.478 9.06,7.895 9.06,5.901 9.06,3.292 7.015,1.444 3.489,1.152 2.291,1.064 0.881,1.064 0,1.152 Z" /></g><g
         transform="translate(371.09282,865.60938)"
         id="g222"><path
           inkscape:connector-curvature="0"
           id="path224"
           style="fill:#bdbcbc;fill-opacity:1;fill-rule:nonzero;stroke:none"
           d="m 0,0 -0.569,-0.222 c -1.289,-0.505 -1.251,-0.442 -3.602,-0.947 -2.767,-0.601 -5.611,-0.948 -5.763,-4.108 -0.076,-1.991 2.009,-3.507 4.36,-3.634 2.312,-0.125 4.626,0.886 5.384,2.812 v -2.432 h 4.626 v 0.536 H 2.844 v 8.816 c 0,2.339 -0.417,4.518 -5.422,4.74 C -3.943,5.624 -4.285,5.498 -5.271,5.371 -6.408,5.213 -7.47,4.866 -8.228,4.582 V 0.347 h 0.682 l 0.835,1.769 c 0.72,1.517 1.365,3.16 3.829,2.94 C -0.418,4.834 0,3.475 0,2.022 Z m 0,-1.991 c 0,-0.822 0.037,-1.327 -0.076,-2.149 -0.266,-1.832 -1.706,-3.855 -4.095,-3.981 -2.01,-0.126 -2.958,1.454 -2.806,2.908 0.341,3.254 1.593,2.843 5.46,4.044 L 0,-0.695 Z" /></g><g
         transform="translate(384.18952,857.07818)"
         id="g226"><path
           inkscape:connector-curvature="0"
           id="path228"
           style="fill:#bdbcbc;fill-opacity:1;fill-rule:nonzero;stroke:none"
           d="m 0,0 h -6.863 v 0.537 h 1.706 v 12.639 h -1.782 v 0.569 h 4.437 v -2.876 c 0.189,1.043 1.781,2.97 4.283,2.97 0.721,0 1.366,-0.158 2.085,-0.474 V 8.373 H 3.147 L 2.236,10.68 C 1.592,12.291 1.1,13.334 0.114,12.86 -2.465,11.627 -2.237,8.657 -2.237,5.877 V 0.537 H 0 Z" /></g><g
         transform="translate(394.74512,874.01418)"
         id="g230"><path
           inkscape:connector-curvature="0"
           id="path232"
           style="fill:#bdbcbc;fill-opacity:1;fill-rule:nonzero;stroke:none"
           d="m 0,0 c 0,-0.885 -0.872,-1.517 -1.857,-1.517 -0.949,0 -1.821,0.696 -1.821,1.485 0,0.79 0.835,1.549 1.783,1.549 C -0.872,1.517 0,0.821 0,0 m -4.776,-16.936 v 0.537 h 1.743 V -3.76 h -1.63 v 0.569 h 4.587 v -13.208 h 1.555 v -0.537 z" /></g><g
         transform="translate(407.53912,867.60018)"
         id="g234"><path
           inkscape:connector-curvature="0"
           id="path236"
           style="fill:#bdbcbc;fill-opacity:1;fill-rule:nonzero;stroke:none"
           d="m 0,0 c -0.72,2.148 -1.44,3.002 -3.412,3.002 -1.706,0 -3.868,-0.569 -4.019,-2.308 -0.115,-1.548 1.82,-2.179 3.563,-2.653 2.958,-0.854 6.409,-1.738 6.296,-4.487 -0.077,-2.623 -2.693,-4.55 -6.257,-4.487 -2.047,0.032 -4.361,0.696 -5.157,1.169 v 4.518 h 0.683 l 0.795,-2.274 c 0.873,-2.56 1.859,-2.592 3.413,-2.717 2.16,-0.19 4.626,0.694 4.816,2.464 0.264,2.179 -3.223,2.749 -5.422,3.412 -1.555,0.474 -4.589,1.327 -4.589,3.918 0,3.034 3.944,4.045 6.029,4.045 1.744,0 3.754,-0.569 4.474,-0.948 v -4.139 h -0.72 z" /></g><g
         transform="translate(278.84332,901.47808)"
         id="g238"><path
           inkscape:connector-curvature="0"
           id="path240"
           style="fill:#ffffff;fill-opacity:1;fill-rule:nonzero;stroke:none"
           d="m 0,0 h -6.414 v -18.322 c 0,-0.825 -0.681,-1.457 -1.458,-1.457 h -0.681 c -0.825,0 -1.458,0.632 -1.458,1.457 V 0 h -6.366 c -0.826,0 -1.506,0.534 -1.506,1.36 v 0.535 c 0,0.826 0.68,1.361 1.457,1.361 h 16.378 c 0.826,0 1.506,-0.535 1.506,-1.361 V 1.36 C 1.458,0.534 0.778,0 0,0" /></g><g
         transform="translate(299.59472,881.69878)"
         id="g242"><path
           inkscape:connector-curvature="0"
           id="path244"
           style="fill:#ffffff;fill-opacity:1;fill-rule:nonzero;stroke:none"
           d="m 0,0 h -14.968 c -0.777,0 -1.361,0.583 -1.361,1.361 v 20.313 c 0,0.826 0.632,1.361 1.409,1.361 h 14.239 c 0.827,0 1.458,-0.535 1.458,-1.361 V 21.14 c 0,-0.827 -0.631,-1.361 -1.458,-1.361 h -12.051 v -6.706 h 11.08 c 0.825,0 1.458,-0.535 1.458,-1.361 v -0.535 c 0,-0.825 -0.633,-1.361 -1.458,-1.361 h -11.08 V 3.256 H 0 c 0.826,0 1.457,-0.535 1.457,-1.36 V 1.361 C 1.457,0.535 0.826,0 0,0" /></g><g
         transform="translate(319.85942,881.69878)"
         id="g246"><path
           inkscape:connector-curvature="0"
           id="path248"
           style="fill:#ffffff;fill-opacity:1;fill-rule:nonzero;stroke:none"
           d="m 0,0 h -15.114 v 21.577 c 0,0.826 0.632,1.458 1.457,1.458 h 0.681 c 0.778,0 1.458,-0.632 1.458,-1.458 V 3.256 H 0 c 0.826,0 1.458,-0.535 1.458,-1.36 V 1.361 C 1.458,0.535 0.826,0 0,0" /></g><g
         transform="translate(340.02692,881.69878)"
         id="g250"><path
           inkscape:connector-curvature="0"
           id="path252"
           style="fill:#ffffff;fill-opacity:1;fill-rule:nonzero;stroke:none"
           d="m 0,0 h -14.969 c -0.777,0 -1.36,0.583 -1.36,1.361 v 20.313 c 0,0.826 0.632,1.361 1.409,1.361 h 14.239 c 0.826,0 1.459,-0.535 1.459,-1.361 V 21.14 c 0,-0.827 -0.633,-1.361 -1.459,-1.361 h -12.052 v -6.706 h 11.08 c 0.826,0 1.458,-0.535 1.458,-1.361 v -0.535 c 0,-0.825 -0.632,-1.361 -1.458,-1.361 h -11.08 V 3.256 H 0 c 0.826,0 1.458,-0.535 1.458,-1.36 V 1.361 C 1.458,0.535 0.826,0 0,0" /></g><g
         transform="translate(360.04792,881.69878)"
         id="g254"><path
           inkscape:connector-curvature="0"
           id="path256"
           style="fill:#ffffff;fill-opacity:1;fill-rule:nonzero;stroke:none"
           d="m 0,0 h -9.525 c -3.013,0 -5.345,2.576 -5.345,5.54 v 12.101 c 0,2.964 2.527,5.394 5.54,5.394 h 8.748 c 0.825,0 1.458,-0.535 1.458,-1.361 V 21.14 c 0,-0.827 -0.633,-1.361 -1.458,-1.361 h -7.484 c -2.333,0 -3.208,-1.361 -3.208,-3.158 V 6.269 c 0,-2.284 1.458,-3.013 3.255,-3.013 H 0 c 0.826,0 1.459,-0.535 1.459,-1.36 V 1.361 C 1.459,0.535 0.826,0 0,0" /></g><g
         transform="translate(380.07032,898.80518)"
         id="g258"><path
           inkscape:connector-curvature="0"
           id="path260"
           style="fill:#ffffff;fill-opacity:1;fill-rule:nonzero;stroke:none"
           d="m 0,0 c 0,1.458 -1.216,2.673 -2.674,2.673 h -6.171 c -1.507,0 -2.673,-1.215 -2.673,-2.673 v -11.177 c 0,-1.507 1.166,-2.674 2.623,-2.674 h 6.221 c 1.458,0 2.674,1.167 2.674,2.674 z m -1.799,-17.106 h -7.922 c -3.012,0 -5.392,2.478 -5.392,5.442 V 0.583 c 0,2.964 2.574,5.346 5.588,5.346 h 7.532 c 3.013,0 5.589,-2.382 5.589,-5.346 v -12.247 c 0,-2.964 -2.43,-5.442 -5.395,-5.442" /></g><g
         transform="translate(408.15922,881.69878)"
         id="g262"><path
           inkscape:connector-curvature="0"
           id="path264"
           style="fill:#ffffff;fill-opacity:1;fill-rule:nonzero;stroke:none"
           d="M 0,0 H -0.681 C -1.459,0 -2.138,0.632 -2.138,1.458 V 16.815 L -6.999,10.011 C -7.435,9.428 -7.824,8.942 -8.553,8.942 h -0.486 c -0.73,0 -1.118,0.486 -1.556,1.069 l -4.859,6.804 V 1.458 C -15.454,0.632 -16.135,0 -16.913,0 h -0.681 c -0.825,0 -1.456,0.632 -1.456,1.458 v 20.216 c 0,0.778 0.535,1.361 1.361,1.361 h 0.874 c 0.632,0 1.166,-0.583 1.506,-1.069 l 6.513,-9.185 6.561,9.185 c 0.34,0.486 0.826,1.069 1.457,1.069 h 0.875 c 0.826,0 1.361,-0.583 1.361,-1.361 V 1.458 C 1.458,0.632 0.826,0 0,0" /></g></g></g></svg>