<?xml version="1.0" encoding="UTF-8" standalone="no"?>
<svg
   xmlns:dc="http://purl.org/dc/elements/1.1/"
   xmlns:cc="http://creativecommons.org/ns#"
   xmlns:rdf="http://www.w3.org/1999/02/22-rdf-syntax-ns#"
   xmlns:svg="http://www.w3.org/2000/svg"
   xmlns="http://www.w3.org/2000/svg"
   xmlns:sodipodi="http://sodipodi.sourceforge.net/DTD/sodipodi-0.dtd"
   xmlns:inkscape="http://www.inkscape.org/namespaces/inkscape"
   version="1.1"
   id="Layer_1"
   x="0px"
   y="0px"
   width="275.207"
   height="61.819"
   viewBox="0 0 275.20699 61.819"
   enable-background="new 0 0 302.988 70.667"
   xml:space="preserve"
   sodipodi:docname="upf-mtg2.svg"
   inkscape:version="1.0 (4035a4fb49, 2020-05-01)"><metadata
   id="metadata131"><rdf:RDF><cc:Work
       rdf:about=""><dc:format>image/svg+xml</dc:format><dc:type
         rdf:resource="http://purl.org/dc/dcmitype/StillImage" /><dc:title></dc:title></cc:Work></rdf:RDF></metadata><defs
   id="defs129" /><sodipodi:namedview
   lock-margins="true"
   inkscape:document-rotation="0"
   pagecolor="#ffffff"
   bordercolor="#666666"
   borderopacity="1"
   objecttolerance="10"
   gridtolerance="10"
   guidetolerance="10"
   inkscape:pageopacity="0"
   inkscape:pageshadow="2"
   inkscape:window-width="1923"
   inkscape:window-height="1100"
   id="namedview127"
   showgrid="false"
   fit-margin-top="5"
   fit-margin-left="5"
   fit-margin-right="5"
   fit-margin-bottom="5"
   inkscape:zoom="3.4621832"
   inkscape:cx="134.465"
   inkscape:cy="26.5855"
   inkscape:window-x="0"
   inkscape:window-y="0"
   inkscape:window-maximized="0"
   inkscape:current-layer="Layer_1" />
<g
   id="g48"
   transform="translate(-17.029,-8.748)">
	<path
   fill="#c8152f"
   d="M 195.787,30.147 V 25.714 L 194.443,28 h -1.488 l -1.342,-2.286 v 4.433 h -2.326 v -9.256 h 2.285 l 2.127,4.08 2.127,-4.08 h 2.285 v 9.256 z"
   id="path2" />
	<path
   fill="#c8152f"
   d="m 203.789,22.92 v 7.228 h -2.326 V 22.92 h -2.326 v -2.028 h 6.979 v 2.028 z"
   id="path4" />
	<path
   fill="#c8152f"
   d="m 213.156,29.158 c -0.707,0.704 -1.557,1.067 -2.688,1.067 -1.104,0 -1.939,-0.363 -2.631,-1.04 -0.996,-0.977 -0.957,-2.276 -0.957,-3.667 0,-1.394 -0.039,-2.693 0.957,-3.667 0.691,-0.675 1.49,-1.039 2.631,-1.039 1.357,0 2.074,0.311 2.925,1.143 l -1.581,1.547 c -0.451,-0.44 -0.745,-0.661 -1.344,-0.661 -0.424,0 -0.743,0.181 -0.915,0.403 -0.214,0.271 -0.347,0.584 -0.347,2.274 0,1.689 0.133,2.015 0.347,2.288 0.172,0.222 0.491,0.391 0.915,0.391 0.492,0 0.744,-0.146 0.959,-0.363 0.252,-0.248 0.346,-0.704 0.346,-1.016 v -0.104 h -1.305 v -1.898 h 3.617 v 1.247 c 0,1.498 -0.213,2.38 -0.929,3.095 z"
   id="path6" />
	<path
   fill="#c8152f"
   d="m 196.314,45.524 v -7.038 l -2.592,5.582 h -0.863 l -2.631,-5.582 v 7.038 h -1.011 v -9.261 h 1.011 l 3.084,6.567 3.002,-6.567 h 1.01 v 9.261 z"
   id="path8" />
	<path
   fill="#c8152f"
   d="m 203.609,45.524 v -0.716 c -0.229,0.26 -0.5,0.456 -0.815,0.594 -0.312,0.132 -0.655,0.201 -1.026,0.201 -0.715,0 -1.275,-0.199 -1.682,-0.599 -0.229,-0.226 -0.396,-0.487 -0.502,-0.789 -0.107,-0.297 -0.16,-0.633 -0.16,-1.007 v -4.083 h 0.957 v 3.941 c 0,0.57 0.141,0.999 0.424,1.28 0.283,0.281 0.67,0.422 1.164,0.422 0.494,0 0.889,-0.145 1.184,-0.43 0.297,-0.285 0.444,-0.71 0.444,-1.272 v -3.941 h 0.969 v 6.398 h -0.957 z"
   id="path10" />
	<path
   fill="#c8152f"
   d="m 211.179,44.478 c -0.129,0.238 -0.311,0.443 -0.546,0.612 -0.234,0.167 -0.514,0.295 -0.836,0.382 -0.323,0.088 -0.685,0.132 -1.083,0.132 -0.559,0 -1.056,-0.071 -1.489,-0.209 -0.435,-0.14 -0.833,-0.378 -1.195,-0.716 l 0.638,-0.624 c 0.258,0.27 0.558,0.461 0.902,0.57 0.347,0.114 0.723,0.172 1.131,0.172 0.541,0 0.967,-0.095 1.275,-0.279 0.311,-0.188 0.465,-0.473 0.465,-0.853 0,-0.277 -0.086,-0.495 -0.258,-0.65 -0.174,-0.158 -0.451,-0.252 -0.83,-0.288 l -1.076,-0.09 c -0.64,-0.052 -1.123,-0.219 -1.457,-0.5 -0.332,-0.281 -0.498,-0.687 -0.498,-1.217 0,-0.295 0.061,-0.557 0.18,-0.787 0.121,-0.229 0.285,-0.425 0.498,-0.586 0.213,-0.159 0.467,-0.283 0.765,-0.37 0.296,-0.086 0.616,-0.13 0.963,-0.13 0.47,0 0.905,0.056 1.31,0.17 0.402,0.111 0.75,0.285 1.042,0.519 l -0.624,0.612 c -0.23,-0.173 -0.493,-0.301 -0.789,-0.384 -0.299,-0.081 -0.615,-0.122 -0.951,-0.122 -0.479,0 -0.842,0.093 -1.09,0.277 -0.248,0.188 -0.373,0.447 -0.373,0.775 0,0.278 0.086,0.493 0.26,0.65 0.173,0.155 0.467,0.25 0.885,0.285 l 1.049,0.09 c 0.283,0.028 0.545,0.075 0.783,0.145 0.24,0.07 0.443,0.173 0.611,0.312 0.168,0.138 0.299,0.311 0.393,0.52 0.093,0.21 0.141,0.46 0.141,0.755 -0.002,0.314 -0.069,0.589 -0.196,0.827 z"
   id="path12" />
	<path
   fill="#c8152f"
   d="M 212.835,37.305 V 36.25 h 1.077 v 1.055 z m 0.053,8.219 v -6.398 h 0.957 v 6.398 z"
   id="path14" />
	<path
   fill="#c8152f"
   d="m 219.59,45.395 c -0.323,0.138 -0.712,0.209 -1.163,0.209 -0.417,0 -0.799,-0.069 -1.148,-0.201 -0.35,-0.138 -0.657,-0.34 -0.918,-0.613 -0.262,-0.271 -0.465,-0.616 -0.611,-1.027 -0.146,-0.411 -0.219,-0.891 -0.219,-1.438 0,-0.545 0.072,-1.021 0.219,-1.429 0.146,-0.407 0.35,-0.75 0.611,-1.023 0.261,-0.271 0.568,-0.478 0.918,-0.615 0.35,-0.137 0.731,-0.209 1.148,-0.209 0.451,0 0.84,0.071 1.163,0.209 0.323,0.138 0.651,0.386 0.989,0.739 l -0.65,0.599 c -0.248,-0.268 -0.482,-0.455 -0.705,-0.559 -0.221,-0.103 -0.488,-0.158 -0.797,-0.158 -0.319,0 -0.607,0.063 -0.863,0.186 -0.257,0.12 -0.475,0.303 -0.652,0.547 -0.15,0.206 -0.259,0.444 -0.324,0.707 -0.066,0.266 -0.1,0.6 -0.1,1.007 0,0.407 0.033,0.746 0.1,1.01 0.065,0.264 0.174,0.502 0.324,0.708 0.178,0.244 0.396,0.425 0.652,0.545 0.256,0.124 0.544,0.184 0.863,0.184 0.309,0 0.576,-0.054 0.797,-0.162 0.223,-0.109 0.457,-0.297 0.705,-0.566 l 0.65,0.612 c -0.337,0.352 -0.665,0.598 -0.989,0.738 z"
   id="path16" />
	<path
   fill="#c8152f"
   d="m 228.127,37.146 v 8.378 h -1.011 v -8.378 h -2.737 v -0.883 h 6.485 v 0.883 z"
   id="path18" />
	<path
   fill="#c8152f"
   d="m 231.767,42.571 c 0,0.698 0.164,1.239 0.492,1.623 0.328,0.384 0.805,0.575 1.435,0.575 0.38,0 0.697,-0.058 0.95,-0.174 0.254,-0.118 0.508,-0.303 0.764,-0.555 l 0.651,0.561 c -0.168,0.163 -0.335,0.312 -0.497,0.433 -0.164,0.124 -0.34,0.227 -0.525,0.312 -0.186,0.082 -0.393,0.147 -0.619,0.192 -0.227,0.041 -0.477,0.065 -0.75,0.065 -0.434,0 -0.826,-0.065 -1.176,-0.195 -0.35,-0.13 -0.649,-0.33 -0.896,-0.6 -0.248,-0.27 -0.441,-0.608 -0.579,-1.02 -0.137,-0.413 -0.206,-0.9 -0.206,-1.466 0,-1.04 0.24,-1.846 0.718,-2.418 0.479,-0.573 1.135,-0.858 1.966,-0.858 0.852,0 1.51,0.277 1.981,0.83 0.47,0.558 0.703,1.312 0.703,2.266 v 0.429 z m 3.429,-1.038 c -0.009,-0.099 -0.021,-0.184 -0.032,-0.262 -0.014,-0.079 -0.031,-0.155 -0.055,-0.229 -0.022,-0.07 -0.051,-0.151 -0.086,-0.24 -0.123,-0.295 -0.323,-0.529 -0.598,-0.702 -0.275,-0.171 -0.585,-0.258 -0.932,-0.258 -0.345,0 -0.654,0.087 -0.93,0.258 -0.273,0.173 -0.473,0.407 -0.598,0.702 -0.07,0.176 -0.12,0.332 -0.146,0.47 -0.025,0.14 -0.043,0.336 -0.053,0.598 h 3.455 c -0.008,-0.131 -0.017,-0.243 -0.025,-0.337 z"
   id="path20" />
	<path
   fill="#c8152f"
   d="m 241.646,45.395 c -0.322,0.138 -0.709,0.209 -1.161,0.209 -0.417,0 -0.8,-0.069 -1.151,-0.201 -0.349,-0.138 -0.654,-0.34 -0.914,-0.613 -0.264,-0.271 -0.467,-0.616 -0.612,-1.027 -0.146,-0.411 -0.22,-0.891 -0.22,-1.438 0,-0.545 0.073,-1.021 0.22,-1.429 0.146,-0.407 0.349,-0.75 0.612,-1.023 0.26,-0.271 0.565,-0.478 0.914,-0.615 0.352,-0.138 0.734,-0.209 1.151,-0.209 0.452,0 0.839,0.071 1.161,0.209 0.324,0.138 0.654,0.386 0.99,0.739 l -0.65,0.599 c -0.249,-0.268 -0.482,-0.455 -0.703,-0.559 -0.223,-0.103 -0.487,-0.158 -0.798,-0.158 -0.319,0 -0.606,0.063 -0.864,0.186 -0.258,0.12 -0.474,0.303 -0.65,0.547 -0.15,0.206 -0.259,0.444 -0.326,0.707 -0.066,0.266 -0.1,0.6 -0.1,1.007 0,0.407 0.033,0.746 0.1,1.01 0.067,0.264 0.176,0.502 0.326,0.708 0.177,0.244 0.393,0.425 0.65,0.545 0.258,0.124 0.545,0.184 0.864,0.184 0.311,0 0.575,-0.054 0.798,-0.162 0.221,-0.109 0.454,-0.297 0.703,-0.566 l 0.65,0.612 c -0.336,0.352 -0.666,0.598 -0.99,0.738 z"
   id="path22" />
	<path
   fill="#c8152f"
   d="m 248.314,45.524 v -3.956 c 0,-0.56 -0.143,-0.984 -0.426,-1.266 -0.284,-0.281 -0.674,-0.426 -1.169,-0.426 -0.497,0 -0.893,0.146 -1.19,0.432 -0.297,0.285 -0.445,0.708 -0.445,1.26 v 3.956 h -0.957 v -9.261 h 0.957 v 3.562 c 0.469,-0.52 1.082,-0.779 1.834,-0.779 0.744,0 1.322,0.213 1.734,0.638 0.412,0.425 0.619,1.001 0.619,1.73 v 4.109 h -0.957 z"
   id="path24" />
	<path
   fill="#c8152f"
   d="m 255.428,45.524 v -3.94 c 0,-0.571 -0.144,-1 -0.432,-1.281 -0.288,-0.281 -0.681,-0.426 -1.176,-0.426 -0.495,0 -0.892,0.146 -1.183,0.432 -0.293,0.285 -0.438,0.712 -0.438,1.275 v 3.94 h -0.957 v -6.398 h 0.957 v 0.7 c 0.23,-0.258 0.5,-0.454 0.811,-0.584 0.31,-0.132 0.651,-0.195 1.022,-0.195 0.709,0 1.267,0.199 1.674,0.599 0.453,0.435 0.678,1.026 0.678,1.781 v 4.098 h -0.956 z"
   id="path26" />
	<path
   fill="#c8152f"
   d="m 263.234,43.723 c -0.102,0.438 -0.316,0.82 -0.645,1.152 -0.229,0.225 -0.499,0.403 -0.811,0.533 -0.311,0.13 -0.663,0.195 -1.062,0.195 -0.398,0 -0.754,-0.065 -1.062,-0.195 -0.31,-0.13 -0.58,-0.309 -0.811,-0.533 -0.169,-0.165 -0.304,-0.346 -0.405,-0.541 -0.103,-0.196 -0.183,-0.399 -0.239,-0.611 -0.059,-0.211 -0.098,-0.435 -0.119,-0.671 -0.023,-0.232 -0.034,-0.475 -0.034,-0.729 0,-0.241 0.011,-0.483 0.034,-0.722 0.021,-0.238 0.061,-0.462 0.119,-0.676 0.057,-0.212 0.137,-0.417 0.239,-0.611 0.102,-0.195 0.236,-0.374 0.405,-0.539 0.23,-0.227 0.501,-0.403 0.811,-0.533 0.309,-0.132 0.664,-0.195 1.062,-0.195 0.399,0 0.752,0.063 1.062,0.195 0.312,0.13 0.581,0.307 0.811,0.533 0.328,0.328 0.543,0.714 0.645,1.15 0.103,0.438 0.152,0.904 0.152,1.397 0,0.497 -0.05,0.964 -0.152,1.401 z m -0.817,-1.945 c -0.008,-0.183 -0.031,-0.359 -0.066,-0.534 -0.035,-0.173 -0.089,-0.336 -0.16,-0.487 -0.07,-0.149 -0.164,-0.287 -0.279,-0.409 -0.318,-0.312 -0.717,-0.471 -1.195,-0.471 -0.469,0 -0.865,0.158 -1.184,0.471 -0.123,0.122 -0.217,0.26 -0.284,0.409 -0.067,0.151 -0.121,0.314 -0.159,0.487 -0.041,0.175 -0.064,0.352 -0.074,0.534 -0.009,0.182 -0.013,0.364 -0.013,0.545 0,0.184 0.004,0.364 0.013,0.548 0.01,0.181 0.033,0.359 0.074,0.532 0.038,0.174 0.092,0.339 0.159,0.494 0.067,0.157 0.161,0.293 0.284,0.403 0.318,0.312 0.715,0.469 1.184,0.469 0.479,0 0.877,-0.156 1.195,-0.469 0.115,-0.11 0.209,-0.246 0.279,-0.403 0.071,-0.155 0.125,-0.32 0.16,-0.494 0.035,-0.173 0.059,-0.352 0.066,-0.532 0.008,-0.184 0.014,-0.364 0.014,-0.548 0,-0.18 -0.006,-0.363 -0.014,-0.545 z"
   id="path28" />
	<path
   fill="#c8152f"
   d="m 266.728,45.524 c -0.575,0 -0.995,-0.161 -1.261,-0.488 -0.267,-0.324 -0.398,-0.729 -0.398,-1.218 v -7.555 h 0.957 v 7.518 c 0,0.311 0.062,0.547 0.185,0.702 0.124,0.158 0.354,0.234 0.691,0.234 h 0.518 v 0.807 z"
   id="path30" />
	<path
   fill="#c8152f"
   d="m 273.589,43.723 c -0.101,0.438 -0.316,0.82 -0.645,1.152 -0.23,0.225 -0.5,0.403 -0.811,0.533 -0.311,0.13 -0.664,0.195 -1.062,0.195 -0.398,0 -0.754,-0.065 -1.062,-0.195 -0.311,-0.13 -0.58,-0.309 -0.811,-0.533 -0.169,-0.165 -0.304,-0.346 -0.406,-0.541 -0.102,-0.196 -0.182,-0.399 -0.238,-0.611 -0.059,-0.211 -0.098,-0.435 -0.121,-0.671 -0.021,-0.232 -0.031,-0.475 -0.031,-0.729 0,-0.241 0.01,-0.483 0.031,-0.722 0.023,-0.238 0.062,-0.462 0.121,-0.676 0.057,-0.212 0.137,-0.417 0.238,-0.611 0.103,-0.195 0.237,-0.374 0.406,-0.539 0.23,-0.227 0.5,-0.403 0.811,-0.533 0.309,-0.132 0.664,-0.195 1.062,-0.195 0.398,0 0.752,0.063 1.062,0.195 0.311,0.13 0.58,0.307 0.811,0.533 0.328,0.328 0.544,0.714 0.645,1.15 0.104,0.438 0.153,0.904 0.153,1.397 10e-4,0.497 -0.049,0.964 -0.153,1.401 z m -0.816,-1.945 c -0.01,-0.183 -0.031,-0.359 -0.066,-0.534 -0.036,-0.173 -0.088,-0.336 -0.16,-0.487 -0.07,-0.149 -0.164,-0.287 -0.278,-0.409 -0.319,-0.312 -0.718,-0.471 -1.196,-0.471 -0.471,0 -0.864,0.158 -1.184,0.471 -0.123,0.122 -0.218,0.26 -0.285,0.409 -0.066,0.151 -0.119,0.314 -0.159,0.487 -0.04,0.175 -0.063,0.352 -0.073,0.534 -0.008,0.182 -0.014,0.364 -0.014,0.545 0,0.184 0.006,0.364 0.014,0.548 0.01,0.181 0.033,0.359 0.073,0.532 0.04,0.174 0.093,0.339 0.159,0.494 0.067,0.157 0.162,0.293 0.285,0.403 0.319,0.312 0.713,0.469 1.184,0.469 0.479,0 0.877,-0.156 1.196,-0.469 0.114,-0.11 0.208,-0.246 0.278,-0.403 0.072,-0.155 0.124,-0.32 0.16,-0.494 0.035,-0.173 0.057,-0.352 0.066,-0.532 0.008,-0.184 0.013,-0.364 0.013,-0.548 0,-0.18 -0.005,-0.363 -0.013,-0.545 z"
   id="path32" />
	<path
   fill="#c8152f"
   d="m 280.161,46.819 c -0.125,0.332 -0.301,0.621 -0.532,0.863 -0.23,0.244 -0.516,0.435 -0.856,0.574 -0.341,0.138 -0.726,0.207 -1.149,0.207 -0.248,0 -0.471,-0.016 -0.664,-0.048 -0.195,-0.029 -0.379,-0.078 -0.551,-0.151 -0.174,-0.068 -0.342,-0.159 -0.506,-0.27 -0.164,-0.111 -0.33,-0.244 -0.498,-0.403 l 0.623,-0.598 c 0.117,0.104 0.229,0.194 0.339,0.273 0.111,0.078 0.227,0.146 0.347,0.2 0.119,0.058 0.25,0.099 0.393,0.124 0.141,0.027 0.305,0.04 0.491,0.04 0.319,0 0.591,-0.052 0.816,-0.154 0.227,-0.104 0.412,-0.241 0.558,-0.415 0.146,-0.169 0.253,-0.375 0.318,-0.609 0.067,-0.236 0.102,-0.494 0.102,-0.768 v -0.993 c -0.266,0.324 -0.549,0.543 -0.852,0.653 -0.3,0.11 -0.629,0.165 -0.983,0.165 -0.335,0 -0.64,-0.051 -0.909,-0.153 -0.271,-0.106 -0.494,-0.244 -0.671,-0.419 -0.329,-0.321 -0.543,-0.717 -0.644,-1.183 -0.103,-0.468 -0.154,-0.962 -0.154,-1.483 0,-0.52 0.052,-1.013 0.154,-1.482 0.101,-0.47 0.314,-0.861 0.644,-1.185 0.177,-0.173 0.402,-0.309 0.677,-0.409 0.274,-0.1 0.58,-0.149 0.918,-0.149 0.361,0 0.692,0.054 0.99,0.164 0.295,0.107 0.578,0.33 0.842,0.666 v -0.751 h 0.945 v 6.595 c -0.002,0.396 -0.064,0.766 -0.188,1.099 z m -0.825,-5.42 c -0.034,-0.291 -0.111,-0.548 -0.226,-0.771 -0.115,-0.223 -0.279,-0.401 -0.492,-0.541 -0.212,-0.14 -0.496,-0.211 -0.85,-0.211 -0.354,0 -0.641,0.071 -0.858,0.211 -0.216,0.14 -0.382,0.318 -0.497,0.541 -0.115,0.223 -0.191,0.479 -0.227,0.771 -0.036,0.292 -0.053,0.584 -0.053,0.879 0,0.305 0.018,0.603 0.053,0.888 0.035,0.287 0.111,0.541 0.227,0.763 0.115,0.223 0.281,0.403 0.497,0.541 0.218,0.14 0.504,0.209 0.858,0.209 0.354,0 0.638,-0.069 0.85,-0.209 0.213,-0.138 0.377,-0.318 0.492,-0.541 0.114,-0.222 0.191,-0.476 0.226,-0.763 0.036,-0.285 0.054,-0.583 0.054,-0.888 0,-0.295 -0.017,-0.588 -0.054,-0.879 z"
   id="path34" />
	<path
   fill="#c8152f"
   d="m 284.263,47.072 c -0.125,0.339 -0.28,0.591 -0.467,0.754 -0.178,0.165 -0.376,0.281 -0.596,0.347 -0.223,0.062 -0.449,0.096 -0.68,0.096 h -0.412 v -0.832 h 0.293 c 0.327,0 0.562,-0.059 0.704,-0.175 0.142,-0.118 0.266,-0.323 0.372,-0.618 l 0.465,-1.249 -2.352,-6.269 h 1.036 l 1.794,5.136 1.781,-5.136 h 1.035 z"
   id="path36" />
	<path
   fill="#c8152f"
   d="m 195.656,57.072 c -0.125,0.376 -0.332,0.716 -0.624,1.02 -0.337,0.355 -0.72,0.623 -1.149,0.801 -0.43,0.179 -0.89,0.268 -1.375,0.268 -0.471,0 -0.912,-0.083 -1.322,-0.248 -0.412,-0.164 -0.777,-0.403 -1.096,-0.717 -0.223,-0.216 -0.393,-0.44 -0.513,-0.677 -0.119,-0.233 -0.208,-0.495 -0.266,-0.786 -0.058,-0.289 -0.091,-0.62 -0.1,-0.988 -0.01,-0.367 -0.014,-0.801 -0.014,-1.294 0,-0.496 0.004,-0.925 0.014,-1.293 0.009,-0.371 0.042,-0.7 0.1,-0.989 0.058,-0.291 0.146,-0.555 0.266,-0.789 0.12,-0.232 0.29,-0.458 0.513,-0.675 0.654,-0.642 1.461,-0.962 2.418,-0.962 0.451,0 0.865,0.065 1.242,0.201 0.377,0.134 0.707,0.326 0.99,0.572 0.283,0.246 0.516,0.539 0.697,0.879 0.182,0.337 0.308,0.709 0.379,1.118 h -1.01 c -0.133,-0.591 -0.402,-1.053 -0.805,-1.386 -0.404,-0.334 -0.901,-0.501 -1.494,-0.501 -0.311,0 -0.609,0.059 -0.897,0.175 -0.288,0.118 -0.533,0.281 -0.737,0.488 -0.15,0.147 -0.27,0.307 -0.359,0.476 -0.088,0.167 -0.154,0.37 -0.198,0.604 -0.045,0.234 -0.075,0.52 -0.087,0.853 -0.014,0.332 -0.02,0.745 -0.02,1.229 0,0.485 0.006,0.895 0.02,1.229 0.012,0.334 0.042,0.619 0.087,0.859 0.044,0.238 0.11,0.442 0.198,0.61 0.09,0.169 0.209,0.328 0.359,0.476 0.204,0.207 0.449,0.368 0.737,0.48 0.288,0.112 0.587,0.169 0.897,0.169 0.345,0 0.676,-0.067 0.99,-0.2 0.313,-0.137 0.582,-0.335 0.803,-0.593 0.194,-0.227 0.332,-0.472 0.412,-0.735 0.079,-0.266 0.119,-0.581 0.119,-0.944 v -0.7 h -2.324 v -0.874 h 3.335 V 55.7 c 0,0.536 -0.061,0.992 -0.186,1.372 z"
   id="path38" />
	<path
   fill="#c8152f"
   d="m 201.341,53.903 c -0.178,-0.173 -0.345,-0.293 -0.504,-0.364 -0.16,-0.068 -0.369,-0.104 -0.626,-0.104 -0.239,0 -0.455,0.046 -0.649,0.132 -0.195,0.087 -0.359,0.207 -0.492,0.364 -0.135,0.155 -0.237,0.336 -0.312,0.545 -0.075,0.211 -0.113,0.435 -0.113,0.677 v 3.929 h -0.957 v -6.399 h 0.957 v 0.779 c 0.177,-0.268 0.432,-0.479 0.764,-0.632 0.332,-0.149 0.689,-0.227 1.07,-0.227 0.309,0 0.592,0.044 0.844,0.13 0.252,0.087 0.494,0.244 0.725,0.471 z"
   id="path40" />
	<path
   fill="#c8152f"
   d="m 207.922,57.279 c -0.102,0.438 -0.317,0.82 -0.646,1.152 -0.23,0.225 -0.5,0.403 -0.811,0.533 -0.309,0.128 -0.664,0.195 -1.062,0.195 -0.396,0 -0.752,-0.067 -1.062,-0.195 -0.311,-0.13 -0.58,-0.309 -0.811,-0.533 -0.168,-0.165 -0.303,-0.346 -0.404,-0.541 -0.103,-0.196 -0.182,-0.399 -0.239,-0.611 -0.06,-0.213 -0.099,-0.438 -0.121,-0.671 -0.021,-0.232 -0.032,-0.475 -0.032,-0.729 0,-0.241 0.011,-0.483 0.032,-0.722 0.022,-0.238 0.062,-0.462 0.121,-0.677 0.058,-0.213 0.137,-0.415 0.239,-0.611 0.102,-0.195 0.236,-0.374 0.404,-0.537 0.23,-0.229 0.5,-0.403 0.811,-0.533 0.311,-0.132 0.666,-0.197 1.062,-0.197 0.398,0 0.754,0.065 1.062,0.197 0.311,0.13 0.58,0.305 0.811,0.533 0.328,0.328 0.544,0.712 0.646,1.148 0.103,0.438 0.153,0.905 0.153,1.398 0.001,0.498 -0.05,0.962 -0.153,1.401 z m -0.817,-1.944 c -0.009,-0.183 -0.031,-0.359 -0.066,-0.535 -0.035,-0.173 -0.088,-0.334 -0.159,-0.487 -0.071,-0.149 -0.163,-0.287 -0.279,-0.409 -0.318,-0.313 -0.717,-0.469 -1.196,-0.469 -0.47,0 -0.863,0.155 -1.182,0.469 -0.124,0.122 -0.22,0.26 -0.285,0.409 -0.067,0.153 -0.121,0.314 -0.16,0.487 -0.039,0.176 -0.064,0.353 -0.072,0.535 -0.01,0.182 -0.015,0.364 -0.015,0.545 0,0.184 0.005,0.364 0.015,0.547 0.008,0.182 0.033,0.36 0.072,0.533 0.039,0.174 0.093,0.339 0.16,0.494 0.065,0.155 0.161,0.291 0.285,0.403 0.318,0.312 0.712,0.468 1.182,0.468 0.479,0 0.878,-0.155 1.196,-0.468 0.116,-0.112 0.208,-0.248 0.279,-0.403 0.071,-0.155 0.124,-0.32 0.159,-0.494 0.035,-0.173 0.058,-0.352 0.066,-0.533 0.009,-0.183 0.015,-0.363 0.015,-0.547 0,-0.181 -0.006,-0.363 -0.015,-0.545 z"
   id="path42" />
	<path
   fill="#c8152f"
   d="m 213.901,59.081 v -0.716 c -0.228,0.26 -0.499,0.456 -0.814,0.592 -0.313,0.134 -0.655,0.203 -1.026,0.203 -0.715,0 -1.275,-0.201 -1.682,-0.599 -0.229,-0.227 -0.398,-0.487 -0.502,-0.789 -0.107,-0.299 -0.16,-0.633 -0.16,-1.007 v -4.084 h 0.956 v 3.942 c 0,0.57 0.142,0.999 0.425,1.28 0.283,0.281 0.669,0.421 1.164,0.421 0.494,0 0.889,-0.144 1.184,-0.429 0.297,-0.287 0.444,-0.71 0.444,-1.272 v -3.942 h 0.969 v 6.399 h -0.958 z"
   id="path44" />
	<path
   fill="#c8152f"
   d="m 222.038,56.636 c -0.021,0.25 -0.062,0.496 -0.12,0.733 -0.057,0.238 -0.138,0.463 -0.238,0.671 -0.104,0.209 -0.236,0.396 -0.404,0.559 -0.178,0.174 -0.404,0.312 -0.678,0.411 -0.275,0.099 -0.582,0.15 -0.918,0.15 -0.363,0 -0.695,-0.058 -0.997,-0.172 -0.3,-0.11 -0.584,-0.332 -0.85,-0.663 v 3.618 h -0.956 v -9.262 h 0.956 v 0.753 c 0.266,-0.338 0.55,-0.561 0.85,-0.669 0.302,-0.107 0.634,-0.163 0.997,-0.163 0.336,0 0.643,0.05 0.918,0.151 0.273,0.099 0.5,0.234 0.678,0.409 0.168,0.164 0.301,0.351 0.404,0.559 0.101,0.209 0.182,0.432 0.238,0.669 0.059,0.238 0.099,0.484 0.12,0.734 0.022,0.254 0.033,0.506 0.033,0.755 0,0.255 -0.011,0.505 -0.033,0.757 z m -0.976,-1.664 c -0.037,-0.298 -0.11,-0.555 -0.227,-0.781 -0.115,-0.225 -0.281,-0.407 -0.498,-0.547 -0.217,-0.14 -0.504,-0.209 -0.857,-0.209 -0.353,0 -0.639,0.069 -0.857,0.209 -0.217,0.14 -0.383,0.322 -0.498,0.547 -0.115,0.227 -0.193,0.483 -0.232,0.781 -0.04,0.293 -0.06,0.596 -0.06,0.908 0,0.313 0.02,0.618 0.06,0.911 0.039,0.295 0.117,0.557 0.232,0.781 0.115,0.226 0.281,0.407 0.498,0.547 0.219,0.138 0.504,0.206 0.857,0.206 0.353,0 0.641,-0.068 0.857,-0.206 0.217,-0.14 0.383,-0.321 0.498,-0.547 0.116,-0.225 0.189,-0.486 0.227,-0.781 0.035,-0.293 0.052,-0.598 0.052,-0.911 0,-0.313 -0.017,-0.615 -0.052,-0.908 z"
   id="path46" />
</g>
<g
   id="g56"
   transform="translate(-17.029,-8.748)">
	<path
   fill="#c8152f"
   d="m 41.838,43.464 c -0.994,0 -1.348,-0.432 -1.348,-1.461 l 0.035,-8.323 c 0,-0.316 -0.067,-0.484 -0.418,-0.484 -0.092,0 -0.301,0.023 -0.621,0.059 -0.728,0.084 -2.076,0.203 -3.689,0.252 l -0.07,0.004 v 1.041 H 35.8 c 0.849,0 1.414,0.23 1.414,1.219 l -0.032,2.422 c 0,4.015 -1.609,4.792 -2.785,4.792 -0.961,0 -1.32,-0.994 -1.32,-1.83 l 0.047,-7.474 c 0,-0.316 -0.068,-0.484 -0.418,-0.484 -0.091,0 -0.304,0.023 -0.623,0.059 -0.727,0.084 -1.922,0.203 -3.531,0.252 l -0.072,0.004 v 1.041 h 0.074 c 0.852,0 1.414,0.23 1.414,1.219 l -0.045,5.039 c 0,3.284 1.697,3.974 3.121,3.974 2.123,0 3.342,-1.385 4.004,-2.127 0.183,-0.207 0.369,-0.418 0.436,-0.418 0.033,0 0.133,0 0.133,0.156 v 2.041 c 0,0.303 0.204,0.348 0.324,0.348 0.093,0 0.299,-0.027 0.608,-0.072 0.75,-0.1 2.008,-0.203 3.29,-0.203 h 0.075 v -1.043 h -0.076 z"
   id="path50" />
	<path
   fill="#c8152f"
   d="m 63.817,27.551 c -2.896,0 -3.68,4.062 -4.055,6.076 h -2.336 l -0.214,1.043 h 2.392 l -0.156,1.012 c -0.105,0.678 -0.209,1.355 -0.312,2.043 l -0.177,1.166 c -1.019,6.72 -1.532,9.706 -2.644,9.706 -0.125,0 -0.155,-0.037 -0.155,-0.18 0,-0.047 0.015,-0.105 0.032,-0.174 0.029,-0.098 0.059,-0.221 0.059,-0.377 0,-0.461 -0.341,-0.785 -0.828,-0.785 -0.73,0 -1.061,0.525 -1.061,1.016 0,0.906 0.66,1.541 1.61,1.541 1.7,0 3.785,-1.959 5.662,-14.968 h 2.589 l 0.184,-1.043 h -2.64 l 0.22,-1.705 c 0.325,-2.336 0.748,-3.328 1.416,-3.328 0.269,0 0.432,0.135 0.432,0.359 0,0.148 -0.02,0.223 -0.041,0.299 -0.023,0.09 -0.051,0.182 -0.051,0.365 0,0.385 0.24,0.834 0.924,0.834 0.826,0 1.195,-0.637 1.195,-1.268 0,-1.037 -0.744,-1.632 -2.045,-1.632"
   id="path52" />
	<path
   fill="#c8152f"
   d="m 65.459,42.021 c -0.747,0 -1.355,0.609 -1.355,1.359 0,0.746 0.608,1.357 1.355,1.357 0.75,0 1.36,-0.611 1.36,-1.357 10e-4,-0.75 -0.61,-1.359 -1.36,-1.359"
   id="path54" />
</g>
<path
   fill="#c8152f"
   d="M 7.787,54.03 H 54.032 V 7.787 H 7.787 Z m 49.03,2.789 H 5 V 5 h 51.817 z"
   id="path58" />
<g
   id="g124"
   transform="translate(-17.029,-8.748)">
	<path
   fill="#c8152f"
   d="m 53.309,37.395 c 0,1.863 -0.891,5.946 -3.539,5.946 -1.479,0 -2.001,-1.5 -2.001,-2.782 0,-2.482 1.181,-5.924 3.401,-5.924 1.768,0 2.139,1.502 2.139,2.76 m -1.517,-4.2 c -2.08,0 -3.205,1.441 -3.689,2.133 -0.027,-1.377 -0.539,-2.02 -1.606,-2.02 -1.726,0 -2.735,2.355 -3.278,3.623 l -0.029,0.059 0.814,0.461 0.035,-0.068 c 0.037,-0.078 0.084,-0.188 0.146,-0.318 0.353,-0.785 1.087,-2.416 1.849,-2.416 0.416,0 0.478,0.514 0.478,0.82 0,0.439 -0.133,1.135 -0.364,2.186 l -2.155,9.241 c -0.312,1.371 -0.462,1.592 -1.831,1.592 H 42.1 l -0.187,1.041 H 47.7 l 0.24,-1.041 h -0.092 c -1.788,0 -2.085,-0.02 -2.085,-0.705 0,-0.145 0.081,-0.488 0.144,-0.766 l 1.023,-4.334 c 0.557,1.16 1.234,2.1 3.299,2.1 3.55,0 5.441,-3.997 5.441,-6.882 0,-2.342 -1.199,-4.706 -3.878,-4.706"
   id="path60" />
	<path
   fill="#c8152f"
   d="m 81.399,20.883 h 5.156 v 0.627 h -0.326 c -0.901,0 -1.133,0.383 -1.133,0.955 v 4.557 c 0,1.678 0.75,2.564 2.264,2.564 1.406,0 2.143,-0.559 2.498,-1.432 0.162,-0.41 0.191,-1.037 0.191,-1.406 V 23.01 c 0,-1.24 -0.615,-1.5 -1.461,-1.5 v -0.627 h 3.397 v 0.627 c -1.119,0 -1.255,0.504 -1.255,1.5 v 3.738 c 0,2.047 -0.887,3.672 -3.889,3.672 -2.771,0 -4.107,-1.393 -4.107,-3.398 v -3.971 c 0,-1.459 -0.273,-1.541 -1.336,-1.541 v -0.627 z"
   id="path62" />
	<path
   fill="#c8152f"
   d="m 92.083,29.682 c 0.641,0 0.914,-0.191 0.914,-0.873 v -3.711 c 0,-0.668 -0.369,-0.75 -0.982,-0.75 v -0.533 c 1.146,-0.025 2.374,-0.203 2.564,-0.203 0.109,0 0.123,0.096 0.123,0.217 v 0.955 c 0,0.191 0.014,0.287 0.082,0.287 0.15,0 0.723,-1.459 2.169,-1.459 1.337,0 2.005,0.832 2.005,2.25 v 3.152 c 0,0.52 0.287,0.668 0.833,0.668 v 0.533 h -3.52 v -0.533 c 0.423,0 0.804,-0.082 0.804,-0.627 V 25.67 c 0,-0.818 -0.381,-1.076 -0.79,-1.076 -0.696,0 -1.405,0.764 -1.405,2.033 v 2.414 c 0,0.572 0.367,0.641 0.791,0.641 v 0.533 h -3.588 z"
   id="path64" />
	<path
   fill="#c8152f"
   d="m 102.131,20.145 c 0.573,0 1.051,0.465 1.051,1.037 0,0.574 -0.478,1.037 -1.051,1.037 -0.572,0 -1.051,-0.463 -1.051,-1.037 0.001,-0.573 0.479,-1.037 1.051,-1.037 m -1.691,9.537 c 0.641,0 0.982,0 0.982,-0.695 v -3.684 c 0,-0.859 -0.382,-0.955 -0.982,-0.955 v -0.533 c 1.434,-0.055 2.265,-0.203 2.66,-0.203 0.15,0 0.205,0.053 0.205,0.383 v 4.992 c 0,0.695 0.327,0.695 0.9,0.695 v 0.533 h -3.766 v -0.533 z"
   id="path66" />
	<path
   fill="#c8152f"
   d="m 104.321,23.814 h 3.753 v 0.533 c -0.383,0 -0.818,0.055 -0.818,0.531 0,0.314 0.177,0.764 0.477,1.461 l 0.818,1.883 c 0.082,0.191 0.123,0.273 0.165,0.273 0.067,0 0.095,-0.137 0.149,-0.273 l 0.614,-1.557 c 0.19,-0.477 0.45,-1.158 0.45,-1.623 0,-0.49 -0.328,-0.695 -0.859,-0.695 v -0.533 h 2.374 v 0.533 c -0.327,0.041 -0.519,0.164 -0.806,0.873 l -2.061,5.076 h -1.146 l -2.17,-5.062 c -0.312,-0.736 -0.381,-0.887 -0.941,-0.887 v -0.533 z"
   id="path68" />
	<path
   fill="#c8152f"
   d="m 115.404,26.422 c 0.082,0 0.108,-0.041 0.108,-0.137 v -0.273 c 0,-1.215 -0.3,-1.869 -0.929,-1.869 -0.559,0 -0.928,0.6 -0.928,1.938 v 0.342 h 1.749 z m 2.154,1.801 c -0.422,1.377 -1.514,2.197 -2.906,2.197 -1.623,0 -3.097,-1.434 -3.097,-3.398 0,-1.979 1.474,-3.41 3.138,-3.41 1.814,0 2.825,1.418 2.825,3.342 h -3.862 v 0.26 c 0,1.76 0.778,2.375 1.543,2.375 0.969,0 1.459,-0.67 1.746,-1.365 h 0.613 z"
   id="path70" />
	<path
   fill="#c8152f"
   d="m 117.869,29.682 c 0.656,0 1.16,0 1.16,-0.832 v -3.752 c 0,-0.668 -0.367,-0.75 -1.118,-0.75 v -0.533 c 0.981,-0.025 2.483,-0.203 2.634,-0.203 0.096,0 0.122,0.066 0.122,0.191 v 1.117 c 0,0.055 0,0.15 0.068,0.15 0.204,0 0.628,-1.459 1.72,-1.459 0.695,0 1.064,0.477 1.064,1.172 0,0.561 -0.301,1.064 -0.929,1.064 -0.928,0 -0.778,-1.01 -0.969,-1.01 -0.205,0 -0.709,0.588 -0.709,1.924 v 2.088 c 0,0.832 0.478,0.832 1.364,0.832 v 0.533 h -4.408 v -0.532 z"
   id="path72" />
	<path
   fill="#c8152f"
   d="m 128.189,25.535 c -0.287,-0.875 -0.846,-1.393 -1.787,-1.393 -0.572,0 -0.982,0.246 -0.982,0.818 0,1.201 3.643,0.887 3.643,3.371 0,1.186 -0.969,2.086 -2.278,2.086 -0.846,0 -1.351,-0.367 -1.651,-0.367 -0.163,0 -0.312,0.123 -0.367,0.34 h -0.492 c 0.014,-0.367 0.041,-0.736 0.041,-1.104 0,-0.369 -0.027,-0.723 -0.041,-1.092 h 0.519 c 0.15,0.969 0.982,1.691 1.938,1.691 0.641,0 1.077,-0.328 1.077,-0.832 0,-1.637 -3.644,-1.119 -3.644,-3.615 0,-1.174 1.092,-1.828 2.252,-1.828 0.805,0 0.996,0.271 1.351,0.271 0.218,0 0.382,-0.055 0.45,-0.23 h 0.424 c -0.014,0.312 -0.042,0.627 -0.042,0.941 0,0.312 0.028,0.627 0.042,0.941 h -0.453 z"
   id="path74" />
	<path
   fill="#c8152f"
   d="m 131.322,20.145 c 0.572,0 1.051,0.465 1.051,1.037 0,0.574 -0.479,1.037 -1.051,1.037 -0.574,0 -1.051,-0.463 -1.051,-1.037 0,-0.573 0.477,-1.037 1.051,-1.037 m -1.692,9.537 c 0.641,0 0.982,0 0.982,-0.695 v -3.684 c 0,-0.859 -0.383,-0.955 -0.982,-0.955 v -0.533 c 1.432,-0.055 2.264,-0.203 2.66,-0.203 0.149,0 0.204,0.053 0.204,0.383 v 4.992 c 0,0.695 0.327,0.695 0.9,0.695 v 0.533 h -3.765 v -0.533 z"
   id="path76" />
	<path
   fill="#c8152f"
   d="m 133.544,23.896 c 1.35,-0.367 1.992,-1.555 2.414,-2.729 h 0.506 v 2.646 h 1.541 v 0.533 h -1.541 v 4.365 c 0,0.602 0.258,0.725 0.518,0.725 0.437,0 0.668,-0.424 0.859,-0.752 l 0.45,0.205 c -0.382,0.941 -0.996,1.529 -2.061,1.529 -1.118,0 -1.65,-0.588 -1.65,-1.844 v -4.229 h -1.036 z"
   id="path78" />
	<path
   fill="#c8152f"
   d="m 141.685,29.586 c 0.766,0 1.283,-0.682 1.283,-2.059 0,-0.533 0,-0.615 -0.068,-0.615 -0.518,0 -2.033,0.273 -2.033,1.541 0,0.738 0.259,1.133 0.818,1.133 m 3.166,-0.545 c 0,0.287 0.123,0.396 0.328,0.396 0.123,0 0.204,-0.043 0.26,-0.043 0.054,0 0.096,0.055 0.096,0.139 0,0.641 -0.643,0.887 -1.161,0.887 -0.94,0 -1.228,-0.725 -1.364,-0.957 -0.26,0.205 -1.105,0.957 -2.251,0.957 -1.132,0 -1.774,-0.697 -1.774,-1.598 0,-1.91 2.565,-2.279 3.984,-2.348 v -0.9 c 0,-1.021 -0.518,-1.432 -1.474,-1.432 -0.546,0 -0.736,0.137 -0.736,0.301 0,0.285 0.396,0.189 0.396,0.818 0,0.449 -0.272,0.873 -0.955,0.873 -0.586,0 -0.928,-0.49 -0.928,-1.023 0,-0.982 1.064,-1.5 2.388,-1.5 2.36,0 3.192,0.982 3.192,2.852 v 2.578 z"
   id="path80" />
	<path
   fill="#c8152f"
   d="m 145.714,23.896 c 1.35,-0.367 1.992,-1.555 2.414,-2.729 h 0.506 v 2.646 h 1.541 v 0.533 h -1.541 v 4.365 c 0,0.602 0.258,0.725 0.518,0.725 0.437,0 0.669,-0.424 0.859,-0.752 l 0.451,0.205 c -0.383,0.941 -0.997,1.529 -2.061,1.529 -1.119,0 -1.651,-0.588 -1.651,-1.844 v -4.229 h -1.036 z"
   id="path82" />
	<path
   fill="#c8152f"
   d="m 85.232,39.387 c 0,0.109 0.054,0.15 0.231,0.15 1.502,0 2.061,-0.41 2.061,-1.965 0,-0.982 -0.341,-1.746 -1.445,-1.746 -0.561,0 -0.847,0.246 -0.847,0.928 z m -3.589,4.557 h 0.383 c 0.627,0 0.846,-0.314 0.846,-0.75 v -6.399 c 0,-0.887 -0.41,-0.928 -1.229,-0.928 V 35.24 h 4.926 c 2.564,0 3.562,0.982 3.562,2.414 0,2.033 -2.13,2.469 -3.809,2.469 h -0.859 c -0.178,0 -0.231,0.041 -0.231,0.15 v 2.921 c 0,0.695 0.313,0.75 1.282,0.75 h 0.273 v 0.627 h -5.145 v -0.627 z"
   id="path84" />
	<path
   fill="#c8152f"
   d="m 93.588,44.245 c 0.695,0 1.201,-0.355 1.201,-2.865 0,-2.552 -0.588,-2.88 -1.201,-2.88 -0.613,0 -1.201,0.328 -1.201,2.88 0,2.51 0.506,2.865 1.201,2.865 m 0,-6.278 c 1.746,0 3.302,1.434 3.302,3.413 0,1.963 -1.474,3.396 -3.302,3.396 -1.828,0 -3.302,-1.434 -3.302,-3.396 0.001,-1.98 1.556,-3.413 3.302,-3.413"
   id="path86" />
	<path
   fill="#c8152f"
   d="m 97.339,44.04 c 0.45,0 0.832,-0.055 0.832,-0.832 v -3.753 c 0,-0.668 -0.354,-0.75 -0.832,-0.75 v -0.533 c 0.941,-0.055 2.128,-0.205 2.36,-0.205 0.096,0 0.122,0.07 0.122,0.191 v 0.9 c 0,0.232 0,0.369 0.082,0.369 0.178,0 0.696,-1.461 2.183,-1.461 1.721,0 1.748,1.488 1.924,1.488 0.164,0 0.465,-1.488 2.115,-1.488 1.214,0 1.979,0.875 1.979,2.375 v 2.866 c 0,0.682 0.204,0.832 0.818,0.832 v 0.531 h -3.506 v -0.53 c 0.422,0 0.805,-0.055 0.805,-0.832 v -2.661 c 0,-1.201 -0.327,-1.596 -0.887,-1.596 -0.71,0 -1.256,1.076 -1.256,2.292 v 1.965 c 0,0.682 0.205,0.832 0.819,0.832 v 0.531 H 101.39 V 44.04 c 0.424,0 0.805,-0.055 0.805,-0.832 v -2.661 c 0,-1.201 -0.326,-1.596 -0.886,-1.596 -0.71,0 -1.256,1.076 -1.256,2.292 v 1.965 c 0,0.682 0.204,0.832 0.819,0.832 v 0.531 H 97.338 V 44.04 Z"
   id="path88" />
	<path
   fill="#c8152f"
   d="m 113.086,43.944 c 0.832,0 1.2,-0.914 1.2,-2.512 0,-1.882 -0.259,-2.632 -1.172,-2.632 -1.065,0 -1.229,1.418 -1.229,2.632 10e-4,1.489 0.369,2.512 1.201,2.512 m -4.065,2.756 c 0.45,0 0.982,-0.137 0.982,-0.709 v -6.536 c 0,-0.668 -0.369,-0.75 -0.982,-0.75 v -0.533 c 0.9,-0.027 2.346,-0.205 2.496,-0.205 0.096,0 0.123,0.096 0.123,0.191 v 0.67 c 0,0.217 0.027,0.285 0.068,0.285 0.137,0 0.627,-1.146 2.02,-1.146 1.473,0 2.66,1.215 2.66,3.274 0,1.994 -0.969,3.535 -2.688,3.535 -1.27,0 -1.583,-0.859 -1.72,-0.859 -0.067,0 -0.095,0.082 -0.095,0.164 v 1.938 c 0,0.627 0.396,0.682 1.377,0.682 v 0.531 H 109.02 V 46.7 Z"
   id="path90" />
	<path
   fill="#c8152f"
   d="m 121.121,40.777 c 0.083,0 0.109,-0.039 0.109,-0.135 v -0.273 c 0,-1.215 -0.3,-1.869 -0.928,-1.869 -0.559,0 -0.928,0.6 -0.928,1.938 v 0.34 h 1.747 z m 2.156,1.802 c -0.423,1.379 -1.514,2.197 -2.906,2.197 -1.623,0 -3.098,-1.432 -3.098,-3.396 0,-1.979 1.475,-3.413 3.139,-3.413 1.814,0 2.824,1.42 2.824,3.345 h -3.861 v 0.26 c 0,1.76 0.777,2.373 1.543,2.373 0.968,0 1.459,-0.668 1.746,-1.365 h 0.613 z"
   id="path92" />
	<path
   fill="#c8152f"
   d="m 123.625,38.172 c 1.365,-0.041 2.388,-0.205 2.565,-0.205 0.163,0 0.204,0.055 0.204,0.246 v 4.448 c 0,0.643 0.191,1.133 0.736,1.133 0.765,0 1.502,-0.887 1.502,-2.4 v -1.938 c 0,-0.654 -0.424,-0.75 -0.887,-0.75 v -0.533 c 1.364,-0.041 2.387,-0.205 2.564,-0.205 0.164,0 0.204,0.055 0.204,0.246 v 4.954 c 0,0.613 0.204,0.873 0.847,0.873 v 0.531 c -1.078,0 -2.143,0.205 -2.32,0.205 -0.122,0 -0.149,-0.082 -0.149,-0.164 v -1.215 c 0,-0.082 -0.041,-0.135 -0.123,-0.135 -0.218,0 -0.75,1.514 -2.442,1.514 -1.051,0 -1.814,-0.641 -1.814,-2.32 v -3.001 c 0,-0.654 -0.423,-0.75 -0.887,-0.75 z"
   id="path94" />
	<path
   fill="#c8152f"
   d="m 135.644,43.944 h 0.342 c 0.627,0 0.846,-0.314 0.846,-0.75 v -6.399 c 0,-0.887 -0.409,-0.928 -1.188,-0.928 V 35.24 h 8.459 l 0.055,2.852 h -0.627 c -0.164,-1.543 -1.27,-2.266 -2.784,-2.266 -1.378,0 -1.555,0.15 -1.555,0.709 v 2.674 c 0,0.178 0.041,0.232 0.204,0.232 1.133,0 1.828,-0.273 1.828,-1.691 h 0.628 v 4.038 h -0.601 c -0.081,-1.255 -0.477,-1.761 -1.732,-1.761 -0.259,0 -0.327,0.027 -0.327,0.205 v 2.962 c 0,0.695 0.313,0.75 1.282,0.75 h 0.232 v 0.627 h -5.062 z"
   id="path96" />
	<path
   fill="#c8152f"
   d="m 147.16,43.944 c 0.764,0 1.282,-0.682 1.282,-2.061 0,-0.531 0,-0.613 -0.067,-0.613 -0.52,0 -2.033,0.273 -2.033,1.541 -0.001,0.737 0.258,1.133 0.818,1.133 m 3.165,-0.547 c 0,0.287 0.123,0.396 0.327,0.396 0.123,0 0.205,-0.041 0.26,-0.041 0.055,0 0.096,0.055 0.096,0.137 0,0.643 -0.642,0.887 -1.16,0.887 -0.941,0 -1.228,-0.723 -1.363,-0.955 -0.26,0.205 -1.105,0.955 -2.252,0.955 -1.133,0 -1.774,-0.695 -1.774,-1.596 0,-1.91 2.565,-2.28 3.984,-2.349 v -0.9 c 0,-1.021 -0.519,-1.432 -1.474,-1.432 -0.545,0 -0.736,0.137 -0.736,0.301 0,0.285 0.396,0.189 0.396,0.818 0,0.449 -0.273,0.873 -0.955,0.873 -0.587,0 -0.929,-0.492 -0.929,-1.023 0,-0.982 1.065,-1.502 2.389,-1.502 2.359,0 3.192,0.984 3.192,2.852 v 2.579 z"
   id="path98" />
	<path
   fill="#c8152f"
   d="m 155.382,38.801 c -0.859,0 -1.297,0.873 -1.297,2.7 0,1.666 0.438,2.744 1.297,2.744 0.737,0 1.119,-0.779 1.119,-2.512 0,-2.415 -0.41,-2.932 -1.119,-2.932 m -4.188,-4.026 c 1.487,-0.055 2.538,-0.271 2.769,-0.271 0.069,0 0.123,0.039 0.123,0.148 v 3.93 c 0,0.328 0.015,0.396 0.096,0.396 0.15,0 0.438,-1.01 1.787,-1.01 1.692,0 2.634,1.637 2.634,3.356 0,1.883 -1.2,3.451 -3.124,3.451 -1.201,0 -1.788,-1.104 -1.979,-1.104 -0.15,0 -0.709,0.898 -0.832,1.104 h -0.518 c 0.054,-1.037 0.054,-2.32 0.054,-3.89 v -4.652 c 0,-0.736 -0.245,-0.928 -0.888,-0.928 h -0.122 z"
   id="path100" />
	<path
   fill="#c8152f"
   d="m 159.031,44.04 c 0.654,0 1.16,0 1.16,-0.832 v -3.753 c 0,-0.668 -0.369,-0.75 -1.119,-0.75 v -0.533 c 0.982,-0.027 2.482,-0.205 2.633,-0.205 0.096,0 0.123,0.07 0.123,0.191 v 1.119 c 0,0.055 0,0.15 0.068,0.15 0.205,0 0.627,-1.461 1.719,-1.461 0.695,0 1.064,0.479 1.064,1.174 0,0.561 -0.3,1.064 -0.928,1.064 -0.928,0 -0.778,-1.01 -0.969,-1.01 -0.205,0 -0.709,0.588 -0.709,1.925 v 2.088 c 0,0.832 0.477,0.832 1.363,0.832 v 0.531 h -4.406 v -0.53 z"
   id="path102" />
	<path
   fill="#c8152f"
   d="m 167.866,43.944 c 0.764,0 1.282,-0.682 1.282,-2.061 0,-0.531 0,-0.613 -0.068,-0.613 -0.518,0 -2.033,0.273 -2.033,1.541 -0.001,0.737 0.259,1.133 0.819,1.133 m 3.165,-0.547 c 0,0.287 0.123,0.396 0.328,0.396 0.122,0 0.204,-0.041 0.26,-0.041 0.053,0 0.095,0.055 0.095,0.137 0,0.643 -0.642,0.887 -1.16,0.887 -0.94,0 -1.228,-0.723 -1.364,-0.955 -0.26,0.205 -1.105,0.955 -2.252,0.955 -1.131,0 -1.773,-0.695 -1.773,-1.596 0,-1.91 2.565,-2.28 3.984,-2.349 v -0.9 c 0,-1.021 -0.519,-1.432 -1.474,-1.432 -0.546,0 -0.737,0.137 -0.737,0.301 0,0.285 0.396,0.189 0.396,0.818 0,0.449 -0.272,0.873 -0.955,0.873 -0.586,0 -0.928,-0.492 -0.928,-1.023 0,-0.982 1.064,-1.502 2.388,-1.502 2.36,0 3.192,0.984 3.192,2.852 z"
   id="path104" />
	<path
   fill="#c8152f"
   d="m 85.341,53.636 h 1.05 c 1.352,0 3.616,-0.027 3.616,-1.951 0,-1.131 -0.765,-1.473 -2.47,-1.473 -1.323,0 -1.433,0.121 -1.582,0.75 z m -0.75,3.547 c -0.042,0.191 -0.068,0.383 -0.068,0.506 0,0.422 0.108,0.627 1.378,0.627 2.66,0 3.547,-0.695 3.547,-2.182 0,-1.816 -1.732,-1.885 -3.547,-1.885 h -0.682 z m -2.729,1.132 h 0.355 c 0.818,0 0.955,-0.244 1.077,-0.846 l 1.31,-6.072 c 0.068,-0.285 0.109,-0.49 0.109,-0.695 0,-0.383 -0.3,-0.49 -1.051,-0.49 h -0.273 l 0.137,-0.615 h 4.693 c 1.707,0 3.07,0.424 3.07,1.965 0,2.02 -1.938,2.252 -2.633,2.416 v 0.027 c 0.682,0.109 2.224,0.465 2.224,1.99 0,1.461 -1.118,2.934 -4.093,2.934 h -5.062 z"
   id="path106" />
	<path
   fill="#c8152f"
   d="m 94.475,58.479 c 1.432,0 2.195,-3.027 2.195,-4.135 0,-0.572 -0.109,-1.404 -1.023,-1.404 -1.404,0 -2.237,2.947 -2.237,4.092 0,0.697 0.246,1.447 1.065,1.447 M 98.95,57.21 c -0.328,0.736 -1.051,1.924 -1.979,1.924 -0.777,0 -0.846,-0.736 -0.873,-1.188 l -0.027,-0.027 c -0.232,0.262 -0.969,1.215 -2.006,1.215 -1.242,0 -1.773,-1.131 -1.773,-2.332 0,-1.76 1.2,-4.475 3.246,-4.475 1.051,0 1.365,0.777 1.475,1.062 l 0.026,-0.027 0.273,-0.832 h 1.022 c -0.49,1.596 -1.296,4.652 -1.296,5.389 0,0.273 0.082,0.438 0.301,0.438 0.45,0 1.05,-1.092 1.187,-1.432 z"
   id="path108" />
	<path
   fill="#c8152f"
   d="m 100.61,56.868 c 0.367,-1.268 0.709,-2.768 0.709,-3.355 0,-0.299 -0.123,-0.477 -0.3,-0.477 -0.56,0 -1.063,1.322 -1.228,1.65 l -0.41,-0.232 c 0.328,-0.764 0.914,-2.127 1.91,-2.127 0.573,0 0.873,0.463 0.873,1.105 0,0.408 -0.068,0.693 -0.096,0.816 l 0.027,0.029 c 0.328,-0.574 1.078,-1.951 1.992,-1.951 0.6,0 0.914,0.436 0.914,0.967 0,0.67 -0.341,0.928 -0.75,0.928 -0.328,0 -0.6,-0.189 -0.6,-0.49 0,-0.232 0.068,-0.246 0.068,-0.395 0,-0.082 -0.068,-0.139 -0.178,-0.139 -0.396,0 -1.516,1.693 -2.497,5.73 h -1.037 z"
   id="path110" />
	<path
   fill="#c8152f"
   d="m 110.687,57.688 c -0.643,0.791 -1.583,1.445 -2.633,1.445 -2.089,0 -2.757,-1.514 -2.757,-2.729 0,-2.088 1.501,-4.08 3.697,-4.08 0.928,0 2.006,0.451 2.006,1.488 0,0.49 -0.341,0.982 -0.942,0.982 -0.408,0 -0.709,-0.26 -0.709,-0.643 0,-0.627 0.506,-0.639 0.506,-0.912 0,-0.191 -0.355,-0.383 -0.888,-0.383 -1.31,0 -2.387,1.568 -2.387,3.615 0,1.064 0.449,2.006 1.609,2.006 0.847,0 1.624,-0.545 2.101,-1.215 z"
   id="path112" />
	<path
   fill="#c8152f"
   d="m 112.997,55.97 0.026,0.027 c 1.324,-0.205 3.221,-0.941 3.221,-2.266 0,-0.572 -0.369,-0.873 -0.873,-0.873 -1.475,0 -2.293,2.061 -2.374,3.112 m 4.147,1.677 c -0.588,0.531 -1.515,1.486 -3.098,1.486 -1.582,0 -2.333,-1.037 -2.333,-2.441 0,-2.102 1.665,-4.367 3.89,-4.367 0.873,0 1.842,0.328 1.842,1.406 0,1.473 -1.625,2.17 -4.504,2.77 -0.014,0.096 -0.027,0.246 -0.027,0.367 0,0.957 0.465,1.611 1.475,1.611 0.818,0 1.664,-0.504 2.428,-1.242 z"
   id="path114" />
	<path
   fill="#c8152f"
   d="m 118.948,49.271 c 0.996,-0.014 1.801,-0.096 2.442,-0.191 l 0.108,0.15 -1.882,7.572 c -0.109,0.449 -0.205,0.723 -0.205,1.01 0,0.369 0.15,0.545 0.368,0.545 0.587,0 1.228,-1.229 1.46,-1.705 l 0.45,0.205 c -0.354,0.818 -1.146,2.209 -2.169,2.209 -0.818,0 -1.146,-0.559 -1.146,-1.199 0,-0.465 0.164,-1.092 0.383,-1.967 l 0.969,-3.941 c 0.164,-0.682 0.3,-1.297 0.3,-1.637 0,-0.438 -0.231,-0.52 -0.888,-0.52 h -0.312 z"
   id="path116" />
	<path
   fill="#c8152f"
   d="m 125.154,58.603 c 1.855,0 2.455,-2.797 2.455,-3.875 0,-1.078 -0.408,-1.869 -1.555,-1.869 -1.664,0 -2.346,2.605 -2.346,3.971 0,0.927 0.381,1.773 1.446,1.773 m 0.996,-6.278 c 1.65,0 2.66,1.201 2.66,2.811 0,1.967 -1.445,3.998 -3.684,3.998 -1.773,0 -2.619,-1.213 -2.619,-2.66 0,-2.225 1.487,-4.149 3.643,-4.149"
   id="path118" />
	<path
   fill="#c8152f"
   d="m 137.308,56.993 c -0.479,0.887 -1.146,2.072 -2.252,2.072 -0.736,0 -1.051,-0.572 -1.051,-1.309 0,-0.641 0.273,-1.297 0.683,-2.32 0.354,-0.873 0.532,-1.24 0.532,-1.719 0,-0.463 -0.3,-0.682 -0.628,-0.682 -1.187,0 -2.032,1.434 -2.633,3.615 l -0.614,2.277 h -1.092 l 0.602,-2.059 c 0.367,-1.27 0.709,-2.77 0.709,-3.357 0,-0.299 -0.123,-0.477 -0.301,-0.477 -0.559,0 -1.064,1.322 -1.228,1.65 l -0.409,-0.232 c 0.328,-0.764 0.914,-2.127 1.91,-2.127 0.573,0 0.873,0.463 0.873,1.104 0,0.41 -0.068,0.695 -0.096,0.818 l 0.027,0.029 c 0.45,-0.738 1.296,-1.951 2.47,-1.951 0.887,0 1.446,0.586 1.446,1.486 0,0.682 -0.301,1.432 -0.547,2.047 -0.449,1.133 -0.668,1.637 -0.668,2.047 0,0.23 0.123,0.449 0.396,0.449 0.559,0 1.159,-1.158 1.391,-1.609 z"
   id="path120" />
	<path
   fill="#c8152f"
   d="m 140.309,58.479 c 1.433,0 2.196,-3.027 2.196,-4.135 0,-0.572 -0.108,-1.404 -1.023,-1.404 -1.405,0 -2.237,2.947 -2.237,4.092 0,0.697 0.246,1.447 1.064,1.447 m 4.476,-1.269 c -0.328,0.736 -1.051,1.924 -1.979,1.924 -0.777,0 -0.846,-0.736 -0.873,-1.188 l -0.027,-0.027 c -0.232,0.262 -0.969,1.215 -2.006,1.215 -1.242,0 -1.773,-1.131 -1.773,-2.332 0,-1.76 1.201,-4.475 3.246,-4.475 1.052,0 1.365,0.777 1.475,1.062 l 0.027,-0.027 0.272,-0.832 h 1.023 c -0.491,1.596 -1.296,4.652 -1.296,5.389 0,0.273 0.082,0.438 0.299,0.438 0.451,0 1.052,-1.092 1.188,-1.432 z"
   id="path122" />
</g>
</svg>
