<svg data-v-423bf9ae="" xmlns="http://www.w3.org/2000/svg" viewBox="0 0 56.13005445210282 60" class="font"><!----><!----><!----><g data-v-423bf9ae="" id="388759f0-db8b-4842-84d6-189105fa1452" fill="#110000" transform="matrix(6.638819623017085,0,0,6.638819623017085,3.6513510615012947,-24.84410984376637)"><path d="M2.30 3.80L0.75 5.58L0.97 5.67L1.48 5.17L3.16 5.15L3.16 5.15Q2.07 6.05 1.91 6.67L1.91 6.67L1.10 10.60L1.10 10.60Q1.06 11.09-0.55 12.55L-0.55 12.55L-0.52 12.71L3.01 12.78L3.01 12.78Q3.82 12.58 4.29 12.25L4.29 12.25L4.29 12.25Q4.75 11.91 5.30 11.44L5.30 11.44L5.30 11.44Q5.86 10.98 6.81 10.02L6.81 10.02L6.81 10.02Q7.76 9.06 7.89 7.54L7.89 7.54L7.89 7.54Q8.02 6.02 7.01 4.84L7.01 4.84L7.01 4.84Q6.00 3.65 3.84 3.75L3.84 3.75L2.30 3.80ZM3.74 5.11L3.74 5.11Q5.00 5.03 5.78 5.74L5.78 5.74L5.78 5.74Q6.56 6.45 6.65 7.75L6.65 7.75L6.65 7.75Q6.74 9.04 6.14 10.01L6.14 10.01L6.14 10.01Q5.53 10.99 4.97 11.25L4.97 11.25L1.13 11.27L1.13 11.27Q2.19 10.26 2.42 9.58L2.42 9.58L3.21 5.80L3.21 5.80Q3.19 5.16 3.74 5.11L3.74 5.11Z"></path></g><!----><!----></svg>