<?xml version="1.0" encoding="UTF-8" standalone="no"?>
<!-- Created with Inkscape (http://www.inkscape.org/) -->

<svg
   xmlns:dc="http://purl.org/dc/elements/1.1/"
   xmlns:cc="http://creativecommons.org/ns#"
   xmlns:rdf="http://www.w3.org/1999/02/22-rdf-syntax-ns#"
   xmlns:svg="http://www.w3.org/2000/svg"
   xmlns="http://www.w3.org/2000/svg"
   xmlns:sodipodi="http://sodipodi.sourceforge.net/DTD/sodipodi-0.dtd"
   xmlns:inkscape="http://www.inkscape.org/namespaces/inkscape"
   version="1.1"
   id="svg866"
   width="733"
   height="120"
   viewBox="0 0 733 120"
   sodipodi:docname="logo_doa_awal.svg"
   inkscape:version="0.92.4 5da689c313, 2019-01-14">
  <metadata
     id="metadata872">
    <rdf:RDF>
      <cc:Work
         rdf:about="">
        <dc:format>image/svg+xml</dc:format>
        <dc:type
           rdf:resource="http://purl.org/dc/dcmitype/StillImage" />
        <dc:title></dc:title>
      </cc:Work>
    </rdf:RDF>
  </metadata>
  <defs
     id="defs870" />
  <sodipodi:namedview
     pagecolor="#ffffff"
     bordercolor="#666666"
     borderopacity="1"
     objecttolerance="10"
     gridtolerance="10"
     guidetolerance="10"
     inkscape:pageopacity="0"
     inkscape:pageshadow="2"
     inkscape:window-width="640"
     inkscape:window-height="480"
     id="namedview868"
     showgrid="false"
     inkscape:zoom="1.271487"
     inkscape:cx="366.5"
     inkscape:cy="76"
     inkscape:current-layer="svg866" />
  <g
     id="g876"
     transform="matrix(1.0924711,0,0,1.0924711,-43.691049,-22.910592)">
    <path
       style="fill:#000000;fill-opacity:1"
       d="M 47.36544,115.16618 C 43.382068,99.673683 43.22337,97.989103 45.311103,93.359333 c 2.039537,-4.52288 5.35012,-6.60873 11.917948,-7.50895 2.484479,-0.34054 4.517234,-0.92955 4.517234,-1.30892 0,-0.37937 -1.086716,-1.71068 -2.414924,-2.95846 -2.777062,-2.60892 -5.937663,-2.15815 -7.678778,1.09516 -0.758385,1.41705 -1.410248,1.72096 -2.135572,0.99564 -1.455195,-1.4552 2.947423,-9.999 6.471069,-12.55788 2.603099,-1.89038 2.915734,-1.90815 6.180293,-0.35139 1.891174,0.90183 5.323931,4.13694 7.62835,7.18912 l 4.189853,5.54942 h 9.879854 c 10.941086,0 11.252432,-0.23627 7.79176,-5.91288 -1.866556,-3.06175 -1.955685,-3.8591 -0.866301,-7.75 0.667875,-2.38542 1.59428,-4.33712 2.058677,-4.33712 1.667585,0 4.124824,6.43506 4.644139,12.16215 l 0.529357,5.83785 14.111108,-0.0416 14.11111,-0.0416 -3.82715,-3.38104 c -4.96409,-4.38546 -9.59443,-6.53571 -14.07398,-6.53571 -4.38957,0 -4.48471,-0.92149 -0.55696,-5.39495 6.26433,-7.13468 12.15,-5.57898 24.12061,6.37556 4.42415,4.4182 9.12245,8.3038 10.44069,8.63465 2.18977,0.5496 2.39679,1.11043 2.39679,6.49315 v 5.89159 h -43.3185 c -36.078469,0 -44.184501,0.25718 -48.499994,1.53874 -2.849825,0.84631 -5.178063,1.85881 -5.173862,2.25 0.0042,0.39119 0.900764,3.636257 1.992361,7.211257 1.978027,6.47808 2.635132,16.45359 1.229372,18.66311 -0.407797,0.64096 -2.028511,-3.84828 -3.610217,-10 z m 553.99999,0 c -3.98337,-15.492497 -4.14207,-17.177077 -2.05433,-21.806847 2.03953,-4.52288 5.35012,-6.60873 11.91795,-7.50895 2.48447,-0.34054 4.51723,-0.92955 4.51723,-1.30892 0,-0.37937 -1.08672,-1.71068 -2.41492,-2.95846 -2.77707,-2.60892 -5.93767,-2.15815 -7.67878,1.09516 -0.75839,1.41705 -1.41025,1.72096 -2.13557,0.99564 -1.4552,-1.4552 2.94742,-9.999 6.47106,-12.55788 2.6031,-1.89038 2.91574,-1.90815 6.1803,-0.35139 1.89117,0.90183 5.32393,4.13694 7.62835,7.18912 3.84421,5.09162 4.51627,5.54942 8.14663,5.54942 4.71815,0 9.46555,-4.06309 10.43995,-8.93509 0.85664,-4.28323 2.36298,-3.82897 2.36298,0.71259 0,2.07762 0.70052,4.77762 1.5567,6 1.34608,1.92179 2.46604,2.2225 8.2775,2.2225 7.97428,0 10.80647,-1.56768 11.73049,-6.49311 0.35449,-1.8896 1.27245,-3.95676 2.03992,-4.5937 1.16312,-0.96531 1.39539,-0.30129 1.39539,3.98912 0,4.60504 0.27018,5.24992 2.5651,6.12244 4.31673,1.64122 5.75987,1.27113 4.9708,-1.27475 -1.66216,-5.36284 -1.60203,-6.39622 0.52994,-9.10657 2.85881,-3.63439 3.8982,-2.14736 3.91885,5.60657 l 0.0153,5.75 h 10.5 c 11.61189,0 11.89521,-0.19915 8.41191,-5.91288 -1.86656,-3.06175 -1.95569,-3.8591 -0.86631,-7.75 0.66788,-2.38542 1.59428,-4.33712 2.05868,-4.33712 0.4644,0 1.62666,1.4625 2.58281,3.25 1.28122,2.3952 1.8417,6.34042 2.13101,15 l 0.39255,11.75 H 693.0617 c -9.01014,0 -15.88285,-0.51771 -19.54884,-1.47258 -4.97863,-1.29677 -6.07437,-1.29677 -9.17798,0 -3.91329,1.63508 -13.18278,1.95758 -16.79473,0.58431 -1.28498,-0.48854 -2.96276,-2.05876 -3.7284,-3.48937 l -1.39207,-2.60111 -1.4674,2.09501 c -2.52387,3.60333 -7.37217,4.88374 -18.49239,4.88374 -9.74061,0 -20.72509,2.00992 -20.70598,3.78874 0.004,0.39119 0.90076,3.636257 1.99236,7.211257 1.97803,6.47808 2.63513,16.45359 1.22937,18.66311 -0.4078,0.64096 -2.02851,-3.84828 -3.61022,-10 z m -523.339147,-2.39428 -3.220002,-1.60327 2.187698,-3.89248 c 1.612006,-2.86818 2.65671,-3.7452 3.970002,-3.33278 0.980267,0.30783 2.613431,0.81917 3.629252,1.13631 1.383999,0.43207 2.166377,-0.19457 3.12132,-2.5 0.700905,-1.69214 1.467125,-3.076607 1.702712,-3.076607 0.435985,0 6.565402,3.026877 7.148781,3.530267 0.541097,0.46691 -3.813414,8.47178 -4.590085,8.43793 -0.401322,-0.0175 -1.603184,-0.6925 -2.670806,-1.5 -2.693415,-2.0372 -3.143132,-1.88609 -4.55887,1.5318 -1.403213,3.38766 -2.172727,3.53295 -6.720002,1.26883 z m 82.564177,0.33749 c -3.15868,-1.1283 -9.05834,-4.33543 -13.7223,-7.45958 -0.75796,-0.50772 -1.07097,-1.4201 -0.69558,-2.0275 0.47082,-0.76179 1.89409,-0.48627 4.58828,0.8882 7.73926,3.94827 13.87541,2.14439 23.31784,-6.854877 7.05873,-6.72745 7.79858,-10.25483 3.44671,-16.43286 -1.59828,-2.26896 -1.83279,-3.6941 -1.27512,-7.74888 0.37585,-2.73272 1.05041,-5.19543 1.49902,-5.47269 1.07398,-0.66376 4.68576,6.99286 5.5436,11.75187 l 0.67595,3.75 h 7.96817 7.96816 l -0.54609,-2.75 c -0.30035,-1.5125 -1.48885,-8.15 -2.6411,-14.75 -1.23682,-7.08438 -2.68421,-12.45479 -3.53336,-13.11024 -0.7911,-0.61063 -1.42848,-1.96063 -1.4164,-3 0.0321,-2.76135 3.69452,-10.38976 4.98816,-10.38976 0.60935,0 0.83994,0.43359 0.51242,0.96353 -0.62118,1.0051 1.85177,3.78553 4.96483,5.58214 1.45905,0.84205 1.67773,1.76075 1.12297,4.71786 -0.3789,2.0197 -1.3249,4.30818 -2.10223,5.0855 -1.21777,1.21777 -1.07557,3.26314 1.0277,14.78215 1.34256,7.35285 2.44623,15.95632 2.4526,19.11882 l 0.0116,5.75 h -10.34813 -10.34812 l -1.76735,3.91929 c -2.20047,4.879747 -8.98687,11.901547 -13.25428,13.714007 -3.83604,1.62924 -3.80107,1.62936 -8.43794,-0.027 z m 105.00444,0.006 c -9.94962,-2.67999 -13.42178,-7.3546 -12.55586,-16.904087 0.73962,-8.15667 7.97278,-22.89804 10.47623,-21.35082 0.69428,0.42909 -0.13372,2.97672 -2.3483,7.22544 -5.37612,10.3142 -4.58167,15.74856 2.86275,19.582187 3.25943,1.67851 5.919,2.1614 11.71656,2.12734 8.51896,-0.05 13.73742,-1.87163 16.90761,-5.901867 2.7354,-3.4775 2.63958,-6.42086 -0.43183,-13.26528 l -2.52422,-5.62523 1.91374,-5.5 1.91373,-5.5 2.08853,4.5 c 1.14868,2.475 2.0984,5.9625 2.11048,7.75 l 0.022,3.25 h 6.5 c 7.30028,0 8.94957,-1.04057 12.41466,-7.83272 2.32426,-4.55592 7.41481,-9.16728 10.11991,-9.16728 2.22863,0 6.28023,6.52062 7.92225,12.75 l 1.12027,4.25 14.21145,-0.0416 14.21146,-0.0416 -3.82715,-3.38104 c -4.96409,-4.38545 -9.59443,-6.5357 -14.07398,-6.5357 -4.38957,0 -4.48471,-0.92149 -0.55696,-5.39495 6.26433,-7.13468 12.15,-5.57898 24.12061,6.37556 4.42415,4.4182 9.12245,8.3038 10.44069,8.63465 2.18977,0.5496 2.39679,1.11043 2.39679,6.49315 v 5.89159 l -24.25,-0.0148 c -24.74581,-0.0151 -32.87032,-0.9276 -39.69899,-4.45884 -2.55202,-1.3197 -2.99098,-1.30351 -4.20042,0.15486 -2.06245,2.48695 -7.28737,4.31876 -12.31847,4.31876 -4.45094,0 -4.53212,0.0585 -4.53212,3.2656 0,7.660347 -5.49585,12.742327 -15.91738,14.718727 -6.7706,1.28402 -10.39359,1.20096 -16.234,-0.37219 z m 62.15138,-31.056547 c 0,-0.79433 -1.07346,-2.69221 -2.38546,-4.21751 -2.05465,-2.38866 -2.60937,-2.58744 -4,-1.43332 -2.5015,2.07607 -1.92329,4.05741 1.63546,5.60419 4.1516,1.80446 4.75,1.81034 4.75,0.0466 z m 70.84418,31.050547 c -3.15868,-1.1283 -9.05834,-4.33543 -13.7223,-7.45958 -0.75796,-0.50772 -1.07097,-1.4201 -0.69558,-2.0275 0.47082,-0.76179 1.89409,-0.48627 4.58828,0.8882 7.73926,3.94827 13.87541,2.14439 23.31784,-6.854877 7.05873,-6.72745 7.79858,-10.25483 3.44671,-16.43286 -1.59828,-2.26896 -1.83279,-3.6941 -1.27512,-7.74888 0.37585,-2.73272 1.05041,-5.19543 1.49902,-5.47269 1.07398,-0.66376 4.68576,6.99286 5.5436,11.75187 l 0.67595,3.75 h 7.96817 7.96816 l -0.54609,-2.75 c -0.30035,-1.5125 -1.48885,-8.15 -2.6411,-14.75 -1.23682,-7.08438 -2.68421,-12.45479 -3.53336,-13.11024 -0.7911,-0.61063 -1.42848,-1.96063 -1.4164,-3 0.0321,-2.76135 3.69452,-10.38976 4.98816,-10.38976 0.60935,0 0.83994,0.43359 0.51242,0.96353 -0.62118,1.0051 1.85177,3.78553 4.96483,5.58214 1.45905,0.84205 1.67773,1.76075 1.12297,4.71786 -0.3789,2.0197 -1.3249,4.30818 -2.10223,5.0855 -1.21777,1.21777 -1.07557,3.26314 1.0277,14.78215 1.34256,7.35285 2.44623,15.95632 2.4526,19.11882 l 0.0116,5.75 h -10.34813 -10.34812 l -1.76735,3.91929 c -2.20047,4.879747 -8.98687,11.901547 -13.25428,13.714007 -3.83604,1.62924 -3.80107,1.62936 -8.43794,-0.027 z m 294.15085,-1.28787 c -2.47227,-1.44708 -4.6622,-2.76539 -4.86652,-2.92958 -0.20433,-0.16419 0.83789,-2.36219 2.31603,-4.88445 l 2.68753,-4.585917 3.68396,2.200787 c 5.5209,3.29815 5.51984,3.29525 3.0091,8.23556 l -2.33506,4.59466 z M 514.49352,98.518893 c -1.38737,-1.0913 -2.81467,-3.14833 -3.17178,-4.57118 l -0.64929,-2.587 -3.49788,3.07118 c -3.96918,3.48499 -8.29678,3.98862 -13.95579,1.62414 -3.15758,-1.31932 -3.37737,-1.67298 -2.49005,-4.00679 3.12527,-8.22008 7.96368,-14.867 12.05578,-16.562 2.21289,-0.91661 2.96522,-1.89147 2.97542,-3.85549 0.0178,-3.43078 1.02733,-7.12868 1.9461,-7.12868 0.39956,0 1.7411,3.7125 2.9812,8.25 3.78862,13.86253 4.32395,14.75 8.89724,14.75 2.29513,0 4.86252,-0.74681 6.14921,-1.78871 l 2.20896,-1.78871 -2.67348,-8.57479 c -2.35367,-7.54906 -2.53699,-9.08168 -1.53245,-12.81223 0.62756,-2.33059 1.29794,-4.07952 1.48973,-3.8865 0.19179,0.19302 1.96717,5.35906 3.94529,11.48009 1.97812,6.12103 4.52429,12.30853 5.65815,13.75 2.00846,2.55335 6.21871,3.55876 7.33551,1.75173 0.29543,-0.47801 -0.79506,-5.09051 -2.42332,-10.25 -1.62825,-5.15948 -2.96226,-10.50588 -2.96447,-11.88088 -0.005,-3.28188 1.0154,-7 1.92158,-7 0.3958,0 2.42655,5.46874 4.51277,12.15276 3.41167,10.93059 3.72824,12.85095 3.14789,19.09534 -0.9189,9.88701 -1.7631,11.10787 -7.25296,10.48908 -2.44297,-0.27536 -5.27882,-1.25818 -6.3019,-2.18406 -1.34781,-1.21975 -2.05918,-1.36136 -2.58279,-0.51413 -0.97502,1.5776 -8.46213,4.911747 -11.09105,4.939047 -1.16333,0.0121 -3.25026,-0.870917 -4.63762,-1.962217 z m -7.03484,-12.81691 c 1.50236,-0.95473 0.52748,-5.19891 -1.19417,-5.19891 -0.68668,0 -2.49922,0.98381 -4.02786,2.18623 -2.56729,2.01944 -2.6348,2.24296 -0.88485,2.92972 2.52664,0.99157 4.63209,1.02017 6.10688,0.083 z m -292.00855,11.80109 c -0.29868,-0.825 -0.79782,-7.575 -1.10922,-15 -0.31139,-7.425 -1.23581,-16.81892 -2.05426,-20.87539 -1.4272,-7.0736 -1.40073,-7.57845 0.64677,-12.338 1.53215,-3.56156 2.36019,-4.55997 2.93299,-3.53643 1.6206,2.89584 5.1129,31.24872 4.64717,37.72892 -0.4899,6.8166 -4.07633,16.747547 -5.06345,14.0209 z m 238,0 c -0.29868,-0.825 -0.79782,-7.575 -1.10922,-15 -0.31139,-7.425 -1.23581,-16.81892 -2.05426,-20.87539 -1.4272,-7.0736 -1.40073,-7.57845 0.64677,-12.338 1.53215,-3.56156 2.36019,-4.55997 2.93299,-3.53643 1.6206,2.89584 5.1129,31.24872 4.64717,37.72892 -0.4899,6.8166 -4.07633,16.747547 -5.06345,14.0209 z m 108,0 c -0.29868,-0.825 -0.79782,-7.575 -1.10922,-15 -0.31139,-7.425 -1.23581,-16.81892 -2.05426,-20.87539 -1.4272,-7.0736 -1.40073,-7.57845 0.64677,-12.338 1.53215,-3.56156 2.36019,-4.55997 2.93299,-3.53643 1.6206,2.89584 5.1129,31.24872 4.64717,37.72892 -0.4899,6.8166 -4.07633,16.747547 -5.06345,14.0209 z M 273.48379,65.931003 c -4.71223,-2.45279 -4.74733,-2.50771 -3.32621,-5.20344 3.49436,-6.62849 3.81454,-6.78756 8.43517,-4.19062 2.28444,1.28393 4.15353,2.71948 4.15353,3.19011 0,0.89602 -3.87155,8.8103 -4.27032,8.72946 -0.12633,-0.0256 -2.3728,-1.16209 -4.99217,-2.52551 z m 241.86948,-12.00972 c -0.33385,-0.86998 -0.60699,-2.53099 -0.60699,-3.69113 0,-2.06799 0.0283,-2.07128 1.44143,-0.16821 1.89861,2.5568 4.92416,0.87174 5.38354,-2.99833 0.29547,-2.48922 0.4412,-2.57878 1.60539,-0.98666 1.63269,2.23283 4.27608,1.27325 4.85589,-1.76273 0.25881,-1.35514 0.49772,-0.60378 0.57757,1.81641 0.14891,4.51329 -1.73821,7.01836 -4.49125,5.96192 -1.04574,-0.40129 -2.17323,0.10861 -3.06943,1.38812 -1.68924,2.41172 -4.84606,2.65591 -5.69615,0.44061 z m 3.5507,-17.87551 c -1.14963,-1.94848 -2.56655,-3.5427 -3.14872,-3.5427 -1.17943,0 -3.36297,-4.97933 -2.54308,-5.79922 1.00061,-1.00061 4.83861,3.33082 6.76285,7.63233 2.41101,5.38965 1.73597,6.46713 -1.07105,1.70959 z"
       id="path878"
       inkscape:connector-curvature="0" />
  </g>
</svg>
