<?xml version="1.0" encoding="iso-8859-1"?>
<!-- Generator: Adobe Illustrator 16.0.0, SVG Export Plug-In . SVG Version: 6.00 Build 0)  -->
<!DOCTYPE svg PUBLIC "-//W3C//DTD SVG 1.1//EN" "http://www.w3.org/Graphics/SVG/1.1/DTD/svg11.dtd">
<svg version="1.1" id="Capa_1" xmlns="http://www.w3.org/2000/svg" xmlns:xlink="http://www.w3.org/1999/xlink" x="0px" y="0px"
	 width="90px" height="90px" viewBox="0 0 90 90" style="enable-background:new 0 0 90 90;" xml:space="preserve">
<g>
	<path id="YouTube" d="M70.939,65.832H66l0.023-2.869c0-1.275,1.047-2.318,2.326-2.318h0.315c1.282,0,2.332,1.043,2.332,2.318
		L70.939,65.832z M52.413,59.684c-1.253,0-2.278,0.842-2.278,1.873V75.51c0,1.029,1.025,1.869,2.278,1.869
		c1.258,0,2.284-0.84,2.284-1.869V61.557C54.697,60.525,53.671,59.684,52.413,59.684z M82.5,51.879v26.544
		C82.5,84.79,76.979,90,70.23,90H19.771C13.02,90,7.5,84.79,7.5,78.423V51.879c0-6.367,5.52-11.578,12.271-11.578H70.23
		C76.979,40.301,82.5,45.512,82.5,51.879z M23.137,81.305l-0.004-27.961l6.255,0.002v-4.143l-16.674-0.025v4.073l5.205,0.015v28.039
		H23.137z M41.887,57.509h-5.215v14.931c0,2.16,0.131,3.24-0.008,3.621c-0.424,1.158-2.33,2.388-3.073,0.125
		c-0.126-0.396-0.015-1.591-0.017-3.643l-0.021-15.034h-5.186l0.016,14.798c0.004,2.268-0.051,3.959,0.018,4.729
		c0.127,1.357,0.082,2.939,1.341,3.843c2.346,1.69,6.843-0.252,7.968-2.668l-0.01,3.083l4.188,0.005L41.887,57.509L41.887,57.509z
		 M58.57,74.607L58.559,62.18c-0.004-4.736-3.547-7.572-8.356-3.74l0.021-9.239l-5.209,0.008l-0.025,31.89l4.284-0.062l0.39-1.986
		C55.137,84.072,58.578,80.631,58.57,74.607z M74.891,72.96l-3.91,0.021c-0.002,0.155-0.008,0.334-0.01,0.529v2.182
		c0,1.168-0.965,2.119-2.137,2.119h-0.766c-1.174,0-2.139-0.951-2.139-2.119V75.45v-2.4v-3.097h8.954v-3.37
		c0-2.463-0.063-4.925-0.267-6.333c-0.641-4.454-6.893-5.161-10.051-2.881c-0.991,0.712-1.748,1.665-2.188,2.945
		c-0.444,1.281-0.665,3.031-0.665,5.254v7.41C61.714,85.296,76.676,83.555,74.891,72.96z M54.833,32.732
		c0.269,0.654,0.687,1.184,1.254,1.584c0.56,0.394,1.276,0.592,2.134,0.592c0.752,0,1.418-0.203,1.998-0.622
		c0.578-0.417,1.065-1.04,1.463-1.871l-0.099,2.046h5.813V9.74H62.82v19.24c0,1.042-0.858,1.895-1.907,1.895
		c-1.043,0-1.904-0.853-1.904-1.895V9.74h-4.776v16.674c0,2.124,0.039,3.54,0.102,4.258C54.4,31.385,54.564,32.069,54.833,32.732z
		 M37.217,18.77c0-2.373,0.198-4.226,0.591-5.562c0.396-1.331,1.107-2.401,2.137-3.208c1.027-0.811,2.342-1.217,3.941-1.217
		c1.345,0,2.497,0.264,3.459,0.781c0.967,0.52,1.713,1.195,2.23,2.028c0.527,0.836,0.885,1.695,1.076,2.574
		c0.195,0.891,0.291,2.235,0.291,4.048v6.252c0,2.293-0.092,3.98-0.271,5.051c-0.177,1.074-0.557,2.07-1.146,3.004
		c-0.58,0.924-1.329,1.615-2.237,2.056c-0.918,0.445-1.968,0.663-3.154,0.663c-1.325,0-2.441-0.183-3.361-0.565
		c-0.923-0.38-1.636-0.953-2.144-1.714c-0.513-0.762-0.874-1.69-1.092-2.772c-0.219-1.081-0.323-2.707-0.323-4.874L37.217,18.77
		L37.217,18.77z M41.77,28.59c0,1.4,1.042,2.543,2.311,2.543c1.27,0,2.308-1.143,2.308-2.543V15.43c0-1.398-1.038-2.541-2.308-2.541
		c-1.269,0-2.311,1.143-2.311,2.541V28.59z M25.682,35.235h5.484l0.006-18.96l6.48-16.242h-5.998l-3.445,12.064L24.715,0h-5.936
		l6.894,16.284L25.682,35.235z"/>
</g>
<g>
</g>
<g>
</g>
<g>
</g>
<g>
</g>
<g>
</g>
<g>
</g>
<g>
</g>
<g>
</g>
<g>
</g>
<g>
</g>
<g>
</g>
<g>
</g>
<g>
</g>
<g>
</g>
<g>
</g>
</svg>
