<svg xmlns="http://www.w3.org/2000/svg" viewBox="0 0 324.36 82.46"><title>Docker logo</title><path d="M503,522.91a9.94,9.94,0,0,0-.81-4,10.64,10.64,0,0,0-2.21-3.29,10.49,10.49,0,0,0-3.29-2.24,10.37,10.37,0,0,0-8.11,0,10.35,10.35,0,0,0-5.47,5.51,10.32,10.32,0,0,0,0,8,10.35,10.35,0,0,0,5.47,5.51,10.37,10.37,0,0,0,8.11,0,10.49,10.49,0,0,0,3.29-2.24,10.64,10.64,0,0,0,2.21-3.29A9.94,9.94,0,0,0,503,522.91ZM492.64,506.4A16,16,0,0,1,503,510V495.31a3,3,0,0,1,3.07-3.07,3,3,0,0,1,2.2.87,2.93,2.93,0,0,1,.9,2.2v27.6a15.78,15.78,0,0,1-4.84,11.68,16.51,16.51,0,1,1-11.68-28.19Zm53,16.51a15.78,15.78,0,0,1-4.84,11.68,16.39,16.39,0,1,1,3.61-18A17,17,0,0,1,545.68,522.91Zm-16.51-10.35a10,10,0,0,0-4.07.83,10.35,10.35,0,0,0-5.47,5.51,10.32,10.32,0,0,0,0,8,10.35,10.35,0,0,0,5.47,5.51,10.37,10.37,0,0,0,8.11,0,10.49,10.49,0,0,0,3.29-2.24,10.64,10.64,0,0,0,2.21-3.29,10.25,10.25,0,0,0,0-8,10.64,10.64,0,0,0-2.21-3.29,10.49,10.49,0,0,0-3.29-2.24A10,10,0,0,0,529.17,512.56Zm45.14,17.51a3,3,0,0,1,3.07,3.07,3.11,3.11,0,0,1-1,2.27,16.51,16.51,0,1,1,0-25,3,3,0,0,1,1.06,2.33,3,3,0,0,1-.87,2.21,3,3,0,0,1-2.2.88,3.12,3.12,0,0,1-2-.71,11.32,11.32,0,0,0-3.15-1.92,9.75,9.75,0,0,0-3.6-.65,10.12,10.12,0,0,0-4,.81,10.59,10.59,0,0,0-3.3,2.21,10.29,10.29,0,0,0-2.23,3.29,10.47,10.47,0,0,0,0,8.08,10.29,10.29,0,0,0,2.23,3.29,10.59,10.59,0,0,0,3.3,2.21,10.12,10.12,0,0,0,4,.81,10,10,0,0,0,3.6-.63,10.64,10.64,0,0,0,3.13-1.9A3.3,3.3,0,0,1,574.31,530.07Zm6.64,6.25v-41a3.07,3.07,0,0,1,3.1-3.1,3,3,0,0,1,2.17.9,3,3,0,0,1,.9,2.2v23l17.63-11.47a3,3,0,0,1,1.65-.47,3.08,3.08,0,0,1,1.21.24,2.9,2.9,0,0,1,1,.66,3.42,3.42,0,0,1,.66,1,2.86,2.86,0,0,1,.25,1.18,2.75,2.75,0,0,1-1.18,2.45l-12.35,8,12.68,14.27a3.12,3.12,0,0,1,.86,2.15,2.86,2.86,0,0,1-.25,1.18,3.42,3.42,0,0,1-.66,1,2.9,2.9,0,0,1-1,.66,3.08,3.08,0,0,1-1.21.24,2.86,2.86,0,0,1-2.06-.8l-13.62-15.3-3.6,2.36v10.64a3,3,0,0,1-.9,2.18,2.93,2.93,0,0,1-2.17.91,3,3,0,0,1-2.2-.91A3,3,0,0,1,580.95,536.32Zm58.32-16.48a9.88,9.88,0,0,0-1.49-3,10.54,10.54,0,0,0-5.19-3.79,10.15,10.15,0,0,0-3.26-.53,10.28,10.28,0,0,0-3.27.53,10.77,10.77,0,0,0-2.92,1.49,10.21,10.21,0,0,0-2.3,2.3,9.55,9.55,0,0,0-1.44,3Zm-1.33,10.29A3,3,0,0,1,641,533.2a3.06,3.06,0,0,1-.88,2.21,16.51,16.51,0,1,1-10.79-29,16.76,16.76,0,0,1,15.3,10.16,16.51,16.51,0,0,1,1.21,6.35,2.93,2.93,0,0,1-.9,2.2,3,3,0,0,1-2.2.87H619.4a10.08,10.08,0,0,0,1.47,3,10.35,10.35,0,0,0,2.29,2.3,10.59,10.59,0,0,0,2.89,1.49,10.24,10.24,0,0,0,3.29.53,10.37,10.37,0,0,0,3.57-.59,9.77,9.77,0,0,0,3-1.77A3.22,3.22,0,0,1,637.94,530.13Zm17.46-20.67v.59a16.9,16.9,0,0,1,4.81-2.71,16.09,16.09,0,0,1,5.54-.94,23.69,23.69,0,0,1,2.79.18,12.18,12.18,0,0,1,2.74.63,5.82,5.82,0,0,1,2.08,1.25,2.74,2.74,0,0,1,.83,2.06,2.93,2.93,0,0,1-.25,1.21,3.42,3.42,0,0,1-.66,1,2.9,2.9,0,0,1-1,.66,3.08,3.08,0,0,1-1.21.24,3.3,3.3,0,0,1-1.3-.32,10.85,10.85,0,0,0-4-.74,10.12,10.12,0,0,0-4,.81,10.31,10.31,0,0,0-5.5,5.5,10.12,10.12,0,0,0-.81,4v13.44a3.07,3.07,0,0,1-3.07,3.07,3,3,0,0,1-2.2-.9,3,3,0,0,1-.9-2.17V509.46a3,3,0,0,1,.9-2.17,3,3,0,0,1,2.2-.9,3.07,3.07,0,0,1,3.07,3.07Z" transform="translate(-349.82 -470.77)" style="fill:#2496ed"/><path d="M461.73,502.24c-2.57-1.79-8.47-2.45-13.08-1.56-.54-4.46-3-8.37-7.29-11.83l-2.47-1.79-1.72,2.57a21.15,21.15,0,0,0-2.89,12.5,14.91,14.91,0,0,0,2.25,6.81,17.87,17.87,0,0,1-8.68,2H350.34l-.21.89c-.75,4.46-.75,18.41,8,29.12,6.65,8.15,16.51,12.27,29.48,12.27,28.09,0,48.89-13.5,58.64-37.94,3.86.11,12.11,0,16.3-8.37.11-.22.32-.67,1.07-2.34l.43-.89-2.36-1.45ZM412.3,470.77H400.51v11.16H412.3V470.77Zm0,13.39H400.51v11.16H412.3V484.16Zm-13.94,0H386.57v11.16h11.79V484.16Zm-13.94,0H372.64v11.16h11.79V484.16Zm-13.94,13.39H358.7v11.16h11.79V497.55Zm13.94,0H372.64v11.16h11.79V497.55Zm13.94,0H386.57v11.16h11.79V497.55Zm13.94,0H400.51v11.16H412.3V497.55Zm13.94,0H414.45v11.16h11.79V497.55Z" transform="translate(-349.82 -470.77)" style="fill:#2496ed"/></svg>