<?xml version="1.0" encoding="UTF-8" standalone="no"?>
<!-- Created with Inkscape (http://www.inkscape.org/) -->

<svg
   xmlns:dc="http://purl.org/dc/elements/1.1/"
   xmlns:cc="http://creativecommons.org/ns#"
   xmlns:rdf="http://www.w3.org/1999/02/22-rdf-syntax-ns#"
   xmlns:svg="http://www.w3.org/2000/svg"
   xmlns="http://www.w3.org/2000/svg"
   xmlns:sodipodi="http://sodipodi.sourceforge.net/DTD/sodipodi-0.dtd"
   xmlns:inkscape="http://www.inkscape.org/namespaces/inkscape"
   version="1.1"
   id="svg2"
   xml:space="preserve"
   width="390.76279"
   height="390.39478"
   viewBox="0 0 390.7628 390.39478"
   sodipodi:docname="logo-white.svg"
   inkscape:version="0.92.3 (2405546, 2018-03-11)"
   inkscape:export-filename="/home/philtgun/Dropbox/UPF/logos/mip_frontiers_icon_small.png"
   inkscape:export-xdpi="100.0402"
   inkscape:export-ydpi="100.0402"><metadata
     id="metadata8"><rdf:RDF><cc:Work
         rdf:about=""><dc:format>image/svg+xml</dc:format><dc:type
           rdf:resource="http://purl.org/dc/dcmitype/StillImage" /><dc:title></dc:title></cc:Work></rdf:RDF></metadata><defs
     id="defs6"><clipPath
       clipPathUnits="userSpaceOnUse"
       id="clipPath18"><path
         d="M 0,768 H 1366 V 0 H 0 Z"
         id="path16"
         inkscape:connector-curvature="0" /></clipPath></defs><sodipodi:namedview
     pagecolor="#ffffff"
     bordercolor="#666666"
     borderopacity="1"
     objecttolerance="10"
     gridtolerance="10"
     guidetolerance="10"
     inkscape:pageopacity="0"
     inkscape:pageshadow="2"
     inkscape:window-width="1653"
     inkscape:window-height="806"
     id="namedview4"
     showgrid="false"
     fit-margin-top="30"
     fit-margin-right="30"
     fit-margin-bottom="30"
     fit-margin-left="30"
     inkscape:zoom="0.45519378"
     inkscape:cx="26.45591"
     inkscape:cy="-119.1334"
     inkscape:window-x="0"
     inkscape:window-y="0"
     inkscape:window-maximized="0"
     inkscape:current-layer="g14" /><g
     id="g10"
     inkscape:groupmode="layer"
     inkscape:label="mip_frontiers"
     transform="matrix(1.3333333,0,0,-1.3333333,3.0676232,1029.905)"><g
       id="g12"><g
         id="g14"
         clip-path="url(#clipPath18)"><path
           inkscape:connector-curvature="0"
           id="path22"
           style="fill:#ffffff;fill-opacity:1;fill-rule:nonzero;stroke:none"
           d="m 26.661852,502.13272 c -3.663,4.137 -8.616,7.917 -5.453,14.46 2.833,5.865 7.964,7.126 14.195004,7.117 72.385004,-0.14 144.775004,-0.096 217.165004,-0.078 5.8,0 11.818,0.156 14.629,-6.17 2.941,-6.622 -0.565,-11.384 -5.622,-15.329 z" /><path
           inkscape:connector-curvature="0"
           id="path26"
           style="fill:#ffffff;fill-opacity:1;fill-rule:nonzero;stroke:none"
           d="m 67.346856,704.57312 c 4.602,-0.013 9.211,0.178 13.799,-0.061 6.735,-0.348 10.91,-4.818 10.932,-10.788 0.018,-5.419 -3.91,-10.098 -10.184,-10.311 -9.893,-0.334 -19.821,-0.421 -29.71,0.026 -6.596,0.3 -10.828,4.745 -10.219,11.158 0.569,6.044 4.744,10.071 11.574,9.993 4.601,-0.048 9.207,-0.009 13.808,-0.017" /><path
           inkscape:connector-curvature="0"
           id="path30"
           style="fill:#ffffff;fill-opacity:1;fill-rule:nonzero;stroke:none"
           d="m 66.551956,637.18842 c -4.605,0.004 -9.263,-0.447 -13.799,0.118 -6.235,0.773 -11.049,4.531 -10.841,10.97 0.2,6.24 4.48,10.267 11.232,10.349 9.206,0.109 18.422,0.144 27.629,-0.008 6.66,-0.113 11.192,-4.097 11.435,-10.28 0.244,-6.309 -4.523,-10.293 -10.788,-11.036 -4.892,-0.582 -9.906,-0.117 -14.868,-0.113" /><path
           inkscape:connector-curvature="0"
           id="path34"
           style="fill:#ffffff;fill-opacity:1;fill-rule:nonzero;stroke:none"
           d="m 66.738956,591.88862 c -4.623,0 -9.246,0.087 -13.869,-0.021 -6.552,-0.152 -10.028,3.897 -10.949,9.446 -1.043,6.273 3.28,10.61 8.877,11.331 10.897,1.408 22.015,1.568 32.916,-0.113 5.336,-0.821 9.333,-5.158 8.546,-10.588 -0.76,-5.241 -4.084,-9.907 -10.588,-10.037 -4.975,-0.1 -9.954,-0.018 -14.933,-0.018" /><path
           inkscape:connector-curvature="0"
           id="path38"
           style="fill:#ffffff;fill-opacity:1;fill-rule:nonzero;stroke:none"
           d="m 143.48656,591.88082 c -4.614,0 -9.224,-0.022 -13.838,0.004 -6.253,0.035 -10.245,3.202 -10.832,9.337 -0.591,6.222 3.276,10.606 8.955,11.384 10.875,1.485 21.95,1.472 32.851,-0.018 5.6,-0.769 8.712,-5.622 8.394,-10.731 -0.313,-5.088 -3.875,-9.303 -9.58,-9.789 -5.283,-0.453 -10.632,-0.096 -15.95,-0.096 z" /><g
           id="g40"
           transform="translate(196.8076,321.6592)"
           style="fill:#ffffff;fill-opacity:1"><path
             d="m -130.16435,224.90422 c -4.605,0.009 -9.229,-0.191 -13.821,0.061 -6.639,0.365 -10.858,4.345 -10.949,10.688 -0.091,5.987 4.488,10.028 10.158,10.428 9.876,0.704 19.874,0.764 29.745,0.052 6.139,-0.434 10.975,-4.866 10.428,-11.245 -0.521,-6.056 -4.966,-9.993 -11.736,-9.993 -4.61,0 -9.215,0 -13.825,0.009"
             style="fill:#ffffff;fill-opacity:1;fill-rule:nonzero;stroke:none"
             id="path42"
             inkscape:connector-curvature="0" /></g><path
           inkscape:connector-curvature="0"
           id="path46"
           style="fill:#ffffff;fill-opacity:1;fill-rule:nonzero;stroke:none"
           d="m 143.57346,546.56342 c -4.271,-0.009 -8.542,0.035 -12.809,-0.018 -6.569,-0.086 -11.127,2.842 -12,9.438 -0.939,7.073 4.288,11.053 9.928,11.618 10.214,1.017 20.638,0.799 30.905,0.087 5.952,-0.408 9.863,-5.544 9.502,-11.045 -0.352,-5.335 -4.067,-9.906 -10.58,-10.045 -4.979,-0.104 -9.963,-0.026 -14.946,-0.035" /><path
           inkscape:connector-curvature="0"
           id="path50"
           style="fill:#ffffff;fill-opacity:1;fill-rule:nonzero;stroke:none"
           d="m 220.71216,546.58102 c -4.606,0.009 -9.224,-0.209 -13.808,0.061 -6.63,0.391 -10.919,4.475 -10.936,10.723 -0.013,5.778 4.51,10.019 10.241,10.402 9.871,0.66 19.856,0.729 29.714,-0.018 6.074,-0.461 10.975,-4.692 10.358,-11.244 -0.582,-6.188 -5.053,-9.915 -11.761,-9.924 -4.601,-0.018 -9.207,-0.009 -13.808,0" /><path
           inkscape:connector-curvature="0"
           id="path54"
           style="fill:#ffffff;fill-opacity:1;fill-rule:nonzero;stroke:none"
           d="m 143.16036,637.17132 c -4.267,0 -8.572,-0.352 -12.795,0.078 -6.805,0.695 -11.81,4.549 -11.414,11.553 0.36,6.378 5.14,9.824 11.805,9.832 8.894,0.009 17.787,-0.043 26.677,0.009 6.982,0.039 11.201,-4.197 11.388,-10.258 0.191,-6.091 -4.015,-10.628 -10.723,-11.11 -4.958,-0.352 -9.959,-0.069 -14.938,-0.069 z" /><path
           inkscape:connector-curvature="0"
           id="path58"
           style="fill:#ffffff;fill-opacity:1;fill-rule:nonzero;stroke:none"
           d="m 220.52946,591.87202 c -4.601,0.009 -9.207,-0.087 -13.804,0.03 -6.386,0.165 -10.223,4.54 -10.693,9.867 -0.49,5.566 3.337,10.58 9.386,10.923 10.553,0.604 21.211,0.691 31.743,-0.109 5.74,-0.438 9.902,-5.053 9.111,-11.065 -0.725,-5.541 -4.54,-9.542 -10.884,-9.642 -4.953,-0.074 -9.906,-0.013 -14.859,-0.004" /><path
           inkscape:connector-curvature="0"
           id="path62"
           style="fill:#ffffff;fill-opacity:1;fill-rule:nonzero;stroke:none"
           d="m 66.725756,730.16842 c -5.318,0.009 -10.636,-0.156 -15.946,0.052 -5.43,0.218 -8.589,3.554 -8.95,8.712 -0.4,5.661 2.785,10.197 8.312,10.523 11.292,0.669 22.671,0.595 33.972,-0.009 5.244,-0.278 8.116,-5.275 7.964,-9.854 -0.165,-5.053 -3.102,-9.45 -9.411,-9.437 -5.314,0.013 -10.627,0.004 -15.941,0.013" /></g></g></g></svg>