<svg xmlns="http://www.w3.org/2000/svg" width="226" height="49" viewBox="0 0 226 49"><g fill="#454544"><path d="M15.1 48.4v-6.9c0-1.7 0-2.8-.3-3.5-.1-.3-.3-.6-.7-.8-.6-.4-1.2-.4-1.4-.4-2.2-.1-3 1.7-3.3 2.6-.1.2-.1.6-.1.6-.2.9-.1 1.4-.2 3.1v5.3h-1.6v-7.1c0-1.7 0-2.8-.4-3.5-.2-.3-.4-.5-.5-.6-.4-.2-.9-.5-1.6-.4-.2 0-1.2 0-2 .8-1.3 1.2-1.3 3-1.4 4.2v6.7h-1.6v-12.9h1.6v2.7c.1-.2.2-.7.5-1.3 1.1-1.7 3.2-1.6 3.4-1.6 1.3 0 2.8.6 3.3 2.3.1.4.1.7.1.9 0-.1.2-.8.5-1.3.9-1.6 2.4-1.9 3.6-1.9.7 0 1.2.1 1.9.4 1.4.8 1.6 2.2 1.7 3.3 0 .4 0 .6.1 1v8.3h-1.6zM20 42v.3c0 2.6 1.1 4.2 2.7 4.8.4.1.9.2 1.7.2.1 0 .5 0 1-.1s1.8-.4 2.8-2.1l.3-.5 1.5.4c-.2.3-.6 1.5-1.7 2.4-1.2 1-2.7 1.3-3.9 1.3-1.5 0-3.3-.5-4.6-2.1-.7-.9-1.4-2.5-1.4-4.7 0-1.9.5-3.2 1-3.9l.2-.3c1.7-2.4 4.1-2.4 4.6-2.4 3.8 0 5.8 3.3 5.8 6.5v.2h-10zm8.1-1.3c-.1-.8-.2-1.3-.4-1.7-.5-1.1-1.5-2.3-3.5-2.3-1.3 0-2.1.5-2.7 1-.4.4-.9 1-1.3 2-.2.5-.2.8-.2 1h8.1zM40.6 48.4v-2.3c-.2.6-.6 1.1-.8 1.3-.4.4-1 .9-2 1.1-.4.1-.7.1-1.1.1-.6 0-3-.1-4.4-2.6-.1-.3-.4-.9-.6-1.6-.3-1.1-.3-2.1-.3-2.5 0-2.1.7-5 3.4-6.2.3-.2 1.2-.5 2.2-.4 1.4 0 2.3.5 2.8 1.1.6.6.7.9.8 1.2v-8.2h1.6v18.9h-1.6zm.1-6.5c0-1.8-.3-3-.8-3.8-.4-.5-.8-.8-1-.9-.8-.5-1.6-.5-1.9-.5-1 0-2 .4-2.8 1.5-.8 1.2-1 2.6-1 3.7 0 1.9.5 3.3 1.2 4 .6.7 1.3.9 1.4 1 .4.2.9.2 1.3.2 1.2 0 1.9-.4 2.4-.9 1.2-1.2 1.2-3 1.2-4.2v-.1zM44.5 29.5h1.6v2.4h-1.6zM44.5 35.6h1.6v12.8h-1.6zM56.7 40.2v-.7c0-1.2-.2-1.9-.9-2.4-.5-.3-1.1-.6-2.1-.6-.7 0-1.9.1-2.6.8-.5.5-.6 1.1-.6 1.2-.1.5-.1.9-.1 1.1l-1.7-.3c.3-1.8.9-2.7 1.9-3.4 1-.7 2.1-.8 3.1-.8 1.8 0 3.2.6 3.9 1.3.2.2.4.6.6 1.1.2.5.2 1 .2 2v4.7c0 2-.1 2.8 1.6 2.8h.3v1.3h-.2c-.4 0-.7 0-1-.1-1.2-.1-1.8-.6-2-1.3-.1-.2-.1-.7-.1-1-.2.5-.6 1.3-1.9 2-.5.3-1.4.6-2.7.6-3.1 0-4-2.1-4-3.5 0-.7.2-2.2 2.3-3.2.9-.4 2.5-.8 4.7-1.4l1.3-.2zm-.8 1.6c-2 .5-3.6.9-4.3 1.2-.5.2-.9.4-1.1.5-.6.5-.8 1-.8 1.5 0 .2 0 1.2 1 1.8.1.1.3.2.5.2.2.1.6.2 1.1.2.7 0 1.2-.2 1.4-.2 1.6-.6 2.4-1.5 2.7-2.3.3-.7.3-1.5.3-2.1v-1l-.8.2zM66.9 29.4v14.9h7.4v4h-12.1v-18.9h4.7zM93.8 48.4h-5l-.9-3h-7l-.9 3h-5l7-18.9h4.9l6.9 18.9zm-7-6.5l-2.5-8-.8 2.9c-.2.9-.4 1.5-.7 2.4-.3 1-.5 1.7-.9 2.8h4.9zM103.5 29.4c2.5.1 3.7.1 4.9.6.8.3 1.4.7 2 1.5.7.9.9 2 .9 2.9-.1 1.5-.6 2.4-1.3 3-.5.5-1 .7-1.2.8-.6.3-1 .3-1.6.5.1 0 1.7.2 2.8.8l.3.2c.5.4.9.8 1.3 1.7.1.3.3.9.3 1.7 0 1.3-.5 2.7-1.8 3.8l-.5.3c-1.6 1.1-3.6 1.2-5.2 1.2h-8.8v-19h7.9zm-3.3 7.5h3.6c.6 0 1.8 0 2.4-.7.2-.2.3-.4.3-.5.2-.4.2-.8.2-.9 0-1.1-.6-1.6-1.2-1.8-.2-.1-.5-.1-1.1-.1h-4.1v4zm0 8h3.3c1.4-.1 2.3-.1 2.9-.6l.3-.3c.3-.4.4-.9.4-1.3 0-.6-.1-1.3-.8-1.8-.6-.5-1.4-.5-2-.5h-4.1v4.5z"/></g><circle fill="#E63312" cx="61.3" cy="6.2" r="4.6"/><circle fill="#831F82" cx="96.7" cy="8.7" r="4.6"/><circle fill="#AFCA0B" cx="91" cy="17.4" r="3.2"/><circle fill="#AFCA0B" cx="48.3" cy="3.6" r="3.2"/><circle fill="#41C0F0" cx="83.4" cy="17.9" r="1.8"/><circle fill="#fd0" cx="71" cy="10.5" r="1.8"/><circle fill="#E63312" cx="113.3" cy="2.1" r="1.8"/><circle fill="#41C0F0" cx="72.5" cy="17.4" r="1.8"/><circle fill="#fd0" cx="107.1" cy="6.4" r="2.6"/><circle fill="#831F82" cx="64.2" cy="15.3" r="2.6"/><circle fill="#E6007E" cx="119.7" cy="4.5" r="1.3"/><circle fill="#F7A600" cx="85.9" cy="22.6" r="1.3"/><circle fill="#E63312" cx="86.8" cy="11.9" r="1.3"/><circle fill="#831F82" cx="85.8" cy="26.4" r="1.3"/><circle fill="#E6007E" cx="75" cy="7.2" r="1.3"/><circle fill="#AFCA0B" cx="82.5" cy="24.5" r="1.3"/><circle fill="#E63312" cx="78.8" cy="19.4" r="1.3"/><circle fill="#41C0F0" cx="41.8" cy="6.1" r="1.3"/><circle fill="#F7A600" cx="53" cy="10.1" r="1.3"/><g fill="#454544"><path d="M122.1 40.2v-.7c0-1.2-.2-1.9-.9-2.4-.5-.3-1.1-.6-2.1-.6-.7 0-1.9.1-2.6.8-.5.5-.6 1.1-.6 1.2-.1.5-.1.9-.1 1.1l-1.7-.3c.3-1.8.9-2.7 1.9-3.4 1-.7 2.1-.8 3.1-.8 1.8 0 3.2.6 3.9 1.3.2.2.4.6.6 1.1.2.5.2 1 .2 2v4.7c0 2-.1 2.8 1.6 2.8h.3v1.3h-.2c-.4 0-.7 0-1-.1-1.2-.1-1.8-.6-2-1.3-.1-.2-.1-.7-.1-1-.2.5-.6 1.3-1.9 2-.5.3-1.4.6-2.7.6-3.1 0-4-2.1-4-3.5 0-.7.2-2.2 2.3-3.2.9-.4 2.5-.8 4.7-1.4l1.3-.2zm-.7 1.6c-2 .5-3.6.9-4.3 1.2-.5.2-.9.4-1.1.5-.6.5-.8 1-.8 1.5 0 .2 0 1.2 1 1.8.1.1.3.2.5.2.2.1.6.2 1.1.2.7 0 1.2-.2 1.4-.2 1.6-.6 2.4-1.5 2.7-2.3.3-.7.3-1.5.3-2.1v-1l-.8.2zM142.1 48.4v-6.9c0-1.7 0-2.8-.3-3.5-.1-.3-.3-.6-.7-.8-.6-.4-1.2-.4-1.4-.4-2.2-.1-3 1.7-3.3 2.6-.1.2-.1.6-.1.6-.2.9-.1 1.4-.2 3.1v5.3h-1.6v-7.1c0-1.7 0-2.8-.4-3.5-.2-.3-.4-.5-.5-.6-.3-.2-.8-.5-1.6-.5-.2 0-1.2 0-2 .8-1.3 1.2-1.3 3-1.4 4.2v6.7h-1.6v-12.8h1.6v2.7c.1-.2.2-.7.5-1.3 1.1-1.7 3.2-1.6 3.4-1.6 1.3 0 2.8.6 3.3 2.3.1.4.1.7.1.9 0-.1.2-.8.5-1.3.9-1.6 2.4-1.9 3.6-1.9.7 0 1.2.1 1.9.4 1.4.8 1.6 2.2 1.7 3.3 0 .4 0 .6.1 1v8.3h-1.6zM146.5 44.7c0 .1.1.5.3.8 1 1.9 3 1.8 3.3 1.8 1.1 0 2-.3 2.4-.7.2-.2.5-.5.7-1 .1-.3.2-.7.2-.8 0-.3-.1-.7-.3-1-.4-.7-1.2-1-2.4-1.2l-1.4-.3c-.7-.2-2.1-.5-2.8-1.3-.1-.1-.3-.3-.3-.5-.1-.3-.4-.8-.4-1.5 0-1.3.7-2.3 1.3-2.7 1-.8 2.4-.9 3.4-.9.8 0 1.7.1 2.6.5l.3.2c.2.1.5.3.9.8.2.3.5.7.7 1.4l-1.5.4c0-.1-.1-.5-.4-.9-.5-.6-1.4-1-2.7-1-.6 0-1.6.1-2.2.5-.4.3-.9.9-.8 1.7 0 .4.1.7.3.9.5.7 1.2.9 2.4 1.2l1.3.3.6.2c1.4.4 2.1 1 2.5 1.8.3.5.4 1 .4 1.5.1 1.8-1.3 4-4.8 4-1.4 0-3.2-.4-4.4-2.1-.3-.4-.6-.9-.7-1.3l1.5-.8zM162.5 48c-.8.6-1.9.6-2 .6-.9 0-1.4-.2-1.8-.6-.4-.4-.5-.8-.5-1.7-.1-.5 0-.9 0-1.4v-8h-2.7v-1.3h2.7v-5.4h1.5v5.4h2.8v1.3h-2.8v8.7c0 .6.1 1.1.4 1.3.1.1.3.2.6.2.4 0 .9-.1 1.9-.8v1.7zM165.3 42v.3c0 2.6 1.1 4.2 2.7 4.8.4.1.9.2 1.7.2.1 0 .5 0 1-.1s1.8-.4 2.8-2.1l.3-.5 1.5.4c-.2.3-.6 1.5-1.7 2.4-1.2 1-2.7 1.3-3.9 1.3-1.5 0-3.3-.5-4.6-2.1-.7-.9-1.4-2.5-1.4-4.7 0-1.9.5-3.2 1-3.9l.2-.3c1.7-2.4 4.1-2.4 4.6-2.4 3.8 0 5.8 3.3 5.8 6.5v.2h-10zm8.1-1.3c-.1-.8-.2-1.3-.4-1.7-.5-1.1-1.5-2.3-3.5-2.3-1.3 0-2.1.5-2.7 1-.4.4-.9 1-1.3 2-.2.5-.2.8-.2 1h8.1zM177 48.4v-12.8h1.6v2c.1-.2.3-.7.9-1.3.6-.6 1.4-1 2.8-1 .4 0 .7.1.9.1v1.4c-.5-.1-.8-.1-1-.1-.2 0-1.7-.1-2.7 1.1-.6.8-.8 1.9-.8 2-.1.5-.1 1.6-.1 2.9v5.5h-1.6zM192.6 48.4v-2.3c-.2.6-.6 1.1-.8 1.3-.4.4-1 .9-2 1.1-.4.1-.7.1-1.1.1-.6 0-3-.1-4.4-2.6-.1-.3-.4-.9-.6-1.6-.3-1.1-.3-2.1-.3-2.5 0-2.1.7-5 3.4-6.2.3-.2 1.2-.5 2.2-.4 1.4 0 2.3.5 2.8 1.1.6.6.7.9.8 1.2v-8.2h1.6v18.9h-1.6zm.1-6.5c0-1.8-.3-3-.8-3.8-.4-.5-.8-.8-1-.9-.8-.5-1.6-.5-1.9-.5-1 0-2 .4-2.8 1.5-.8 1.2-1 2.6-1 3.7 0 1.9.5 3.3 1.2 4 .6.7 1.3.9 1.4 1 .4.2.9.2 1.3.2 1.2 0 1.9-.4 2.4-.9 1.2-1.2 1.2-3 1.2-4.2v-.1zM204.5 40.2v-.7c0-1.2-.2-1.9-.9-2.4-.5-.3-1.1-.6-2.1-.6-.7 0-1.9.1-2.6.8-.5.5-.6 1.1-.6 1.2-.1.5-.1.9-.1 1.1l-1.7-.3c.3-1.8.9-2.7 1.9-3.4 1-.7 2.1-.8 3.1-.8 1.8 0 3.2.6 3.9 1.3.2.2.4.6.6 1.1.2.5.2 1 .2 2v4.7c0 2-.1 2.8 1.6 2.8h.3v1.3h-.2c-.4 0-.7 0-1-.1-1.2-.1-1.8-.6-2-1.3-.1-.2-.1-.7-.1-1-.2.5-.6 1.3-1.9 2-.5.3-1.4.6-2.7.6-3.1 0-4-2.1-4-3.5 0-.7.2-2.2 2.3-3.2.9-.4 2.5-.8 4.7-1.4l1.3-.2zm-.7 1.6c-2 .5-3.6.9-4.3 1.2-.5.2-.9.4-1.1.5-.6.5-.8 1-.8 1.5 0 .2 0 1.2 1 1.8.1.1.3.2.5.2.2.1.6.2 1.1.2.7 0 1.2-.2 1.4-.2 1.6-.6 2.4-1.5 2.7-2.3.3-.7.3-1.5.3-2.1v-1l-.8.2zM224.4 48.4v-6.9c0-1.7 0-2.8-.3-3.5-.1-.3-.3-.6-.7-.8-.6-.4-1.2-.4-1.4-.4-2.2-.1-3 1.7-3.3 2.6-.1.2-.1.6-.1.6-.2.9-.1 1.4-.2 3.1v5.3h-1.6v-7.1c0-1.7 0-2.8-.4-3.5-.2-.3-.4-.5-.5-.6-.3-.2-.8-.5-1.6-.5-.2 0-1.2 0-2 .8-1.3 1.2-1.3 3-1.4 4.2v6.7h-1.6v-12.8h1.6v2.7c.1-.2.2-.7.5-1.3 1.1-1.7 3.2-1.6 3.4-1.6 1.3 0 2.8.6 3.3 2.3.1.4.1.7.1.9 0-.1.2-.8.5-1.3.9-1.6 2.4-1.9 3.6-1.9.7 0 1.2.1 1.9.4 1.4.8 1.6 2.2 1.7 3.3 0 .4 0 .6.1 1v8.3h-1.6z"/></g></svg>